<svg width="124" height="26" viewBox="0 0 124 26" fill="none" xmlns="http://www.w3.org/2000/svg">
<path d="M109.609 10C107.388 10 105.206 11.3896 103.522 12.8507C103.943 13.3115 104.345 13.7898 104.726 14.2845C104.907 14.5231 105.17 14.8458 105.495 15.2116C106.793 14.0722 108.318 13.0631 109.609 13.0631C111.803 13.0631 113.588 14.85 113.588 17.047C113.588 19.2439 111.803 21.0308 109.609 21.0308C107.156 21.0308 103.853 17.398 102.889 16.124C102.417 15.4975 98.1433 10 93.7262 10C89.8455 10 86.688 13.1619 86.688 17.048C86.688 20.9341 89.8455 24.095 93.7262 24.095C95.8833 24.095 98.0016 22.7831 99.6644 21.3683C99.2015 20.8692 98.7619 20.3491 98.347 19.8094C98.1375 19.5369 97.9191 19.2716 97.692 19.0137C96.4281 20.0985 94.9691 21.0308 93.7262 21.0308C91.5323 21.0308 89.7479 19.2439 89.7479 17.047C89.7479 14.85 91.5323 13.0631 93.7262 13.0631C96.1804 13.0631 99.4828 16.6959 100.446 17.9699C100.919 18.5964 105.192 24.0939 109.609 24.0939C111.475 24.092 113.264 23.3489 114.583 22.0277C115.902 20.7066 116.644 18.9153 116.646 17.047C116.645 15.1785 115.903 13.387 114.583 12.0658C113.264 10.7447 111.475 10.0017 109.609 10Z" fill="#00AEFF"/>
<path d="M2.60713 4.624V5.608H2.82313V4.864H9.61513V24.736H8.89513V25H13.6951V24.736H12.9511V4.864H19.6711V5.608H19.8871V4.624H2.60713ZM27.0888 22.816C25.9608 24.04 24.4488 24.784 22.7208 24.784C20.0568 24.784 20.0328 20.584 20.0328 19.048C20.0328 17.128 20.5128 13.24 22.7208 13.24C24.4488 13.24 25.9608 13.96 27.0888 15.184V22.816ZM30.7128 13.216V13H26.5608V13.216H27.0888V14.872C25.9608 13.72 24.4248 13.024 22.7208 13.024C22.3608 13.024 22.0728 13.072 21.5208 13.192C18.7368 13.768 16.7448 16.216 16.7448 19.024C16.7448 21.784 18.6408 24.184 21.5688 24.88C21.9768 24.952 22.3368 25 22.7208 25C24.4488 25 25.9608 24.304 27.0888 23.128V24.76H26.5608V24.976H30.7128V24.76H30.1848V13.216H30.7128ZM36.1764 4.816H36.7284V4.6H32.5764V4.816H33.1284V24.76H32.5764V25H36.7284V24.76H36.1764V4.816ZM50.2477 19.096C50.2237 18.136 50.1277 17.728 50.0317 17.416C49.3837 15.04 47.4637 13.576 45.2797 13.072C44.9197 13.024 44.5837 13 44.2717 13C44.0797 13 43.8397 13.024 43.6237 13.048C43.5037 13.072 43.3837 13.072 43.2637 13.072C40.2157 13.696 38.2477 16.192 38.2477 18.976C38.2477 21.76 40.1197 24.184 42.8077 24.832C43.0957 24.904 43.8157 25 44.2717 25C46.3837 25 48.2797 23.944 49.4317 22.048H49.1677C48.1117 23.8 46.2877 24.784 44.2717 24.784C41.7037 24.784 41.5597 20.704 41.5597 19.096H46.9597H50.2477ZM41.5597 18.904C41.6557 17.344 41.8237 16.24 42.1837 15.112C42.2077 15.136 42.7117 13.384 43.9837 13.216H44.2717H44.5357C45.3277 13.312 45.8317 14.008 46.0957 14.56C46.6477 15.808 46.9357 17.296 46.9357 18.904H41.5597ZM64.4531 24.784V18.568C64.2611 15.568 62.1491 13.096 59.1011 13.096C57.6851 13.096 56.3891 13.648 55.4531 14.584V13.264H55.9811V13.024H51.7571V13.264H52.2851V24.808H51.7571V25H55.9811V24.808H55.4531V14.848C56.3411 13.912 57.6611 13.312 59.1011 13.312C61.1651 13.312 61.4531 16.624 61.5251 17.968V24.784H60.9971V25H65.0291V24.784H64.4531ZM72.5853 12.28V12.736H69.5133V8.368H70.0413V8.176H65.9613V8.368H66.4653V20.992H66.4893C66.4893 23.224 67.9293 25 69.6573 25C71.1453 25 72.4413 23.512 72.7053 21.496H72.5133C72.3453 22.72 71.7693 23.584 71.0973 23.584C70.2573 23.584 69.5133 22.336 69.5133 20.92V12.928H72.5853V13.36H72.8013V12.28H72.5853ZM81.2932 14.536H78.1012V4.864H81.3172C84.4612 6.856 84.8212 13 81.2932 14.536ZM81.6292 4.648H74.1892V4.864H74.8852V24.736H74.1892V25H78.6532V24.736H78.1012V14.776H81.2932C88.2292 15.064 88.4932 4.744 81.6292 4.648Z" fill="white"/>
<path d="M121.734 5.816H122.286V5.6H118.134V5.816H118.686V25.76H118.134V26H122.286V25.76H121.734V5.816Z" fill="white"/>
</svg>
