<svg width="22" height="24" viewBox="0 0 22 24" fill="none" xmlns="http://www.w3.org/2000/svg">
<path d="M17.9455 3.40999C15.9601 1.21104 13.3202 0 10.5123 0C7.70434 0 5.06445 1.21104 3.07898 3.40999C1.09344 5.60891 0 8.5326 0 11.6424C0 14.7522 1.09344 17.6759 3.07898 19.8748C5.06445 22.0738 7.70434 23.2848 10.5123 23.2848C13.3202 23.2848 15.9601 22.0738 17.9455 19.8748C19.9311 17.6759 21.0245 14.7522 21.0245 11.6424C21.0245 8.5326 19.9311 5.60891 17.9455 3.40999ZM10.5123 21.8988C5.40585 21.8988 1.25145 17.2978 1.25145 11.6424C1.25145 5.98701 5.40585 1.38599 10.5123 1.38599C15.6187 1.38599 19.7731 5.98701 19.7731 11.6424C19.7731 17.2978 15.6187 21.8988 10.5123 21.8988Z" fill="#999999"/>
<path d="M8.23974 8.56795C7.21508 7.43303 5.54778 7.43312 4.52312 8.56795C4.27875 8.83855 4.27875 9.27738 4.52312 9.54802C4.76753 9.81862 5.16375 9.81862 5.40808 9.54802C5.94486 8.95357 6.81821 8.95361 7.35491 9.54802C7.47711 9.68337 7.63722 9.75104 7.79733 9.75104C7.95743 9.75104 8.11762 9.68337 8.23974 9.54802C8.48411 9.27738 8.48411 8.8386 8.23974 8.56795Z" fill="#999999"/>
<path d="M16.5015 8.56795C15.4768 7.43312 13.8095 7.43303 12.7848 8.56795C12.5405 8.83855 12.5405 9.27738 12.7848 9.54802C13.0293 9.81862 13.4255 9.81862 13.6698 9.54802C14.2065 8.95357 15.0798 8.95352 15.6166 9.54802C15.7388 9.68337 15.8989 9.75104 16.059 9.75104C16.2192 9.75104 16.3793 9.68337 16.5015 9.54802C16.7458 9.27738 16.7458 8.8386 16.5015 8.56795Z" fill="#999999"/>
<path d="M16.0618 12.1504H4.96557C4.61998 12.1504 4.33984 12.4607 4.33984 12.8434C4.33984 16.6136 7.10946 19.681 10.5137 19.681C13.918 19.681 16.6876 16.6136 16.6876 12.8434C16.6876 12.4606 16.4074 12.1504 16.0618 12.1504ZM10.5137 18.295C8.01137 18.295 5.93914 16.2165 5.63088 13.5364H15.3966C15.0883 16.2165 13.016 18.295 10.5137 18.295Z" fill="#999999"/>
</svg>
