<svg width="16" height="15" viewBox="0 0 16 15" fill="none" xmlns="http://www.w3.org/2000/svg">
<path d="M15.7253 12.9273C14.7527 10.637 12.498 9.30681 10.8613 8.73818C11.864 7.90023 12.456 6.31977 12.456 4.24977C12.456 1.49863 10.2073 0.771136 9.01799 0.771136C8.82666 0.771136 8.60666 0.792949 8.37466 0.835903C7.73599 0.248858 6.89133 0 6.21933 0C4.97666 0 3.128 0.833187 3.128 3.1275C3.128 4.9534 3.64933 6.35182 4.53401 7.10455C3.142 7.47682 1.246 8.39592 0.274672 10.6834L0 11.3305L0.642001 11.5895C0.699329 11.6127 1.48867 11.9223 2.68333 12.1957C2.54666 12.433 2.418 12.6723 2.30933 12.9273L2.034 13.5743L2.676 13.8334C2.79468 13.8804 5.61001 15 9.01734 15C12.4247 15 15.24 13.8804 15.3587 13.8334L16 13.5743L15.7253 12.9273V12.9273ZM11.1227 4.25045C11.1227 6.58977 10.316 8.04272 9.01799 8.04272C7.71999 8.04272 6.91332 6.58977 6.91332 4.25045C6.91332 2.25954 8.66999 2.13954 9.01465 2.13545C9.36598 2.13954 11.1227 2.25954 11.1227 4.25045H11.1227ZM6.21932 1.36363C6.28665 1.36363 6.55332 1.37522 6.85799 1.47613C6.14466 2.00112 5.57999 2.87113 5.57999 4.25045C5.57999 4.99978 5.65932 5.68363 5.80532 6.29317C4.82399 5.9734 4.46131 4.51022 4.46131 3.1275C4.46131 1.46999 5.92932 1.36705 6.21932 1.36363V1.36363ZM6.21932 8.21317C6.22732 8.21317 6.41264 8.21726 6.70332 8.25543C6.99399 8.62226 7.33599 8.90589 7.72132 9.10021C6.67199 9.31498 5.17732 9.8277 3.96531 11.0536C3.09198 10.9097 2.34399 10.7168 1.84198 10.5627C3.27331 8.25817 6.09132 8.21384 6.21932 8.21317V8.21317ZM9.01732 13.6364C6.83332 13.6364 4.63932 13.125 3.63664 12.8086C3.79464 12.3402 4.29397 11.7211 4.46732 11.5084C6.32932 9.6641 8.98999 9.62523 9.01532 9.62523C9.02065 9.62523 9.50132 9.63273 10.1853 9.77251C11.3733 10.0793 13.2187 11.2009 14.168 12.8073C13.166 13.1236 11.2047 13.6364 9.01732 13.6364V13.6364Z" fill="#C4C4C4"/>
</svg>
