<svg width="24" height="23" viewBox="0 0 24 23" fill="none" xmlns="http://www.w3.org/2000/svg">
<path d="M9 8.87891H10.5V17.2886H9V8.87891Z" fill="#084482"/>
<path d="M13.5 8.87891H15V17.2886H13.5V8.87891Z" fill="#084482"/>
<path d="M3 4.67432V6.07594H4.5V20.0921C4.5 20.4639 4.65804 20.8204 4.93934 21.0832C5.22064 21.3461 5.60218 21.4938 6 21.4938H18C18.3978 21.4938 18.7794 21.3461 19.0607 21.0832C19.342 20.8204 19.5 20.4639 19.5 20.0921V6.07594H21V4.67432H3ZM6 20.0921V6.07594H18V20.0921H6Z" fill="#084482"/>
<path d="M9 1.87109H15V3.27271H9V1.87109Z" fill="#084482"/>
</svg>
