<?xml version="1.0" encoding="UTF-8"?>
<svg width="128px" height="27px" viewBox="0 0 128 27" version="1.1" xmlns="http://www.w3.org/2000/svg" xmlns:xlink="http://www.w3.org/1999/xlink">
    <!-- Generator: Sketch 58 (84663) - https://sketch.com -->
    <title>Logo</title>
    <desc>Created with Sketch.</desc>
    <g id="Symbols" stroke="none" stroke-width="1" fill="none" fill-rule="evenodd">
        <g id="Header" transform="translate(0.000000, -5.000000)" fill-rule="nonzero">
            <g id="Group-20">
                <g id="Logo" transform="translate(0.000000, 5.000000)">
                    <path d="M75.597,11.388 L75.597,1.455 C75.597,0.81 76.099,0.308 76.744,0.308 C77.389,0.308 77.891,0.81 77.891,1.455 L77.891,19.24 C77.891,23.974 74.951,26.304 70.863,26.304 C66.238,26.304 63.512,23.542 63.512,17.661 C63.512,11.781 66.094,9.056 70.72,9.056 C73.015,9.057 74.771,10.24 75.597,11.388 Z M75.597,14.293 C75.597,14.293 74.235,11.137 70.864,11.137 C67.6,11.137 65.807,13.252 65.807,17.662 C65.807,22.144 67.565,24.225 70.864,24.225 C73.626,24.225 75.597,22.647 75.597,19.241 L75.597,14.293 Z" id="Shape" fill="#262D33"></path>
                    <path d="M88.867,9.057 C94.603,9.057 95.716,13.611 95.716,16.049 C95.716,17.09 95.716,18.344 94.281,18.344 L83.811,18.344 C83.811,21.895 85.856,24.19 89.226,24.19 C91.305,24.19 92.525,23.401 93.529,22.647 C93.745,22.504 93.887,22.432 94.175,22.432 C94.749,22.432 95.215,22.899 95.215,23.473 C95.215,23.866 95.036,24.082 94.82,24.297 C94.282,24.834 92.418,26.305 89.226,26.305 C84.457,26.305 81.4809997,23.688 81.4809997,17.662 C81.48,12.141 84.205,9.057 88.867,9.057 Z M88.867,11.137 C85.747,11.137 84.025,13.145 83.81,16.336 L93.4560008,16.336 C93.457,13.754 92.561,11.137 88.867,11.137 Z" id="Shape" fill="#262D33"></path>
                    <path d="M101.168,13.432 C101.168,17.198 110.6,15.799 110.6,21.536 C110.6,24.8 107.911,26.27 104.503,26.27 C101.563,26.27 99.304,24.872 98.371,23.688 C98.191,23.436 98.12,23.256 98.12,23.006 C98.12,22.432 98.586,21.965 99.16,21.965 C99.375,21.965 99.662,22.037 99.949,22.324 C101.06,23.435 102.495,24.082 104.503,24.082 C106.547,24.082 108.305,23.4 108.305,21.535 C108.305,17.842 98.873,19.312 98.873,13.431 C98.873,10.454 101.311,9.092 104.359,9.092 C106.797,9.092 108.699,9.917 109.81,11.387 C109.917,11.53 110.06,11.745 110.06,12.068 C110.06,12.642 109.594,13.108 109.021,13.108 C108.841,13.108 108.554,13.072 108.267,12.785 C107.299,11.852 106.224,11.279 104.359,11.279 C102.746,11.28 101.168,11.782 101.168,13.432 Z" id="Shape" fill="#262D33"></path>
                    <path d="M125.303,25.588 L118.956,17.447 L116.768,19.205 L116.768,24.978 C116.768,25.623 116.266,26.1240041 115.621,26.1240041 C114.976,26.1240041 114.474,25.622 114.474,24.978 L114.474,1.455 C114.474,0.81 114.977,0.308 115.621,0.308 C116.267,0.308 116.768,0.81 116.768,1.455 L116.768,16.479 L125.231,9.559 C125.517,9.308 125.804,9.272 126.019,9.272 C126.665,9.272 127.167,9.774 127.167,10.419 C127.167,10.706 127.06,11.065 126.7,11.351 L120.819,16.048 L127.202,24.259 C127.417,24.511 127.454,24.761 127.454,24.978 C127.454,25.623 126.952,26.1240041 126.306,26.1240041 C125.912,26.125 125.59,25.945 125.303,25.588 Z" id="Shape" fill="#262D33"></path>
                    <path d="M8.109,9.057 C11.408,9.057 13.308,10.706 13.954,11.531 C14.241,11.926 14.349,12.213 14.349,12.643 C14.349,13.611 13.596,14.364 12.628,14.364 C12.054,14.364 11.624,14.114 11.301,13.755 C10.835,13.253 9.903,12.357 8.11,12.357 C5.6,12.357 4.237,14.294 4.237,17.663 C4.237,21.106 5.6,23.007 8.11,23.007 C9.759,23.007 10.835,22.183 11.66,21.571 C12.055,21.286 12.377,21.214 12.736,21.214 C13.704,21.214 14.457,21.966 14.457,22.935 C14.457,23.437 14.278,23.867 13.848,24.261 C13.023,25.015 11.051,26.306 8.111,26.306 C3.234,26.306 0.329998968,23.509 0.329998968,17.663 C0.328,11.818 3.232,9.057 8.109,9.057 Z" id="Shape" fill="#107B49"></path>
                    <path d="M20.77,11.208 C21.451,10.168 22.958,9.056 25.36,9.056 C30.237,9.056 31.384,12.176 31.384,15.296 L31.384,24.259 C31.384,25.335 30.523,26.124 29.447,26.124 C28.3,26.124 27.51,25.335 27.51,24.259 L27.51,16.013 C27.51,13.969 26.685,12.57 24.355,12.57 C21.666,12.57 20.769,14.148 20.769,16.263 L20.769,24.259 C20.769,25.335 19.944,26.124 18.832,26.124 C17.721,26.124 16.896,25.335 16.896,24.259 L16.896,2.244 C16.896,1.168 17.756,0.307 18.832,0.307 C19.908,0.307 20.769,1.168 20.769,2.244 L20.769,11.208 L20.77,11.208 Z" id="Shape" fill="#107B49"></path>
                    <path d="M37.625,13.862 C37.267,14.113 36.98,14.221 36.549,14.221 C35.617,14.221 34.864,13.468 34.864,12.535 C34.864,12.14 35.008,11.71 35.33,11.351 C36.334,10.24 38.127,9.056 41.211,9.056 C45.657,9.056 48.311,11.244 48.311,15.044 L48.311,24.224 C48.311,25.263 47.45,26.124 46.411,26.124 C45.371,26.124 44.51,25.263 44.51,24.224 C43.542,25.767 41.964,26.304 39.813,26.304 C36.299,26.304 33.968,24.116 33.968,20.89 C33.968,17.554 36.657,15.833 39.777,15.833 L44.474,15.833 L44.474,15.188 C44.474,13.573 43.291,12.498 41.211,12.498 C39.633,12.499 38.521,13.216 37.625,13.862 Z M44.474,19.85 L44.474,18.846 L40.279,18.846 C38.701,18.846 37.841,19.6 37.841,20.891 C37.841,22.252 38.809,23.079 40.817,23.079 C42.717,23.078 44.474,21.857 44.474,19.85 Z" id="Shape" fill="#107B49"></path>
                    <path d="M52.975,6.547 C52.975,5.507 53.836,4.646 54.875,4.646 C55.915,4.646 56.776,5.507 56.776,6.547 L56.776,9.559 L58.389,9.559 C59.285,9.559 60.003,10.276 60.003,11.173 C60.003,12.07 59.286,12.787 58.389,12.787 L56.776,12.787 L56.776,21.464 C56.776,22.29 57.493,22.755 58.138,22.755 C59.071,22.755 59.824,23.509 59.824,24.441 C59.824,25.375 59.071,26.127 58.138,26.127 C54.947,26.127 52.974,24.084 52.974,21.25 L52.974,12.788 L52.15,12.788 C51.254,12.788 50.536,12.071 50.536,11.174 C50.536,10.277 51.253,9.56 52.15,9.56 L52.975,9.56 L52.975,6.547 Z" id="Shape" fill="#107B49"></path>
                </g>
            </g>
        </g>
    </g>
</svg>