<svg width="2280" height="292" viewBox="0 0 2280 292" fill="none" xmlns="http://www.w3.org/2000/svg">
<path fill-rule="evenodd" clip-rule="evenodd" d="M1595.04 4.70744H1641.88V244.648H1844.92L1815.1 291.521H1595.04V4.70744V4.70744ZM1227.3 291.521L1054.08 18.196C1043.43 0.453372 1015.04 0.453377 1002.96 18.9094L831.164 291.521H887.959L939.786 209.163H1050.53L1079.65 162.303H968.903L1029.25 67.8962L1170.53 291.521H1227.3V291.521ZM1332.7 4.79818C1253.56 4.79818 1201.46 68.9597 1201.46 148.114C1201.46 227.256 1253.58 291.443 1332.7 291.443L1525.15 291.21L1555.27 244.752H1334.12C1280.77 244.752 1249.56 201.485 1249.56 148.114C1249.56 94.7435 1280.76 51.4764 1334.12 51.4764H1531.12L1560.19 4.65559L1332.7 4.79818V4.79818ZM131.549 51.4764H334.578C387.948 51.4764 419.153 94.7435 419.153 148.114C419.153 201.485 387.961 244.752 334.578 244.752H131.549C78.1784 244.752 46.9861 201.485 46.9861 148.114C46.9861 94.7435 78.1784 51.4764 131.549 51.4764ZM131.549 4.79818C52.3945 4.79818 0.294922 68.9597 0.294922 148.114C0.294922 227.256 52.3945 291.443 131.549 291.443H334.578C413.732 291.443 465.832 227.256 465.832 148.114C465.832 68.9597 413.732 4.79818 334.578 4.79818H131.549ZM1894.97 170.837C1902.6 213.248 1931.78 244.752 1977.33 244.752H2198.48L2168.33 291.21L1975.91 291.443C1896.75 291.443 1844.67 227.256 1844.67 148.114C1844.67 68.9597 1896.76 4.79818 1975.91 4.79818L2203.39 4.66856L2174.34 51.4894H1977.34C1932.43 51.4894 1903.12 82.4612 1894.98 123.99H2172.93L2143.11 170.85H1894.97V170.837V170.837ZM730.713 174.987C753.024 174.598 774.29 165.461 789.931 149.545C805.571 133.629 814.335 112.207 814.335 89.8929C814.335 67.5783 805.571 46.1562 789.931 30.2403C774.29 14.3243 753.024 5.18774 730.713 4.79818L491.823 4.69448V291.508H544.364V51.4894H730.713C740.898 51.4894 750.666 55.5355 757.869 62.7375C765.071 69.9396 769.117 79.7076 769.117 89.8929C769.117 100.078 765.071 109.846 757.869 117.048C750.666 124.25 740.898 128.296 730.713 128.296H581.276L749.857 291.184H817.675L696.992 175.091L730.713 174.987V174.987ZM2252.47 4.9668C2264.65 4.9668 2274.28 14.5904 2274.28 27.3527C2274.28 40.3224 2264.66 49.8682 2252.47 49.8682C2240.13 49.8682 2230.54 40.3224 2230.54 27.3527C2230.54 14.5904 2240.13 4.9668 2252.47 4.9668V0.479248C2237.64 0.479248 2225.12 11.8797 2225.12 27.3396C2225.12 42.9552 2237.66 54.3556 2252.47 54.3556C2267.16 54.3556 2279.71 42.9552 2279.71 27.3396C2279.71 11.8797 2267.16 0.479248 2252.47 0.479248V4.9668Z" fill="black"/>
<path fill-rule="evenodd" clip-rule="evenodd" d="M2246.77 15.8744H2253.21C2256.48 15.8744 2259.97 16.5877 2259.97 20.4397C2259.97 25.2126 2256.4 25.5109 2252.39 25.5109H2246.76V29.5056H2252.18L2260.39 42.9811H2265.66L2256.81 29.298C2261.38 28.7274 2264.87 26.315 2264.87 20.751C2264.87 14.6163 2261.22 11.9056 2253.9 11.9056H2242.04V42.9811H2246.75V15.8744H2246.77V15.8744Z" fill="black"/>
</svg>
