<svg width="48" height="48" viewBox="0 0 48 48" fill="none" xmlns="http://www.w3.org/2000/svg">
<path d="M24 12C17.373 12 12 17.373 12 24C12 30.627 17.373 36 24 36C30.627 36 36 30.627 36 24C36 17.373 30.627 12 24 12ZM24 33C19.0305 33 15 28.9695 15 24C15 19.0305 19.0305 15 24 15C28.9695 15 33 19.0305 33 24C33 28.9695 28.9695 33 24 33ZM24 0C10.7445 0 0 10.7445 0 24C0 37.2555 10.7445 48 24 48C37.2555 48 48 37.2555 48 24C48 10.7445 37.2555 0 24 0ZM24 42C14.0595 42 6 33.9405 6 24C6 14.0595 14.0595 6 24 6C33.9405 6 42 14.0595 42 24C42 33.9405 33.9405 42 24 42ZM24 19.5C21.5145 19.5 19.5 21.5145 19.5 24C19.5 26.4855 21.5145 28.5 24 28.5C26.4855 28.5 28.5 26.4855 28.5 24C28.5 21.5145 26.4855 19.5 24 19.5Z" fill="#084482"/>
</svg>
