<?xml version="1.0" encoding="iso-8859-1"?>
<!-- Generator: Adobe Illustrator 18.0.0, SVG Export Plug-In . SVG Version: 6.00 Build 0)  -->
<!DOCTYPE svg PUBLIC "-//W3C//DTD SVG 1.1//EN" "http://www.w3.org/Graphics/SVG/1.1/DTD/svg11.dtd">
<svg version="1.1" id="Capa_1" xmlns="http://www.w3.org/2000/svg" xmlns:xlink="http://www.w3.org/1999/xlink" x="0px" y="0px"
	 viewBox="0 0 458.8 458.8" style="enable-background:new 0 0 458.8 458.8;" xml:space="preserve">
<path d="M390.203,252.363c-2.631-15.947-9.366-30.498-19.235-42.434v-41.667C370.967,75.483,295.483,0,202.705,0
	C109.926,0,34.44,75.483,34.44,168.263v41.667c-12.829,15.508-20.534,35.416-20.534,57.11c0,41.197,27.795,75.814,65.632,86.341
	v3.367c0,13.283,10.768,24.061,24.06,24.061c13.291,0,24.06-10.777,24.06-24.061v-179.4c0-13.283-10.769-24.061-24.06-24.061
	c-13.292,0-24.06,10.777-24.06,24.061v3.368c-4.497,1.237-8.835,2.819-13.018,4.73v-17.184c0-75.093,61.09-136.183,136.185-136.183
	c75.093,0,136.183,61.09,136.183,136.183v17.184c-4.182-1.911-8.537-3.493-13.032-4.746v-3.352c0-13.283-10.77-24.061-24.06-24.061
	s-24.06,10.777-24.06,24.061v179.4c0,13.283,10.77,24.061,24.06,24.061s24.06-10.777,24.06-24.061v-3.367
	c32.018-8.898,56.829-35.025,63.714-67.826c13.557,5.2,23.245,18.265,23.245,33.615v55.42c0,19.892-16.189,36.09-36.09,36.09
	h-72.618c-5.561-9.555-15.79-16.04-27.632-16.04h-34.75c-17.716,0-32.08,14.364-32.08,32.08c0,17.716,14.364,32.08,32.08,32.08
	h34.75c11.842,0,22.071-6.485,27.632-16.04h72.618c37.587,0,68.17-30.575,68.17-68.17v-55.42
	C444.894,286.198,421.351,258.645,390.203,252.363z"/>
<g>
</g>
<g>
</g>
<g>
</g>
<g>
</g>
<g>
</g>
<g>
</g>
<g>
</g>
<g>
</g>
<g>
</g>
<g>
</g>
<g>
</g>
<g>
</g>
<g>
</g>
<g>
</g>
<g>
</g>
</svg>
