<svg width="56" height="56" viewBox="0 0 56 56" fill="none" xmlns="http://www.w3.org/2000/svg">
<path d="M37.8999 34.7536L37.6732 34.5536C37.0302 33.9807 36.4673 33.3236 35.9999 32.6003C35.4894 31.602 35.1834 30.5117 35.0999 29.3936V26.1003C35.1043 24.344 34.4672 22.6466 33.3084 21.3269C32.1495 20.0072 30.5486 19.1562 28.8065 18.9336V18.0736C28.8065 17.8376 28.7128 17.6112 28.5459 17.4443C28.379 17.2774 28.1526 17.1836 27.9165 17.1836C27.6805 17.1836 27.4541 17.2774 27.2872 17.4443C27.1203 17.6112 27.0265 17.8376 27.0265 18.0736V18.9469C25.3 19.1855 23.7185 20.0418 22.5749 21.357C21.4313 22.6722 20.803 24.3574 20.8065 26.1003V29.3936C20.723 30.5117 20.4171 31.602 19.9065 32.6003C19.4471 33.3218 18.8933 33.9788 18.2599 34.5536L18.0332 34.7536V36.6336H37.8999V34.7536Z" fill="#084482"/>
<path d="M26.2129 37.334C26.2714 37.7566 26.4808 38.1437 26.8024 38.424C27.1241 38.7042 27.5363 38.8586 27.9629 38.8586C28.3895 38.8586 28.8017 38.7042 29.1234 38.424C29.445 38.1437 29.6544 37.7566 29.7129 37.334H26.2129Z" fill="#084482"/>
</svg>
