<svg width="16" height="16" viewBox="0 0 16 16" fill="none" xmlns="http://www.w3.org/2000/svg">
<path d="M9.90625 4.59834H13.0234V5.35459H9.90625V4.59834ZM6.78281 7.59053C7.47188 7.26084 7.83281 6.75928 7.83281 5.98428C7.83281 4.45146 6.69219 4.07959 5.375 4.07959H1.75V11.7733H5.47656C6.87344 11.7733 8.18437 11.1015 8.18437 9.53896C8.18437 8.57334 7.72813 7.85928 6.78281 7.59053ZM3.44062 5.39209H5.02656C5.6375 5.39209 6.18594 5.5624 6.18594 6.27178C6.18594 6.9249 5.75938 7.1874 5.15469 7.1874H3.44062V5.39209ZM5.24531 10.4671H3.43906V8.34834H5.28125C6.025 8.34834 6.49531 8.65928 6.49531 9.44678C6.49531 10.2218 5.93438 10.4671 5.24531 10.4671ZM14.2422 9.06865C14.2422 7.42022 13.2781 6.04678 11.5344 6.04678C9.83906 6.04678 8.68594 7.32334 8.68594 8.99678C8.68594 10.7312 9.77812 11.9218 11.5344 11.9218C12.8641 11.9218 13.725 11.3233 14.1391 10.0468H12.7906C12.6437 10.5233 12.0469 10.7733 11.5828 10.7733C10.6859 10.7733 10.2172 10.2483 10.2172 9.35615H14.2312C14.2359 9.26396 14.2422 9.16709 14.2422 9.06865ZM10.2172 8.39053C10.2656 7.65771 10.7547 7.1999 11.4859 7.1999C12.2547 7.1999 12.6391 7.65146 12.7063 8.39053H10.2172Z" fill="#00AEFF"/>
</svg>
