<svg width="16" height="16" viewBox="0 0 16 16" fill="none" xmlns="http://www.w3.org/2000/svg">
<g clip-path="url(#clip0)">
<path d="M2.56 0H13.44C14.119 0 14.7701 0.269714 15.2502 0.749807C15.7303 1.2299 16 1.88105 16 2.56V13.44C16 14.119 15.7303 14.7701 15.2502 15.2502C14.7701 15.7303 14.119 16 13.44 16H2.56C1.88105 16 1.2299 15.7303 0.749807 15.2502C0.269714 14.7701 0 14.119 0 13.44L0 2.56C0 1.88105 0.269714 1.2299 0.749807 0.749807C1.2299 0.269714 1.88105 0 2.56 0V0ZM12.0105 14.4245H12.008C14.1535 14.3725 14.2815 11.224 12.146 10.997L8.87 5.2105C8.3905 4.3485 7.4635 4.385 7.13 5.609C6.844 6.765 6.9165 7.8565 6.8335 9.1745C6.8335 9.182 6.8255 9.19 6.818 9.1925C6.81 9.195 6.7995 9.19 6.7965 9.1845L3.87 3.3485C4.1065 3.161 4.2475 2.8745 4.2475 2.5725C4.2475 1.706 3.201 1.2705 2.589 1.885C1.977 2.497 2.409 3.5435 3.2765 3.5435C3.323 3.5435 3.36 3.536 3.3965 3.536C4.628 6.7025 5.998 10.398 6.49 11.2495C6.8235 12.065 7.9615 11.804 7.99 10.924L8.11 6.304C8.11 6.2755 8.1465 6.2755 8.1565 6.2935L10.5085 11.8875C9.883 13.028 10.7085 14.4215 12.011 14.424L12.0105 14.4245Z" fill="#00AEFF"/>
</g>
<defs>
<clipPath id="clip0">
<rect width="16" height="16" fill="white"/>
</clipPath>
</defs>
</svg>
