<svg width="16" height="16" viewBox="0 0 16 16" fill="none" xmlns="http://www.w3.org/2000/svg">
<path d="M7.99991 0.380859C3.79191 0.380859 0.380859 3.79191 0.380859 7.99991C0.380859 12.2079 3.79191 15.619 7.99991 15.619C12.2079 15.619 15.619 12.2079 15.619 7.99991C15.619 3.79191 12.2079 0.380859 7.99991 0.380859ZM7.99991 1.48486C9.65972 1.48486 11.1748 2.10581 12.3252 3.12753C11.4799 4.24257 10.1957 4.98505 8.90886 5.48753C8.18038 4.1608 7.36395 2.8843 6.46505 1.66657C6.96779 1.54539 7.48315 1.48439 8.00029 1.48486H7.99991ZM5.2281 2.102C6.07762 3.37286 6.90048 4.55115 7.6521 5.88486C5.75114 6.37743 3.60295 6.67305 1.61857 6.678C2.03686 4.64829 3.40029 2.96295 5.2281 2.10238V2.102ZM13.0479 3.88105C13.9893 5.03151 14.5072 6.47032 14.515 7.95686C13.0079 7.65972 11.5092 7.582 9.98314 7.73591C9.81172 7.3081 9.60372 6.90162 9.40448 6.46353C10.7199 5.93286 12.1264 5.02467 13.0479 3.88067V3.88105ZM8.18124 6.89286C8.34429 7.23953 8.53324 7.60753 8.71076 7.98353C6.58886 8.91914 4.33172 10.1694 3.16029 12.3614C2.03572 11.117 1.4364 9.48557 1.48791 7.80905C3.76029 7.79838 5.99076 7.51419 8.18124 6.89286ZM11.6243 8.66924C12.5724 8.66944 13.5166 8.79107 14.4338 9.03115C14.2924 9.91352 13.9709 10.7574 13.4894 11.5102C13.0079 12.263 12.3767 12.9087 11.635 13.4071C11.2852 11.8167 10.9519 10.2948 10.3626 8.76029C10.7803 8.69942 11.2018 8.66887 11.6239 8.66886L11.6243 8.66924ZM14.4677 8.78733C14.4631 8.82467 14.459 8.86124 14.4536 8.89781C14.459 8.86086 14.4635 8.82429 14.4677 8.78733ZM9.15724 9.05781C9.75762 10.6094 10.2289 12.3275 10.545 13.9995C9.74017 14.341 8.87462 14.5165 8.00029 14.5153C6.55185 14.5174 5.14439 14.0346 4.00219 13.1439C5.182 11.23 7.00943 9.78162 9.15686 9.05819L9.15724 9.05781Z" fill="#00AEFF"/>
</svg>
