<svg width="48" height="49" viewBox="0 0 48 49" fill="none" xmlns="http://www.w3.org/2000/svg">
<path d="M33.9385 29.9125L33.9235 29.9035L33.8245 29.983L33.9655 30.004C33.9655 30.004 40.0437 45.3105 38.7702 47.5291C36.2666 49.4266 25.5067 39.1363 24.1087 37.7772L24.1177 37.8297C24.1177 37.8297 12.0288 49.9021 9.22971 47.7436C7.55266 46.5255 13.6504 29.698 13.6504 29.698L13.6789 29.6935C11.4393 28.4139 -0.861119 19.7242 0.0479112 16.5965C0.0749121 14.714 17.1695 14.8445 17.714 14.918C17.78 14.5355 20.7096 0 24.0007 0C27.3083 0 30.1509 14.8775 30.1854 15.0845H30.1944L30.1974 15.0995L30.2349 15.02C30.2349 15.02 47.925 14.7485 47.952 16.5965C48.954 20.0362 33.9385 29.9125 33.9385 29.9125H33.9385Z" fill="#084482"/>
</svg>
