<svg width="104" height="29" viewBox="0 0 104 29" fill="none" xmlns="http://www.w3.org/2000/svg">
<path fill-rule="evenodd" clip-rule="evenodd" d="M28.9487 24.2637L31.5004 0.234863H35.7627L34.6832 10.2349C35.3281 9.33602 36.0314 8.63243 36.7932 8.12413C37.555 7.61583 38.3612 7.36169 39.2117 7.36169C39.8101 7.36169 40.3568 7.48207 40.8523 7.72286C41.3476 7.96363 41.7752 8.34084 42.1352 8.85447C42.4949 9.36813 42.7754 10.0236 42.9763 10.8208C43.1774 11.618 43.2778 12.5677 43.2778 13.6699C43.2778 15.1252 43.0839 16.5083 42.6958 17.8192C42.308 19.1301 41.7869 20.283 41.1326 21.2783C40.4784 22.2734 39.7236 23.0627 38.8684 23.6459C38.0131 24.2291 37.1181 24.5208 36.1833 24.5208C35.4636 24.5208 34.8304 24.3627 34.2837 24.0471C33.7367 23.7314 33.2718 23.3168 32.8885 22.8032L32.8464 22.9637C32.6203 23.7402 31.9869 24.2637 31.2733 24.2637H28.9487ZM37.4732 11.1338C37.1649 11.1338 36.8447 11.2675 36.5128 11.5351C36.1811 11.8026 35.8609 12.1691 35.5524 12.6346C35.2441 13.1001 34.9566 13.6458 34.6902 14.2718C34.4237 14.8978 34.2019 15.564 34.0241 16.2702L33.6035 20.1546C33.8747 20.4114 34.1785 20.5934 34.5149 20.7004C34.8515 20.8074 35.1739 20.8609 35.4823 20.8609C35.9872 20.8609 36.4521 20.6682 36.8775 20.283C37.3026 19.8978 37.6696 19.3922 37.9781 18.7662C38.2864 18.1402 38.5271 17.4259 38.7001 16.6234C38.8729 15.8208 38.9594 15.0022 38.9594 14.1675C38.9594 13.1081 38.8239 12.3376 38.5529 11.8561C38.2817 11.3745 37.9219 11.1338 37.4732 11.1338ZM56.345 24.2637H54.7126C53.5435 24.2637 52.5958 23.1763 52.5958 21.8348C52.5958 21.7237 52.6024 21.6129 52.6155 21.503C52.0174 22.4447 51.3536 23.1831 50.6246 23.7182C49.8955 24.2532 49.0917 24.5208 48.2131 24.5208C47.6895 24.5208 47.1848 24.4003 46.6988 24.1595C46.2127 23.9187 45.7829 23.5549 45.4089 23.068C45.035 22.5811 44.7359 21.9605 44.5117 21.206C44.2872 20.4516 44.1751 19.5608 44.1751 18.5335C44.1751 17.0246 44.4157 15.5934 44.8971 14.2397C45.3786 12.886 46.0516 11.7009 46.9161 10.6843C47.7807 9.66774 48.8065 8.85983 49.9937 8.26058C51.1808 7.66131 52.4846 7.36169 53.9054 7.36169C54.597 7.36169 55.2981 7.4152 56.0084 7.52221C56.7189 7.62922 57.4198 7.82184 58.1117 8.10006L56.345 24.2637ZM49.9516 20.5882C50.2694 20.5882 50.5779 20.4516 50.877 20.1788C51.1761 19.9058 51.4588 19.534 51.7252 19.0632C51.9915 18.5923 52.2369 18.0412 52.4612 17.4099C52.6857 16.7785 52.8773 16.1044 53.0362 15.3874L53.5409 10.7806H53.2885C52.578 10.7806 51.9309 10.9626 51.3466 11.3264C50.7624 11.6902 50.2601 12.1851 49.8395 12.8111C49.4188 13.4372 49.0939 14.1648 48.865 14.9942C48.636 15.8235 48.5216 16.709 48.5216 17.6507C48.5216 18.1857 48.5589 18.6405 48.6337 19.015C48.7083 19.3896 48.809 19.6919 48.9351 19.922C49.0613 20.1521 49.2108 20.3206 49.3838 20.4276C49.5566 20.5346 49.746 20.5882 49.9516 20.5882ZM59.093 24.2637L60.8596 7.61852H61.8091C63.3202 7.61852 64.5452 9.02422 64.5452 10.7582C64.5452 10.8568 64.541 10.9554 64.5329 11.0535C65.0938 9.91921 65.7014 9.0471 66.3557 8.43713C67.0101 7.82718 67.6876 7.52221 68.3887 7.52221C68.7812 7.52221 69.1691 7.62386 69.5524 7.82718L68.7673 12.4339C68.2905 12.1985 67.8372 12.0808 67.4072 12.0808C66.6874 12.0808 66.0497 12.4527 65.4935 13.1964C64.9374 13.9401 64.4864 15.1359 64.1404 16.7839L63.3552 24.2637H59.093ZM71.0106 20.6682V20.3955C71.0106 20.2885 71.0175 20.1359 71.0315 19.938C71.0456 19.74 71.069 19.4778 71.1016 19.1515C71.1344 18.8251 71.1789 18.3944 71.2348 17.8593L71.9779 11.0535H70.8142C70.6367 11.0535 70.4872 10.9866 70.3656 10.8529C70.2441 10.7191 70.1834 10.5185 70.1834 10.251C70.1834 10.2402 70.1926 10.1466 70.2113 9.97005C70.2301 9.79348 70.2488 9.60621 70.2675 9.40825C70.2861 9.21028 70.3048 9.02568 70.3236 8.85447C70.3423 8.68326 70.3515 8.58695 70.3515 8.56555L70.4548 7.65061L72.595 7.61852L72.9774 4.68927C73.1202 3.59595 73.9385 2.78704 74.9021 2.78704H77.1235L76.5907 7.65061H79.8436L79.8151 7.91638C79.6231 9.70767 78.2973 11.0535 76.7245 11.0535H76.2262L75.5252 17.5865C75.4784 18.0252 75.4434 18.3703 75.42 18.6218C75.3966 18.8732 75.378 19.0659 75.364 19.1996C75.3544 19.2905 75.345 19.3815 75.336 19.4725C75.3312 19.5207 75.329 19.5501 75.329 19.5608C75.329 19.8711 75.3919 20.1307 75.5182 20.3393C75.6443 20.548 75.8429 20.6523 76.1141 20.6523C76.2636 20.6523 76.3874 20.6336 76.4856 20.5961C76.551 20.5712 76.7824 20.4668 77.1797 20.283L78.6097 23.076C78.0302 23.5576 77.4087 23.9187 76.7449 24.1595C76.0813 24.4003 75.413 24.5208 74.74 24.5208C74.1792 24.5208 73.6745 24.4323 73.2257 24.2558C72.7772 24.0792 72.3916 23.8224 72.0692 23.4853C71.7467 23.1483 71.4943 22.7443 71.3119 22.2734C71.1297 21.8026 71.0292 21.2676 71.0106 20.6682ZM92.6863 11.7116C92.6863 12.4714 92.5555 13.167 92.2938 13.7983C92.0322 14.4297 91.5765 14.9888 90.9269 15.4757C90.2772 15.9626 89.4033 16.3772 88.305 16.7197C87.2066 17.0621 85.8258 17.3296 84.1618 17.5222C84.1805 18.6565 84.398 19.4859 84.8139 20.0102C85.2298 20.5346 85.8444 20.7966 86.6576 20.7966C87.0408 20.7966 87.3727 20.7592 87.6531 20.6844C87.9335 20.6094 88.1787 20.5131 88.389 20.3955C89.6495 19.6901 91.1564 19.9296 92.2022 21.0018L92.378 21.1821C91.8639 21.7598 91.3614 22.2601 90.8707 22.6828C90.3799 23.1054 89.8752 23.4532 89.3566 23.7262C88.8378 23.999 88.2863 24.1996 87.7021 24.328C87.1179 24.4565 86.4799 24.5208 85.7882 24.5208C84.9283 24.5208 84.1385 24.3522 83.4187 24.0151C82.699 23.678 82.0799 23.2018 81.561 22.5865C81.0422 21.9712 80.6404 21.2302 80.3553 20.3633C80.0701 19.4966 79.9276 18.5335 79.9276 17.4741C79.9276 16.5859 80.0142 15.7191 80.187 14.8738C80.36 14.0284 80.6076 13.2338 80.9301 12.4901C81.2525 11.7464 81.6475 11.0616 82.1149 10.4355C82.5821 9.80953 83.1079 9.27181 83.6922 8.82238C84.2764 8.37293 84.9166 8.02248 85.613 7.77101C86.3093 7.51954 87.0502 7.3938 87.8353 7.3938C88.611 7.3938 89.3004 7.52221 89.9033 7.77904C90.5062 8.03586 91.0134 8.37026 91.4246 8.78224C91.8358 9.19423 92.149 9.65705 92.3639 10.1707C92.5789 10.6843 92.6863 11.198 92.6863 11.7116ZM87.583 10.7485C86.8632 10.7485 86.2323 11.0776 85.6901 11.7357C85.148 12.3938 84.7413 13.2954 84.4703 14.4404C85.377 14.2799 86.1107 14.1113 86.6716 13.9348C87.2324 13.7582 87.667 13.5656 87.9755 13.3569C88.2839 13.1482 88.4919 12.9235 88.5993 12.6827C88.707 12.442 88.7607 12.1825 88.7607 11.9043C88.7607 11.626 88.6672 11.3638 88.4802 11.1177C88.2933 10.8716 87.9942 10.7485 87.583 10.7485ZM93.4155 24.2637L95.1821 7.61852H95.8619C97.5153 7.61852 98.8554 9.15643 98.8554 11.0535C99.4163 9.91921 100.024 9.0471 100.678 8.43713C101.332 7.82718 102.01 7.52221 102.711 7.52221C103.104 7.52221 103.492 7.62386 103.875 7.82718L103.09 12.4339C102.613 12.1985 102.16 12.0808 101.73 12.0808C101.01 12.0808 100.372 12.4527 99.8158 13.1964C99.2597 13.9401 98.8087 15.1359 98.4629 16.7839L97.6778 24.2637H93.4155Z" fill="#C4C4C4"/>
<path d="M17.9152 12.1121C21.3149 9.15631 28.3086 -1.40783 17.3809 0.453207C12.6213 1.21951 6.72103 5.698 5.31258 11.2811C4.57776 9.78819 3.76694 8.34438 2.88418 6.95694C1.57286 5.04116 -1.0262 6.91212 0.430822 8.88263C4.55909 14.5205 7.42456 21.3078 7.42456 28.1499C7.76454 24.7562 8.32377 20.2032 7.06101 16.1527C7.52309 16.5112 7.55656 16.538 7.8782 16.9752C10.1123 20.8068 13.5441 23.9899 17.3809 25.5226C20.8779 27.0005 25.5402 26.1246 23.6462 20.2131C22.6262 16.9837 20.2463 14.1374 17.9152 12.1121Z" fill="#C4C4C4"/>
</svg>
