<svg width="18" height="20" viewBox="0 0 18 20" fill="none" xmlns="http://www.w3.org/2000/svg">
<path d="M16.9486 14.2992C16.0795 13.43 15 12.3484 15 8.125C15 5.02367 12.741 2.45043 9.77879 1.95977C9.92315 1.75126 10.0003 1.50361 10 1.25C10 0.559648 9.44035 0 8.75 0C8.05964 0 7.5 0.559648 7.5 1.25C7.5 1.51367 7.58183 1.75813 7.72121 1.95977C4.75902 2.45043 2.5 5.02367 2.5 8.125C2.5 12.3484 1.42019 13.43 0.55105 14.2992C-0.626645 15.4769 0.208003 17.5 1.87687 17.5H6.25C6.25 18.8807 7.36929 20 8.75 20C10.1307 20 11.25 18.8807 11.25 17.5H15.6228C17.2883 17.5 18.1287 15.4793 16.9486 14.2992Z" fill="black"/>
</svg>
