<svg width="145" height="36" viewBox="0 0 145 36" fill="none" xmlns="http://www.w3.org/2000/svg">
<path d="M29.7967 16.6594C30.6445 16.6434 31.4909 16.7394 32.3154 16.9451C32.925 17.0962 33.5002 17.3698 34.0089 17.7507C34.4303 18.0762 34.7604 18.5131 34.9649 19.0161C35.1697 19.5441 35.271 20.1094 35.2629 20.6787C35.264 21.0054 35.2178 21.3304 35.1257 21.6428C35.0322 21.9552 34.8872 22.2482 34.697 22.5087C34.484 22.795 34.2294 23.0449 33.9424 23.2496C33.5996 23.4923 33.2277 23.6874 32.8363 23.8298C33.7752 24.0679 34.4705 24.4517 34.922 24.9814C35.3878 25.5562 35.6295 26.292 35.5994 27.0434C35.6041 27.6507 35.4835 28.2519 35.2457 28.8064C35.0071 29.355 34.6542 29.8414 34.2125 30.2302C33.7173 30.6606 33.1455 30.9852 32.5298 31.1854C31.791 31.4242 31.0204 31.5394 30.2469 31.5269H24.545V16.6594H29.7967ZM27.8568 19.2393V22.9126H29.5717C29.9035 22.9159 30.2349 22.8883 30.562 22.83C30.8277 22.787 31.0826 22.69 31.3123 22.5444C31.5173 22.4087 31.6803 22.2141 31.7817 21.9842C31.8967 21.7023 31.9515 21.3977 31.9425 21.0915C31.9524 20.7885 31.9096 20.486 31.816 20.1989C31.7383 19.9763 31.6024 19.7808 31.4237 19.6343C31.2254 19.4804 30.9959 19.3758 30.7528 19.3285C30.4354 19.2612 30.112 19.2298 29.7882 19.2348L27.8568 19.2393ZM30.189 28.918C30.5535 28.9312 30.917 28.8729 31.2608 28.7462C31.5053 28.6509 31.7253 28.4981 31.9039 28.2999C32.0578 28.1221 32.1688 27.9086 32.2276 27.6772C32.2855 27.4477 32.315 27.2115 32.3154 26.9742C32.3189 26.7254 32.2841 26.4775 32.2126 26.24C32.1464 26.0261 32.0247 25.8353 31.861 25.6888C31.6667 25.5248 31.4408 25.406 31.1986 25.3407C30.8596 25.2523 30.5106 25.2118 30.1612 25.2201H27.8568V28.9203L30.189 28.918ZM46.7203 20.9443V31.5202H44.8339C44.6701 31.5347 44.5065 31.4898 44.3709 31.3929C44.2353 31.2961 44.1361 31.1534 44.0901 30.989L43.9122 30.3775C43.7218 30.5701 43.5191 30.7491 43.3056 30.9131C43.0967 31.074 42.8717 31.2109 42.6346 31.3215C42.386 31.4373 42.1268 31.5263 41.8608 31.5871C41.5627 31.6525 41.2587 31.6847 40.9541 31.6831C40.4475 31.6931 39.9447 31.5904 39.4793 31.3818C39.0626 31.1891 38.6927 30.9016 38.3968 30.5404C38.0959 30.166 37.87 29.7328 37.7323 29.2662C37.5777 28.7444 37.5018 28.2009 37.5072 27.6549V20.9443H40.5425V27.6549C40.5167 28.0889 40.6381 28.5185 40.8855 28.8689C41.0113 29.0156 41.1677 29.1305 41.3427 29.2048C41.5176 29.279 41.7066 29.3107 41.8951 29.2974C42.219 29.2989 42.5388 29.2226 42.8297 29.0742C43.1408 28.9183 43.4295 28.7177 43.6871 28.4784V20.9443H46.7203ZM59.0094 20.9443L53.5797 34.2629C53.5101 34.4454 53.3955 34.6055 53.2475 34.7271C53.0571 34.8408 52.8382 34.8921 52.6194 34.8744H50.3472L52.3064 30.5918L48.2508 20.9443H50.9346C51.1287 20.9309 51.3213 20.9885 51.479 21.1072C51.6021 21.209 51.698 21.3419 51.7577 21.4933L53.4254 26.0526C53.5825 26.4677 53.71 26.8944 53.8069 27.3291L54.0213 26.6752C54.0913 26.458 54.1663 26.2437 54.2464 26.0325L55.7469 21.4933C55.8097 21.3318 55.9191 21.1946 56.0598 21.1005C56.2037 20.9979 56.3742 20.9434 56.5486 20.9443H59.0094Z" fill="#C4C4C4"/>
<path d="M65.5839 16.6596C66.4605 16.6406 67.3345 16.7664 68.1733 17.0323C68.8294 17.2417 69.4367 17.5905 69.9568 18.0566C70.4143 18.4767 70.7685 19.0047 70.99 19.5964C71.2165 20.2086 71.3299 20.8597 71.3244 21.5157C71.3312 22.2117 71.2149 22.9032 70.9814 23.5554C70.7575 24.1645 70.3983 24.7098 69.9332 25.1466C69.4128 25.6167 68.8039 25.9686 68.1454 26.1799C67.3161 26.4453 66.4513 26.5711 65.5839 26.5525H63.869V31.5202H60.5464V16.6596H65.5839ZM65.5839 23.9527C66.4413 23.9527 67.0615 23.7384 67.4445 23.3099C67.8218 22.8815 68.0125 22.2834 68.0125 21.5246C68.0165 21.2085 67.9664 20.8941 67.8646 20.5962C67.7714 20.3234 67.6188 20.0767 67.4188 19.8754C67.2036 19.6658 66.9467 19.5081 66.6664 19.4135C66.3167 19.2967 65.951 19.2409 65.5839 19.2483H63.869V23.9616L65.5839 23.9527ZM77.6908 20.7815C78.4094 20.7716 79.1237 20.8994 79.7979 21.1586C80.4088 21.3948 80.9647 21.7629 81.4292 22.2387C81.8927 22.7242 82.2528 23.3059 82.486 23.946C82.746 24.6685 82.8739 25.4352 82.8632 26.2066C82.874 26.9839 82.7461 27.7565 82.486 28.4852C82.26 29.129 81.9027 29.7141 81.4387 30.2003C80.9746 30.6865 80.4149 31.0622 79.7979 31.3015C78.4313 31.8104 76.9375 31.8104 75.5708 31.3015C74.9559 31.0593 74.3955 30.6879 73.9245 30.2102C73.4526 29.7219 73.0871 29.1335 72.8527 28.4852C72.5916 27.7568 72.4636 26.984 72.4755 26.2066C72.4637 25.4351 72.5917 24.6682 72.8527 23.946C73.0878 23.3032 73.4534 22.7208 73.9245 22.2387C74.3949 21.7631 74.9557 21.3952 75.5708 21.1586C76.2494 20.8991 76.9679 20.7712 77.6908 20.7815ZM77.6908 29.3377C78.3896 29.3377 78.9041 29.081 79.2342 28.5677C79.5643 28.0545 79.7301 27.2741 79.7315 26.2267C79.7315 25.1853 79.5664 24.4064 79.2363 23.8902C78.9062 23.3739 78.3917 23.1195 77.6929 23.1269C76.9784 23.1269 76.4525 23.3814 76.1153 23.8902C75.778 24.399 75.6115 25.1778 75.6158 26.2267C75.6158 27.2682 75.7823 28.0485 76.1153 28.5677C76.4482 29.087 76.9734 29.3436 77.6908 29.3377ZM99.6346 20.9444L96.4793 31.5202H94.012C93.8898 31.5237 93.7707 31.48 93.6776 31.3975C93.5701 31.2855 93.4957 31.1438 93.4632 30.9891L92.0142 25.7157C91.9413 25.4791 91.877 25.2448 91.8213 25.0127C91.7655 24.7895 91.7162 24.5463 91.6712 24.3097C91.6241 24.5463 91.5748 24.7851 91.519 25.0239C91.4633 25.2626 91.399 25.4992 91.3282 25.738L89.8577 30.9891C89.8304 31.1436 89.7502 31.2826 89.632 31.3803C89.5137 31.478 89.3654 31.5277 89.2147 31.5202H86.8567L83.7014 20.9444H86.1301C86.3226 20.9372 86.5127 20.9917 86.6745 21.1006C86.8124 21.1941 86.9171 21.332 86.9725 21.4934L87.9928 26.2379C88.0757 26.5979 88.1507 26.9461 88.2179 27.2823C88.2822 27.6193 88.3422 27.9518 88.3937 28.2977C88.4794 27.9563 88.5695 27.6282 88.6638 27.2823C88.7581 26.9364 88.861 26.5972 88.9724 26.2379L90.2457 21.4844C90.3004 21.324 90.4034 21.1862 90.5394 21.0917C90.689 20.9838 90.8677 20.9283 91.0496 20.9332H92.4C92.5928 20.9267 92.7829 20.982 92.9445 21.0917C93.0822 21.1854 93.1868 21.3233 93.2425 21.4844L94.4579 26.2379C94.5565 26.5979 94.6529 26.9476 94.7472 27.2868C94.8416 27.6282 94.9273 27.9697 95.0066 28.3178C95.0581 27.9786 95.1202 27.6483 95.1931 27.2979C95.266 26.9476 95.3453 26.6039 95.4375 26.2379L96.5093 21.4934C96.5645 21.3332 96.6674 21.1956 96.8029 21.1006C96.9522 20.994 97.13 20.9393 97.311 20.9444H99.6346ZM103.602 26.798C103.701 27.6818 103.959 28.3223 104.376 28.7195C104.82 29.129 105.4 29.3434 105.992 29.3176C106.301 29.3244 106.609 29.2791 106.903 29.1837C107.138 29.1045 107.366 29.006 107.585 28.8891L108.134 28.5923C108.296 28.5058 108.475 28.4607 108.657 28.4606C108.763 28.4537 108.869 28.4748 108.965 28.522C109.061 28.5693 109.144 28.641 109.206 28.7307L110.087 29.8643C109.793 30.2186 109.452 30.5262 109.073 30.7771C108.723 31.0057 108.348 31.19 107.956 31.3261C107.584 31.4573 107.201 31.55 106.811 31.6028C106.449 31.6523 106.084 31.6777 105.718 31.6787C105.035 31.6839 104.356 31.5614 103.714 31.3172C103.102 31.0832 102.544 30.7165 102.078 30.2415C101.593 29.7342 101.216 29.1258 100.972 28.4562C100.686 27.6681 100.548 26.8302 100.565 25.9879C100.561 25.3019 100.679 24.6211 100.912 23.9794C101.136 23.3561 101.479 22.7867 101.922 22.3063C102.364 21.8259 102.896 21.4445 103.484 21.1854C104.744 20.6624 106.143 20.63 107.424 21.0939C107.964 21.2987 108.454 21.6222 108.863 22.0424C109.277 22.4751 109.598 22.9947 109.804 23.5666C110.038 24.2201 110.153 24.9134 110.142 25.6108C110.145 25.8054 110.134 26 110.112 26.1933C110.1 26.3186 110.064 26.44 110.005 26.5503C109.956 26.6352 109.88 26.6998 109.791 26.7333C109.682 26.7705 109.569 26.7879 109.454 26.7846L103.602 26.798ZM107.422 24.9614C107.423 24.7135 107.392 24.4666 107.33 24.2272C107.271 23.9958 107.168 23.7793 107.026 23.5911C106.877 23.3999 106.688 23.2471 106.473 23.1448C106.211 23.0216 105.926 22.9621 105.639 22.9707C105.392 22.9566 105.145 22.9951 104.913 23.0837C104.68 23.1723 104.468 23.3093 104.288 23.4862C103.931 23.8995 103.706 24.4181 103.645 24.9703L107.422 24.9614ZM115.026 22.5757C115.298 22.0594 115.666 21.6043 116.108 21.2367C116.51 20.9119 117.006 20.7388 117.514 20.7458C117.912 20.7269 118.305 20.8454 118.631 21.0827L118.436 23.4081C118.42 23.5276 118.362 23.6366 118.273 23.7139C118.182 23.7738 118.074 23.8027 117.966 23.7964C117.913 23.7964 117.844 23.7964 117.752 23.7853L117.486 23.7607L117.208 23.7295C117.122 23.7192 117.035 23.714 116.948 23.7139C116.559 23.6909 116.176 23.8225 115.877 24.0821C115.584 24.3668 115.355 24.715 115.206 25.102V31.5202H112.185V20.9444H113.988C114.115 20.9417 114.242 20.9552 114.365 20.9845C114.458 21.0072 114.545 21.0506 114.62 21.1117C114.69 21.171 114.744 21.2478 114.777 21.3349C114.818 21.4471 114.848 21.5629 114.869 21.6808L115.026 22.5757ZM118.348 29.9179C118.346 29.6833 118.391 29.4509 118.479 29.235C118.565 29.0283 118.688 28.841 118.843 28.6838C119.172 28.3526 119.614 28.1698 120.071 28.175C120.303 28.1721 120.533 28.2192 120.747 28.3133C120.95 28.4002 121.136 28.5259 121.295 28.6838C121.456 28.8426 121.583 29.0342 121.669 29.2466C121.755 29.4589 121.798 29.6875 121.795 29.9179C121.797 30.1546 121.752 30.3893 121.664 30.6075C121.579 30.8169 121.453 31.0059 121.295 31.1632C121.137 31.3212 120.951 31.4455 120.747 31.5292C120.532 31.6197 120.303 31.6652 120.071 31.6631C119.837 31.6657 119.604 31.6202 119.386 31.5292C119.183 31.4458 118.999 31.3214 118.843 31.1632C118.688 31.005 118.564 30.8161 118.479 30.6075C118.391 30.3893 118.346 30.1546 118.348 29.9179ZM126.577 22.087C126.769 21.8978 126.972 21.7204 127.184 21.5559C127.392 21.3928 127.617 21.2543 127.855 21.143C128.103 21.0263 128.362 20.9373 128.629 20.8774C128.927 20.8108 129.231 20.7786 129.535 20.7815C130.041 20.7705 130.543 20.8725 131.008 21.0805C131.42 21.2734 131.786 21.5592 132.08 21.9174C132.383 22.2905 132.61 22.7241 132.746 23.1917C132.897 23.7126 132.969 24.2546 132.961 24.7985V31.5202H129.947V24.7985C129.971 24.3667 129.85 23.9396 129.604 23.5911C129.48 23.4406 129.325 23.322 129.149 23.2446C128.974 23.1672 128.784 23.133 128.594 23.1448C128.27 23.1433 127.951 23.2196 127.66 23.368C127.349 23.5239 127.06 23.7245 126.802 23.9638V31.5202H123.773V20.9444H125.656C125.819 20.9301 125.982 20.9749 126.118 21.0713C126.253 21.1676 126.353 21.3096 126.399 21.4733L126.577 22.087ZM144.455 21.2702V22.4217C144.459 22.4979 144.448 22.5742 144.424 22.6462C144.4 22.7182 144.362 22.7845 144.313 22.8413C144.175 22.9641 144.006 23.0451 143.827 23.0756L143.094 23.2497C143.132 23.4004 143.163 23.5531 143.186 23.7072C143.209 23.8696 143.221 24.0338 143.22 24.1981C143.228 24.6934 143.119 25.183 142.903 25.6242C142.691 26.045 142.393 26.4122 142.03 26.6998C141.638 27.0086 141.195 27.2407 140.723 27.385C140.198 27.5437 139.655 27.6212 139.109 27.6148C138.952 27.6148 138.798 27.6148 138.648 27.5992C138.5 27.5898 138.352 27.5712 138.206 27.5434C138.115 27.5863 138.037 27.6532 137.979 27.7374C137.921 27.8215 137.884 27.92 137.874 28.0232C137.873 28.1093 137.9 28.1931 137.95 28.262C137.999 28.3308 138.069 28.381 138.148 28.4048C138.381 28.4953 138.625 28.5501 138.873 28.5677C139.173 28.599 139.516 28.6191 139.897 28.6302C140.279 28.6414 140.669 28.6637 141.068 28.7016C141.461 28.7389 141.852 28.8015 142.238 28.8891C142.6 28.9701 142.946 29.115 143.261 29.3176C143.561 29.516 143.81 29.7871 143.987 30.1076C144.183 30.4956 144.278 30.9304 144.262 31.3685C144.259 31.8553 144.144 32.3343 143.927 32.7655C143.69 33.24 143.356 33.6544 142.948 33.9795C142.471 34.357 141.934 34.6447 141.362 34.8298C140.664 35.0548 139.936 35.1633 139.205 35.1512C138.511 35.1632 137.818 35.0844 137.143 34.9168C136.636 34.7909 136.15 34.583 135.705 34.3009C135.352 34.0816 135.058 33.7749 134.847 33.4082C134.669 33.0929 134.574 32.7341 134.573 32.3683C134.559 31.9405 134.699 31.5227 134.965 31.1966C135.267 30.8561 135.643 30.5972 136.063 30.4423C135.823 30.2942 135.621 30.0874 135.475 29.8398C135.321 29.5502 135.247 29.222 135.261 28.8913C135.262 28.7229 135.289 28.5558 135.34 28.3959C135.397 28.2136 135.48 28.0418 135.589 27.8871C135.712 27.7105 135.856 27.5508 136.018 27.4117C136.203 27.2527 136.406 27.1192 136.624 27.0145C136.12 26.7434 135.689 26.3453 135.37 25.8563C135.059 25.3585 134.899 24.7743 134.911 24.1803C134.904 23.6818 135.015 23.189 135.233 22.7453C135.449 22.3216 135.752 21.9527 136.12 21.6652C136.52 21.3563 136.969 21.1249 137.447 20.9823C137.985 20.8174 138.544 20.7362 139.104 20.7413C139.896 20.7258 140.68 20.9007 141.396 21.2523L144.455 21.2702ZM141.454 31.9063C141.458 31.7922 141.43 31.6793 141.372 31.5822C141.315 31.485 141.23 31.4083 141.13 31.3618C140.863 31.2352 140.579 31.1546 140.288 31.123C139.902 31.0709 139.514 31.0419 139.126 31.036C138.697 31.0248 138.268 31.0003 137.84 30.9579C137.663 31.0798 137.506 31.2305 137.374 31.4042C137.254 31.5663 137.19 31.7661 137.192 31.971C137.19 32.1123 137.222 32.2518 137.284 32.3772C137.362 32.5147 137.477 32.6251 137.615 32.6941C137.813 32.7974 138.026 32.8681 138.245 32.9039C138.577 32.9602 138.913 32.9856 139.25 32.9797C139.609 32.9859 139.968 32.9582 140.322 32.8972C140.555 32.8597 140.782 32.7844 140.993 32.674C141.138 32.5979 141.259 32.4792 141.34 32.3326C141.414 32.2029 141.457 32.0568 141.467 31.9063H141.454ZM139.096 25.6755C139.597 25.6755 139.953 25.5461 140.187 25.2827C140.419 25.0012 140.54 24.6383 140.526 24.2673C140.545 23.8977 140.423 23.5351 140.187 23.2586C139.962 23.0131 139.597 22.8926 139.096 22.8926C138.594 22.8926 138.238 23.0131 138.003 23.2586C137.766 23.5351 137.644 23.8977 137.664 24.2673C137.662 24.4583 137.69 24.6483 137.747 24.8297C137.802 24.9964 137.89 25.1487 138.007 25.276C138.133 25.4068 138.285 25.5074 138.453 25.5706C138.663 25.6474 138.886 25.683 139.109 25.6755H139.096Z" fill="#C4C4C4"/>
<path d="M17.2527 29.6231C18.6816 29.6231 19.84 28.4171 19.84 26.9295C19.84 25.4418 18.6816 24.2358 17.2527 24.2358C15.8237 24.2358 14.6653 25.4418 14.6653 26.9295C14.6653 28.4171 15.8237 29.6231 17.2527 29.6231Z" stroke="#C4C4C4" stroke-miterlimit="10"/>
<path d="M14.1037 29.6523C15.5327 29.6523 16.691 28.4464 16.691 26.9587C16.691 25.4711 15.5327 24.2651 14.1037 24.2651C12.6748 24.2651 11.5164 25.4711 11.5164 26.9587C11.5164 28.4464 12.6748 29.6523 14.1037 29.6523Z" stroke="#C4C4C4" stroke-miterlimit="10"/>
<path d="M21.6062 17.2041H1.42872C1.19194 17.2041 1 17.4039 1 17.6504V30.6254C1 30.8719 1.19194 31.0718 1.42872 31.0718H21.6062C21.843 31.0718 22.0349 30.8719 22.0349 30.6254V17.6504C22.0349 17.4039 21.843 17.2041 21.6062 17.2041Z" stroke="#C4C4C4" stroke-miterlimit="10"/>
<path d="M1.26367 22.3882H21.7991M1.26367 19.7749H21.7991H1.26367Z" stroke="#C4C4C4" stroke-miterlimit="10"/>
<path d="M12.5046 15.0749H7.88086L21.2139 0L16.4552 12.4036H21.2139L7.88086 27.3045L12.5046 15.0749Z" fill="#C4C4C4"/>
</svg>
