<svg width="16" height="16" viewBox="0 0 16 16" fill="none" xmlns="http://www.w3.org/2000/svg">
<path d="M11.8042 8.19539C11.7424 8.13342 11.6689 8.08426 11.588 8.05072C11.5072 8.01718 11.4205 7.99992 11.3329 7.99992C11.2453 7.99992 11.1587 8.01718 11.0778 8.05072C10.9969 8.08426 10.9234 8.13342 10.8616 8.19539L9.7989 9.25805C9.30624 9.11139 8.3869 8.77805 7.80424 8.19539C7.22157 7.61272 6.88824 6.69339 6.74157 6.20072L7.80424 5.13805C7.8662 5.07619 7.91536 5.00273 7.9489 4.92185C7.98244 4.84097 7.99971 4.75428 7.99971 4.66672C7.99971 4.57916 7.98244 4.49247 7.9489 4.41159C7.91536 4.33071 7.8662 4.25724 7.80424 4.19539L5.13757 1.52872C5.07571 1.46676 5.00224 1.4176 4.92137 1.38406C4.84049 1.35052 4.75379 1.33325 4.66624 1.33325C4.57868 1.33325 4.49199 1.35052 4.41111 1.38406C4.33023 1.4176 4.25676 1.46676 4.1949 1.52872L2.3869 3.33672C2.13357 3.59005 1.9909 3.93805 1.99624 4.29339C2.01157 5.24272 2.2629 8.54005 4.86157 11.1387C7.46024 13.7374 10.7576 13.9881 11.7076 14.0041H11.7262C12.0782 14.0041 12.4109 13.8654 12.6629 13.6134L14.4709 11.8054C14.5329 11.7435 14.582 11.6701 14.6156 11.5892C14.6491 11.5083 14.6664 11.4216 14.6664 11.3341C14.6664 11.2465 14.6491 11.1598 14.6156 11.0789C14.582 10.998 14.5329 10.9246 14.4709 10.8627L11.8042 8.19539ZM11.7196 12.6701C10.8876 12.6561 8.0409 12.4327 5.80424 10.1954C3.56024 7.95139 3.3429 5.09472 3.32957 4.27939L4.66624 2.94272L6.39024 4.66672L5.52824 5.52872C5.44988 5.60702 5.39227 5.70361 5.36061 5.80976C5.32895 5.91592 5.32424 6.02829 5.3469 6.13672C5.3629 6.21339 5.75424 8.03139 6.8609 9.13805C7.96757 10.2447 9.78557 10.6361 9.86224 10.6521C9.9706 10.6754 10.0831 10.671 10.1893 10.6395C10.2956 10.6079 10.3922 10.5501 10.4702 10.4714L11.3329 9.60939L13.0569 11.3334L11.7196 12.6701Z" fill="#4C5059"/>
</svg>
