<svg width="137" height="28" viewBox="0 0 137 28" fill="none" xmlns="http://www.w3.org/2000/svg">
<path d="M81.0604 11.9333V1.23577C81.0604 0.541128 81.601 0.000488281 82.2956 0.000488281C82.9903 0.000488281 83.5309 0.541128 83.5309 1.23577V20.3897C83.5309 25.4881 80.3646 27.9974 75.962 27.9974C70.981 27.9974 68.0452 25.0228 68.0452 18.6892C68.0452 12.3566 70.8259 9.42183 75.808 9.42183C78.2796 9.42291 80.1708 10.697 81.0604 11.9333ZM81.0604 15.0619C81.0604 15.0619 79.5935 11.663 75.9631 11.663C72.4478 11.663 70.5168 13.9408 70.5168 18.6902C70.5168 23.5172 72.4101 25.7584 75.9631 25.7584C78.9376 25.7584 81.0604 24.0589 81.0604 20.3908V15.0619Z" fill="#C2C2C2"/>
<path d="M95.3517 9.42334C101.529 9.42334 102.728 14.3279 102.728 16.9535C102.728 18.0746 102.728 19.4252 101.182 19.4252H89.9066C89.9066 23.2495 92.109 25.7211 95.7384 25.7211C97.9774 25.7211 99.2913 24.8714 100.373 24.0594C100.605 23.9054 100.758 23.8278 101.068 23.8278C101.686 23.8278 102.188 24.3308 102.188 24.949C102.188 25.3722 101.996 25.6048 101.763 25.8364C101.184 26.4147 99.176 27.9989 95.7384 27.9989C90.6023 27.9989 87.3972 25.1805 87.3972 18.6907C87.3961 12.7447 90.3309 9.42334 95.3517 9.42334ZM95.3517 11.6634C91.9916 11.6634 90.137 13.826 89.9055 17.2626H100.294C100.295 14.4819 99.33 11.6634 95.3517 11.6634Z" fill="#C2C2C2"/>
<path d="M108.6 14.135C108.6 18.1909 118.758 16.6842 118.758 22.8628C118.758 26.378 115.862 27.9611 112.191 27.9611C109.025 27.9611 106.592 26.4555 105.587 25.1804C105.393 24.909 105.317 24.7152 105.317 24.4459C105.317 23.8277 105.819 23.3248 106.437 23.3248C106.669 23.3248 106.978 23.4023 107.287 23.7114C108.483 24.9079 110.029 25.6047 112.191 25.6047C114.393 25.6047 116.286 24.8702 116.286 22.8617C116.286 18.8844 106.128 20.4676 106.128 14.1339C106.128 10.9278 108.754 9.46094 112.036 9.46094C114.662 9.46094 116.71 10.3494 117.907 11.9326C118.022 12.0866 118.176 12.3181 118.176 12.666C118.176 13.2842 117.674 13.7861 117.057 13.7861C116.863 13.7861 116.554 13.7473 116.245 13.4382C115.203 12.4334 114.045 11.8163 112.036 11.8163C110.299 11.8173 108.6 12.358 108.6 14.135Z" fill="#C2C2C2"/>
<path d="M134.592 27.2263L127.757 18.4587L125.4 20.352V26.5694C125.4 27.264 124.86 27.8036 124.165 27.8036C123.47 27.8036 122.93 27.2629 122.93 26.5694V1.23577C122.93 0.541128 123.472 0.000488281 124.165 0.000488281C124.861 0.000488281 125.4 0.541128 125.4 1.23577V17.4162L134.515 9.96355C134.823 9.69323 135.132 9.65446 135.363 9.65446C136.059 9.65446 136.6 10.1951 136.6 10.8897C136.6 11.1988 136.485 11.5855 136.097 11.8935L129.763 16.952L136.637 25.795C136.869 26.0664 136.909 26.3357 136.909 26.5694C136.909 27.264 136.368 27.8036 135.673 27.8036C135.248 27.8046 134.901 27.6108 134.592 27.2263Z" fill="#C2C2C2"/>
<path d="M8.37776 9.42334C11.9307 9.42334 13.9769 11.1993 14.6727 12.0878C14.9817 12.5132 15.0981 12.8223 15.0981 13.2854C15.0981 14.3279 14.2871 15.1388 13.2446 15.1388C12.6264 15.1388 12.1633 14.8696 11.8154 14.4829C11.3136 13.9423 10.3098 12.9773 8.37883 12.9773C5.67564 12.9773 4.20773 15.0634 4.20773 18.6918C4.20773 22.3998 5.67564 24.4471 8.37883 24.4471C10.1548 24.4471 11.3136 23.5597 12.2021 22.9006C12.6275 22.5936 12.9743 22.5161 13.3609 22.5161C14.4034 22.5161 15.2144 23.326 15.2144 24.3695C15.2144 24.9102 15.0216 25.3733 14.5585 25.7976C13.67 26.6096 11.5462 28 8.37991 28C3.12753 28 1.1107e-06 24.9877 1.1107e-06 18.6918C-0.00215172 12.3969 3.12537 9.42334 8.37776 9.42334Z" fill="#C2C2C2"/>
<path d="M22.0132 11.7401C22.7467 10.62 24.3697 9.42242 26.9565 9.42242C32.2089 9.42242 33.4442 12.7826 33.4442 16.1427V25.7956C33.4442 26.9544 32.5169 27.8042 31.3581 27.8042C30.1228 27.8042 29.272 26.9544 29.272 25.7956V16.9149C29.272 14.7136 28.3835 13.2069 25.8742 13.2069C22.9782 13.2069 22.0122 14.9064 22.0122 17.1841V25.7956C22.0122 26.9544 21.1237 27.8042 19.9261 27.8042C18.7296 27.8042 17.8411 26.9544 17.8411 25.7956V2.08609C17.8411 0.927272 18.7673 0 19.9261 0C21.0849 0 22.0122 0.927272 22.0122 2.08609V11.7401H22.0132Z" fill="#C2C2C2"/>
<path d="M40.1655 14.5978C39.78 14.8681 39.4709 14.9844 39.0067 14.9844C38.003 14.9844 37.192 14.1735 37.192 13.1687C37.192 12.7433 37.3471 12.2802 37.6939 11.8935C38.7752 10.697 40.7062 9.42188 44.0275 9.42188C48.8158 9.42188 51.674 11.7783 51.674 15.8708V25.7574C51.674 26.8763 50.7468 27.8036 49.6278 27.8036C48.5077 27.8036 47.5805 26.8763 47.5805 25.7574C46.538 27.4191 44.8385 27.9975 42.5219 27.9975C38.7375 27.9975 36.2271 25.6411 36.2271 22.1667C36.2271 18.574 39.123 16.7205 42.4832 16.7205H47.5417V16.0259C47.5417 14.2866 46.2676 13.1288 44.0275 13.1288C42.3281 13.1299 41.1305 13.9021 40.1655 14.5978ZM47.5417 21.0467V19.9654H43.0238C41.3244 19.9654 40.3982 20.7775 40.3982 22.1678C40.3982 23.6336 41.4407 24.5242 43.6032 24.5242C45.6495 24.5232 47.5417 23.2082 47.5417 21.0467Z" fill="#C2C2C2"/>
<path d="M56.6972 6.71968C56.6972 5.59964 57.6244 4.67236 58.7434 4.67236C59.8635 4.67236 60.7907 5.59964 60.7907 6.71968V9.96352H62.5279C63.4929 9.96352 64.2661 10.7357 64.2661 11.7018C64.2661 12.6678 63.4939 13.44 62.5279 13.44H60.7907V22.7849C60.7907 23.6744 61.5629 24.1752 62.2576 24.1752C63.2624 24.1752 64.0733 24.9873 64.0733 25.991C64.0733 26.9969 63.2624 27.8068 62.2576 27.8068C58.821 27.8068 56.6961 25.6065 56.6961 22.5544V13.4411H55.8087C54.8437 13.4411 54.0704 12.6689 54.0704 11.7028C54.0704 10.7368 54.8426 9.9646 55.8087 9.9646H56.6972V6.71968Z" fill="#C2C2C2"/>
</svg>
