<?xml version="1.0" encoding="iso-8859-1"?>
<!-- Generator: Adobe Illustrator 19.0.0, SVG Export Plug-In . SVG Version: 6.00 Build 0)  -->
<svg version="1.1" id="Capa_1" xmlns="http://www.w3.org/2000/svg" xmlns:xlink="http://www.w3.org/1999/xlink" x="0px" y="0px"
	 viewBox="0 0 368 368" style="enable-background:new 0 0 368 368;" xml:space="preserve">
<path style="fill:#CCE4FF;" d="M360,296v8c0,4.4-3.6,8-8,8H16c-4.4,0-8-3.6-8-8v-8l148.48-108L184,208l27.52-20L360,296z"/>
<path style="fill:#007AFF;" d="M352,48H16C7.176,48,0,55.176,0,64v16v216v8c0,8.824,7.176,16,16,16h336c8.824,0,16-7.176,16-16v-8
	V80V64C368,55.176,360.824,48,352,48z M352,280.288L225.12,188L352,95.712V280.288z M16,64h336v11.928l-145.176,105.6
	c0,0,0,0-0.008,0L184,198.112l-22.816-16.584c0,0,0,0-0.008,0L16,75.928V64z M16,95.712L142.88,188L16,280.288V95.712z M352,304H16
	v-3.928l140.488-102.184l22.816,16.584c2.808,2.04,6.6,2.04,9.408,0l22.816-16.584L352,300.072V304z"/>
<g>
</g>
<g>
</g>
<g>
</g>
<g>
</g>
<g>
</g>
<g>
</g>
<g>
</g>
<g>
</g>
<g>
</g>
<g>
</g>
<g>
</g>
<g>
</g>
<g>
</g>
<g>
</g>
<g>
</g>
</svg>
