<svg width="150" height="28" viewBox="0 0 150 28" fill="none" xmlns="http://www.w3.org/2000/svg">
<path d="M19.0576 11.9016C22.6632 8.95619 30.0268 -1.65756 18.4989 0.221425C13.4714 0.983178 6.10776 5.85839 4.63504 11.4954C3.87329 9.97186 3.00997 8.54992 2.09587 7.12798C0.673927 5.19821 -0.900361 6.72171 0.623144 8.65149C5.13934 14.1194 7.74318 20.9143 8.03753 28C8.39302 24.5975 7.8344 20.4333 6.46325 16.3706C7.12343 16.5737 7.88518 16.6753 8.54537 16.6753C10.8814 20.5348 14.487 23.8358 18.4989 25.3593C22.2061 26.832 27.1321 25.9687 25.1008 20.027C24.0343 16.7768 21.5459 13.933 19.0576 11.9016ZM19.5654 1.59258C25.9641 0.881611 19.1083 8.85462 16.8739 10.3273C14.7917 8.95619 12.151 7.73738 9.61182 8.09287C11.44 5.70604 15.909 2.04963 19.5654 1.59258ZM9.56104 9.81951C11.2877 9.66716 13.1667 10.632 14.6394 11.6477C13.2175 12.3587 11.6939 12.7649 10.1197 12.9173C7.78362 12.9173 7.27578 10.0226 9.56104 9.81951ZM18.3974 22.2107C15.4011 21.3474 12.5573 18.9098 10.5259 16.4721C12.2018 16.1167 13.8776 15.4565 15.4011 14.5424C15.9598 14.2885 16.5184 13.8822 17.0262 13.5267C18.8036 15.1518 20.6826 17.3355 21.3936 19.8239C22.1046 22.5154 20.1748 22.7185 18.3974 22.2107Z" fill="#C2C2C2"/>
<path d="M43.586 5.19827H34.8512C34.5465 5.19827 34.2926 5.45219 34.2926 5.75689H34.2418V19.4684C34.2418 19.7731 34.4957 20.0271 34.8004 20.0271C35.0544 20.0271 35.3083 19.7731 35.3591 19.4684V13.2729H42.7735C43.0782 13.2729 43.2305 13.0189 43.2305 12.765C43.2305 12.4603 43.0274 12.308 42.7735 12.308H35.3083V6.26473H43.586C43.8907 6.26473 44.043 6.01081 44.043 5.75689C44.043 5.60454 43.8907 5.40141 43.586 5.19827ZM47.5979 4.4873H47.5471C47.2932 4.4873 47.1408 4.69044 47.1408 4.94436V19.4177C47.1408 19.7224 47.344 19.9255 47.5979 19.9255C47.9026 19.9255 48.0549 19.6716 48.0549 19.4177V5.04592C48.0549 4.69044 47.9026 4.4873 47.5979 4.4873ZM60.243 9.66722C60.243 9.36252 60.0398 9.15939 59.7859 9.15939C59.4812 9.15939 59.3289 9.4133 59.3289 9.66722V15.7105C59.3289 17.7418 57.7546 19.3669 55.8248 19.3161C53.7935 19.3161 52.6255 17.8941 52.6255 15.6597V9.66722C52.6255 9.36252 52.4223 9.15939 52.1684 9.15939C51.9653 9.15939 51.7113 9.4133 51.7113 9.66722V15.812C51.7113 18.3512 53.2349 20.2302 55.7232 20.2302C57.2468 20.281 58.6687 19.4177 59.3797 17.9957V19.57C59.3797 19.8747 59.6336 20.0271 59.8367 20.0271C60.1414 20.0271 60.2938 19.7731 60.2938 19.57H60.243V9.66722ZM68.6223 10.1751C68.8254 10.1751 69.0793 9.97192 69.0793 9.71801C69.0793 9.51487 68.8254 9.26095 68.6223 9.26095H65.4229V6.26473C65.4229 6.01081 65.169 5.75689 64.9658 5.75689H64.9151C64.6611 5.75689 64.5088 6.01081 64.5088 6.26473V9.26095H63.3916C63.1376 9.26095 62.9345 9.4133 62.9345 9.66722C62.9345 9.92114 63.1376 10.1751 63.3916 10.1751H64.5088V17.1832C64.5088 19.1637 65.7784 20.1286 67.2511 20.1286C67.7589 20.1286 68.2668 20.0271 68.7238 19.8747C68.8762 19.7731 69.0285 19.6208 69.0285 19.4177C69.0285 19.1637 68.8254 19.0114 68.6223 19.0114C68.2668 19.113 67.8605 19.1637 67.4542 19.1637C66.2354 19.1637 65.4229 18.6051 65.4229 17.0816V10.1751H68.6223ZM76.4937 10.1751C76.7476 10.1751 76.9508 9.97192 76.9508 9.71801C76.9508 9.51487 76.7476 9.26095 76.4937 9.26095H73.2943V6.26473C73.2943 6.01081 73.0912 5.75689 72.8373 5.75689H72.7865C72.5326 5.75689 72.3802 6.01081 72.3802 6.26473V9.26095H71.263C71.0599 9.26095 70.8059 9.4133 70.8059 9.66722C70.8059 9.92114 71.0599 10.1751 71.263 10.1751H72.3802V17.1832C72.3802 19.1637 73.6498 20.1286 75.1733 20.1286C75.6304 20.1286 76.1382 20.0271 76.5953 19.8747C76.7984 19.7731 76.9 19.6208 76.9 19.4177C76.9 19.1637 76.7476 19.0114 76.4937 19.0114C76.1382 19.113 75.7319 19.1637 75.3257 19.1637C74.1069 19.1637 73.2943 18.6051 73.2943 17.0816V10.1751H76.4937ZM83.451 8.95625C80.7595 8.95625 78.7282 11.3939 78.7282 14.5932V14.644C78.7282 18.0465 80.9626 20.281 83.6542 20.281C85.0761 20.3318 86.5488 19.7224 87.5137 18.5543C87.6661 18.4528 87.7169 18.3004 87.7169 18.1989C87.7169 17.9449 87.4629 17.691 87.2598 17.691L86.9551 17.7926C86.5522 18.2623 86.0541 18.641 85.4938 18.9037C84.9335 19.1663 84.3237 19.3069 83.705 19.3161C81.7244 19.3161 79.947 17.7418 79.7438 15.1011H87.6661C87.8692 15.1011 88.1231 14.8471 88.1231 14.5932C88.1231 11.3939 86.2949 8.95625 83.451 8.95625ZM79.6931 14.0854C79.8454 11.7493 81.4197 9.92114 83.4003 9.92114C85.6855 9.92114 86.9043 11.9017 87.0059 14.0854H79.6931ZM95.893 9.1086C94.0648 9.26095 92.5413 10.5305 91.8811 12.3587V9.71801C91.8811 9.51487 91.6272 9.26095 91.4241 9.26095C91.1193 9.26095 90.967 9.4133 90.9162 9.71801V19.6716C90.9162 19.9255 91.1193 20.1794 91.3733 20.1794C91.6272 20.1794 91.8303 19.9763 91.8811 19.6716V15.7105C91.8811 12.2064 93.7601 10.5305 95.893 10.2766H95.9438C96.2485 10.2766 96.4008 9.97192 96.4008 9.71801C96.4008 9.36252 96.1977 9.1086 95.893 9.1086Z" fill="#C2C2C2"/>
<path d="M113.007 8.55001C112.347 8.55001 111.737 9.05784 111.585 9.76881L109.858 15.5581L108.183 9.76881C108.03 9.05784 107.37 8.49922 106.608 8.49922H106.456C105.694 8.49922 105.034 8.95628 104.882 9.76881L103.206 15.4566L101.581 9.71803C101.378 9.05784 100.819 8.49922 100.108 8.49922H100.057C99.2955 8.49922 98.7369 9.15941 98.7369 9.97195L98.8384 10.7337L101.428 18.7067C101.632 19.5192 102.292 20.0779 103.104 20.1286H103.206C103.968 20.1286 104.577 19.57 104.831 18.7575L106.507 13.0697L108.183 18.7575C108.386 19.57 109.046 20.1286 109.808 20.1286H109.96C110.773 20.1286 111.433 19.57 111.636 18.7067L114.226 10.6321L114.378 10.0227V9.97195C114.378 9.15941 113.769 8.55001 113.007 8.55001ZM120.472 8.55001C119.304 8.49922 118.187 8.75314 117.07 9.10863C116.613 9.31176 116.359 9.76881 116.359 10.3274C116.359 11.0892 116.917 11.6478 117.628 11.597C117.73 11.597 117.882 11.597 118.035 11.4955C118.695 11.2923 119.406 11.1907 120.117 11.1907C121.64 11.1907 122.402 11.9017 122.402 13.2729V13.4252C121.589 13.1205 120.675 13.019 119.812 13.019C117.324 13.019 115.597 14.187 115.597 16.6754C115.597 18.8591 117.273 20.1286 119.203 20.1286C120.421 20.1794 121.589 19.6208 122.402 18.7067C122.453 19.5192 123.062 20.0779 123.824 20.0779C124.636 20.0779 125.297 19.3669 125.297 18.5036V13.4252C125.347 12.1556 124.941 10.8353 124.129 9.87038C123.265 9.05784 122.097 8.55001 120.472 8.55001ZM122.453 15.9136C122.453 17.1324 121.437 17.8942 120.066 17.8434C119.101 17.8434 118.441 17.3356 118.441 16.4722V16.4215C118.441 15.4566 119.253 14.8472 120.523 14.8472C121.132 14.8472 121.843 15.0503 122.453 15.3042V15.9136ZM135.606 8.49922C134.996 8.49922 134.387 8.90549 134.235 9.61646L131.899 16.1675L129.664 9.66724C129.461 8.95628 128.902 8.49922 128.191 8.49922C127.43 8.49922 126.82 9.10863 126.719 9.97195C126.719 10.2259 126.82 10.4798 126.922 10.7337L130.172 18.7067C130.375 19.5192 131.035 20.0779 131.848 20.1286H132.051C132.762 20.0779 133.473 19.57 133.777 18.7575L136.926 10.7845L137.078 10.0227V9.97195C137.078 9.15941 136.469 8.49922 135.606 8.49922ZM143.477 8.44844C140.379 8.44844 138.246 11.0892 138.246 14.2885V14.7964C138.348 17.8942 140.887 20.281 143.782 20.1286C145.102 20.1286 146.372 19.6716 147.438 18.7575C147.743 18.5036 147.845 18.1989 147.845 17.8434V17.7926C147.845 17.0816 147.337 16.523 146.677 16.523C146.423 16.523 146.169 16.5738 145.966 16.7769C145.374 17.2866 144.613 17.5581 143.833 17.5387C142.563 17.5895 141.446 16.6754 141.293 15.3042H147.235C147.997 15.2534 148.606 14.5425 148.555 13.7299V13.476C148.555 10.7337 146.27 8.34687 143.477 8.44844ZM141.192 13.4252C141.446 11.9525 142.258 11.0384 143.477 11.0384C144.696 11.0384 145.508 12.0033 145.661 13.4252H141.192Z" fill="#C2C2C2" stroke="#C2C2C2"/>
</svg>
