<svg width="51" height="50" viewBox="0 0 51 50" fill="none" xmlns="http://www.w3.org/2000/svg">
<path d="M22.1184 27.3451C23.962 26.0546 26.6212 23.7695 29.7933 20.7603C29.2207 20.4025 28.6131 19.9468 28.0404 19.3654C27.4122 18.7541 26.9055 18.1068 26.5285 17.4871C23.7786 20.8604 21.7147 23.6843 20.5344 25.6436C20.1533 25.6436 16.8453 25.7054 14.5403 28.1906C12.0953 30.8357 12.2334 37.2458 12.2334 37.2458C12.2334 37.2458 13.8008 34.7328 16.732 34.0216C20.1287 33.2102 21.6632 30.989 22.1184 27.3451Z" fill="#084482"/>
<path d="M18.7217 43.3257L18.9544 43.5493L27.4142 39.0047L22.9134 34.5325L18.7217 43.3257Z" fill="#084482"/>
<path d="M41.6145 14.3628L39.0191 17.1612V11.3643C39.5361 10.8234 39.8596 10.4847 39.8596 10.4847C39.8596 10.4847 47.8866 2.09818 45.6291 0.494541C43.3674 -1.10485 35.9789 6.65348 35.9789 6.65348C35.9789 6.65348 34.708 8.06756 33.0725 9.90755H0V49.9043H39.0191V26.4997L46.1193 18.8394L41.6145 14.3628ZM35.8059 46.5757C33.0148 46.5757 6.0106 46.5757 3.21538 46.5757C3.21538 43.6921 3.21538 16.1155 3.21538 13.2298C5.32879 13.2298 21.282 13.2298 30.1434 13.2298C28.9302 14.6163 27.7829 15.9472 27.0042 16.8992C27.3832 17.5338 27.9064 18.1962 28.5409 18.8308C29.128 19.4079 29.7438 19.8913 30.3268 20.2427C31.6801 18.9372 33.8676 16.7032 35.8059 14.7014C35.8059 16.0665 35.8059 18.1578 35.8059 20.6303L23.8342 33.5445L28.339 38.0188L35.8059 29.9667C35.8059 37.5609 35.8059 45.1382 35.8059 46.5757Z" fill="#084482"/>
<path d="M50.6572 12.393L47.6437 9.41806C47.2399 9.00707 46.4449 9.1519 45.9093 9.73961L42.5085 13.3983L47.0174 17.8767L50.4121 14.2053C50.9641 13.6197 51.0671 12.7955 50.6572 12.393Z" fill="#084482"/>
</svg>
