<svg width="45" height="50" viewBox="0 0 45 50" fill="none" xmlns="http://www.w3.org/2000/svg">
<path d="M16.6467 31.2022L17.7586 30.5385C18.2118 30.2679 18.3671 29.6687 18.1054 29.2001L15.9986 25.4273C15.8231 25.113 15.5046 24.9372 15.1771 24.9372C15.0163 24.9372 14.8534 24.9795 14.7042 25.0687L13.5923 25.7324C13.4396 25.8234 13.2777 25.865 13.1199 25.865C12.6249 25.865 12.1709 25.4558 12.1709 24.8839V23.5565C12.1709 23.0154 11.7467 22.5767 11.2232 22.5767H7.00938C6.48607 22.5767 6.06167 23.0153 6.06167 23.5565V24.8839C6.06167 25.4558 5.60753 25.865 5.11266 25.865C4.95492 25.865 4.79298 25.8234 4.64026 25.7324L3.52834 25.0687C3.37917 24.9796 3.2161 24.9373 3.05545 24.9372C2.72786 24.9372 2.40947 25.113 2.23396 25.4273L0.127132 29.2001C-0.134524 29.6687 0.020789 30.2679 0.47396 30.5385L1.58588 31.2022C2.21763 31.5793 2.21763 32.522 1.58588 32.8992L0.47396 33.5628C0.0206273 33.8334 -0.134524 34.4326 0.127132 34.9013L2.23396 38.6741C2.40947 38.9884 2.72802 39.1641 3.05545 39.1641C3.21626 39.1641 3.37917 39.1217 3.52834 39.0326L4.64026 38.3689C4.79298 38.2779 4.95492 38.2363 5.11266 38.2363C5.60769 38.2363 6.06167 38.6455 6.06167 39.2174V40.5448C6.06167 41.0859 6.48591 41.5247 7.00938 41.5247H11.223C11.7463 41.5247 12.1707 41.086 12.1707 40.5448V39.2174C12.1707 38.6455 12.6249 38.2363 13.1198 38.2363C13.2775 38.2363 13.4394 38.2779 13.5922 38.3689L14.7041 39.0326C14.8532 39.1217 15.0163 39.1641 15.177 39.1641C15.5046 39.1641 15.8229 38.9884 15.9985 38.6741L18.1053 34.9013C18.3669 34.4326 18.2116 33.8334 17.7585 33.5628L16.6465 32.8992C16.0149 32.522 16.0149 31.5791 16.6467 31.2022ZM9.11637 34.9574C7.56357 34.9574 6.3049 33.6559 6.3049 32.0507C6.3049 30.4452 7.56373 29.1439 9.11637 29.1439C10.669 29.1439 11.9278 30.4454 11.9278 32.0507C11.9278 33.6559 10.669 34.9574 9.11637 34.9574Z" fill="#084482"/>
<path d="M15.9157 4.23068C15.4073 3.70533 14.5835 3.70533 14.0751 4.23068C13.5668 4.75635 13.5668 5.6082 14.0751 6.13371L16.4007 8.53802C7.85301 8.97564 0.933889 15.9172 0.18512 24.6636L0.377443 24.319C0.927909 23.3332 1.95417 22.7208 3.05543 22.7209C3.0787 22.7209 3.10181 22.7231 3.12508 22.7238C4.59159 16.4208 9.90732 11.6537 16.3477 11.2396L14.0751 13.5891C13.5668 14.1146 13.5668 14.9666 14.0751 15.4921C14.3293 15.7548 14.6622 15.8861 14.9953 15.8861C15.3284 15.8861 15.6615 15.7548 15.9156 15.4921L20.4415 10.8128C20.6855 10.5604 20.8226 10.2181 20.8226 9.8614C20.8226 9.50449 20.6855 9.16228 20.4415 8.90997L15.9157 4.23068Z" fill="#084482"/>
<path d="M32.3616 11.1147C35.2515 11.1147 37.6025 8.68399 37.6025 5.69613C37.6025 2.7081 35.2515 0.277344 32.3616 0.277344C29.4718 0.277344 27.1207 2.7081 27.1207 5.69596C27.1207 8.68382 29.4718 11.1147 32.3616 11.1147Z" fill="#084482"/>
<path d="M42.5711 25.7216V18.2726C42.5711 16.2107 41.2895 14.3822 39.3942 13.7404L39.3855 13.7374L36.6135 13.2628C36.3775 13.1878 36.1254 13.317 36.0405 13.5576L32.8952 22.4802C32.7137 22.995 32.0095 22.995 31.8282 22.4802L28.6828 13.5576C28.6143 13.3633 28.4368 13.2415 28.2467 13.2415C28.2017 13.2415 25.3378 13.7367 25.3378 13.7367C23.427 14.3951 22.1503 16.2264 22.1503 18.2973V25.7216C22.1503 26.8343 23.0227 27.7361 24.0987 27.7361H40.6225C41.6989 27.7361 42.5711 26.8341 42.5711 25.7216Z" fill="#084482"/>
<path d="M44.8873 27.5024C44.7785 29.0422 43.5567 29.9851 42.0671 30.0968C40.9257 36.8515 35.4074 42.0674 28.6563 42.5013L30.9288 40.1518C31.4371 39.6261 31.4371 38.7743 30.9288 38.2488C30.4204 37.7234 29.5966 37.7234 29.0882 38.2488L24.5624 42.9281C24.0541 43.4538 24.0541 44.3056 24.5624 44.8311L29.0882 49.5103C29.3424 49.773 29.6753 49.9043 30.0084 49.9043C30.3415 49.9043 30.6746 49.773 30.9286 49.5103C31.4369 48.9848 31.4369 48.1328 30.9286 47.6072L28.6032 45.2029C37.6582 44.7394 44.8873 36.9774 44.8873 27.5024Z" fill="#084482"/>
<path d="M33.5039 13.1613C33.3832 13.0253 33.2066 12.9568 33.0278 12.9568H31.6953C31.5167 12.9568 31.34 13.0253 31.2191 13.1613C31.0321 13.372 31.005 13.6763 31.1377 13.914L31.8499 15.0242L31.5165 17.9324L32.1732 19.7383C32.2372 19.9199 32.4856 19.9199 32.5497 19.7383L33.2064 17.9324L32.873 15.0242L33.5852 13.914C33.7181 13.6763 33.6909 13.372 33.5039 13.1613Z" fill="#084482"/>
</svg>
