<svg width="48" height="48" viewBox="0 0 48 48" fill="none" xmlns="http://www.w3.org/2000/svg">
<circle cx="24" cy="24" r="24" fill="#084482"/>
<path d="M18.3948 30.76V29.2C18.7788 28.864 19.3788 28.344 20.1948 27.64C21.0268 26.936 21.6428 26.408 22.0428 26.056C22.4428 25.688 22.9708 25.2 23.6268 24.592C24.2828 23.968 24.7788 23.448 25.1148 23.032C25.4668 22.616 25.8268 22.136 26.1948 21.592C26.8828 20.568 27.2268 19.56 27.2268 18.568C27.2268 17.56 26.9628 16.752 26.4348 16.144C25.9228 15.536 25.1068 15.232 23.9868 15.232C22.8828 15.232 22.0348 15.576 21.4428 16.264C20.8508 16.936 20.5308 17.832 20.4828 18.952H18.3948C18.4588 17.16 18.9948 15.784 20.0028 14.824C21.0268 13.848 22.3468 13.36 23.9628 13.36C25.5948 13.36 26.8988 13.824 27.8748 14.752C28.8668 15.664 29.3628 16.912 29.3628 18.496C29.3628 20.4 28.4348 22.36 26.5788 24.376C25.9068 25.096 25.3868 25.624 25.0188 25.96C23.9948 26.952 22.8988 27.936 21.7308 28.912H29.8908V30.76H18.3948Z" fill="white"/>
</svg>
