<svg width="85" height="28" viewBox="0 0 85 28" fill="none" xmlns="http://www.w3.org/2000/svg">
<path fill-rule="evenodd" clip-rule="evenodd" d="M59.329 23.1661H57.1857C56.9577 23.1661 56.7296 22.9381 56.7296 22.6645V19.9739C56.7296 19.7459 56.9577 19.5179 57.1857 19.5179H59.329C59.6026 19.5179 59.8306 19.7459 59.8306 19.9739V22.6645C59.8306 22.9381 59.6026 23.1661 59.329 23.1661ZM10.6254 23.1661H8.43648C8.16287 23.1661 7.93485 22.8925 7.93485 22.6645V14.8208C7.93485 12.7687 7.57003 12.2215 5.97394 12.2215C5.15309 12.2215 4.19544 12.4951 3.19218 13.0423V22.6645C3.19218 22.8925 2.96417 23.1661 2.69055 23.1661H0.501629C0.228013 23.1661 0 22.8925 0 22.6645V0.456026C0 0.228013 0.228013 0 0.501629 0H2.69055C2.96417 0 3.19218 0.228013 3.19218 0.456026V10.443C4.10423 9.89577 5.10749 9.57655 6.79479 9.57655C10.1238 9.57655 11.127 11.9023 11.127 14.8208V22.6645C11.127 22.8925 10.899 23.1661 10.6254 23.1661ZM19.7915 15.5049C19.7915 13.544 18.9251 12.2671 17.2378 12.2671C15.5505 12.2671 14.6384 13.544 14.6384 15.5049V17.4202C14.6384 19.3811 15.5505 20.6124 17.2378 20.6124C18.9251 20.6124 19.7915 19.3811 19.7915 17.4202V15.5049ZM17.2378 23.3485C13.4528 23.3485 11.4919 20.8404 11.4919 17.4202V15.5049C11.4919 12.0847 13.4528 9.57655 17.2378 9.57655C20.9772 9.57655 22.9837 12.0847 22.9837 15.5049V17.4202C22.9837 20.8404 20.9772 23.3485 17.2378 23.3485ZM30.0521 23.1661C29.4593 23.2573 28.9577 23.3485 28.4104 23.3485C25.6743 23.3485 24.5798 22.7557 24.5798 19.5635V12.0847L22.3453 11.7655C22.0717 11.7199 21.8436 11.5375 21.8436 11.2638V10.215C21.8436 9.94137 22.0717 9.71335 22.3453 9.71335H24.5798V7.75244C24.5798 7.52443 24.8078 7.34202 25.0814 7.29642L27.316 6.9316H27.4072C27.6352 6.9316 27.772 7.0228 27.772 7.25081V9.71335H29.9609C30.1889 9.71335 30.4169 9.94137 30.4169 10.215V11.5831C30.4169 11.8567 30.1889 12.0847 29.9609 12.0847H27.772V19.5635C27.772 20.7492 27.8632 20.886 28.7296 20.886H30.0065C30.3257 20.886 30.5081 21.0228 30.5081 21.2508V22.7557C30.5081 22.9837 30.3713 23.1205 30.0521 23.1661ZM38.9446 15.1857C38.9446 13.3616 37.9414 12.2671 36.4365 12.2671C34.9316 12.2671 33.8827 13.316 33.8827 15.1857V15.2769H38.9446V15.1857ZM41.6808 17.5114H33.8371V17.6026C33.8371 18.9707 34.43 20.6124 36.7101 20.6124C38.4886 20.6124 40.1303 20.4756 41.1336 20.3844H41.2248C41.4528 20.3844 41.6352 20.5212 41.6352 20.7492V22.2997C41.6352 22.7101 41.5896 22.8469 41.1336 22.9381C39.5831 23.2117 38.671 23.3485 36.4821 23.3485C34.0651 23.3485 30.6906 22.0717 30.6906 17.3746V15.5961C30.6906 11.9023 32.7427 9.57655 36.4365 9.57655C40.1303 9.57655 42.1824 12.0391 42.1824 15.5961V16.9186C42.1824 17.329 42 17.5114 41.6808 17.5114ZM45.557 27.9088H43.3225C43.0489 27.9088 42.8208 27.6352 42.8208 27.4072V5.51792C42.8208 5.2443 43.0489 5.01629 43.3225 5.01629H45.557C45.8306 5.01629 46.013 5.2443 46.013 5.51792V27.4072C46.013 27.6352 45.8306 27.9088 45.557 27.9088ZM51.3029 23.3485C50.3909 23.3485 48.3388 23.2117 47.0163 22.8469C46.6971 22.8013 46.5603 22.6189 46.5603 22.2997V20.886C46.5603 20.7036 46.6971 20.5212 46.9707 20.5212H47.0619C48.202 20.658 50.3909 20.7492 51.0749 20.7492C52.5798 20.7492 52.8078 20.2932 52.8078 19.6091C52.8078 19.1987 52.5342 18.8795 51.759 18.4235L48.43 16.4169C47.8416 16.0882 47.3478 15.6134 46.9963 15.0382C46.6449 14.4631 46.4476 13.8071 46.4235 13.1336C46.4235 10.7622 47.9283 9.57655 50.9837 9.57655C52.9446 9.57655 54.0391 9.75896 55.2704 10.0326C55.5896 10.1238 55.7264 10.3062 55.7264 10.5798V11.9479C55.7264 12.2671 55.5896 12.4039 55.316 12.4039H55.2248C54.5407 12.3127 52.6254 12.1303 51.2573 12.1303C50.1173 12.1303 49.6156 12.4039 49.6156 13.1336C49.6156 13.4984 49.9805 13.7264 50.5733 14.0912L53.7199 16.0065C55.7264 17.2378 56.0456 18.4235 56.0456 19.6091C56.0456 21.7068 54.4495 23.3485 51.3029 23.3485ZM71.2769 23.1661H69.088C68.8143 23.1661 68.5863 22.8925 68.5863 22.6645V14.9121C68.5863 12.8143 68.4039 12.2215 66.5342 12.2215C65.7134 12.2215 64.8469 12.5407 63.8437 13.0879V22.6645C63.8437 22.8925 63.6156 23.1661 63.342 23.1661H61.1531C60.8795 23.1661 60.6515 22.8925 60.6515 22.6645V10.215C60.6515 9.94137 60.8795 9.71335 61.1531 9.71335H63.2508C63.4788 9.71335 63.7068 9.94137 63.7068 10.215V10.7166C65.1205 9.80456 66.0326 9.57655 67.6287 9.57655C71.0945 9.57655 71.7785 11.8567 71.7785 14.9121V22.6645C71.7785 22.8925 71.5505 23.1661 71.2769 23.1661ZM81.0358 14.1368C81.0358 12.9967 80.5342 12.1303 78.4821 12.1303C76.43 12.1303 75.8827 13.0423 75.8827 14.1368V14.3648C75.8827 15.2313 76.202 16.2345 78.4821 16.2345C80.443 16.2345 81.0358 15.5505 81.0358 14.3648V14.1368ZM81.3095 24.0782C81.3095 23.5765 80.9902 23.2573 78.4821 22.6645L76.3388 22.1629C75.9739 22.6645 75.7003 22.9837 75.7003 23.8046V24.0326C75.7003 24.9902 76.3388 25.5831 78.5733 25.5831C80.899 25.5831 81.3095 25.127 81.3095 24.2606V24.0782ZM84.3648 11.9023L83.544 12.2215C83.9544 12.7687 84.1368 13.2704 84.1368 14.0912V14.2736C84.1368 17.2378 82.0847 18.6059 78.4821 18.6059C77.2052 18.6059 76.3388 18.3778 75.8371 18.1954C75.5635 18.3778 75.4267 18.6059 75.4267 18.8339C75.4267 19.2899 75.7003 19.4723 76.2476 19.6091L79.0749 20.2932C82.3583 21.0228 84.456 21.5244 84.456 24.0782V24.2606C84.456 26.6775 82.6775 28 78.5733 28C74.6971 28 72.5994 26.5407 72.5994 24.0326V23.8046C72.5994 22.8469 73.0554 21.8893 73.8306 21.2052C73.4992 20.9456 73.2321 20.6131 73.0502 20.2334C72.8683 19.8538 72.7764 19.4372 72.7818 19.0163V18.9707C72.7818 18.241 73.0554 17.5114 73.7394 17.0554C73.0098 16.3257 72.7362 15.4593 72.7362 14.2736V14.0912C72.7362 11.7199 74.2866 9.71335 78.4821 9.71335H84.0912C84.456 9.71335 84.7296 10.0326 84.7296 10.3518V11.355C84.7296 11.7199 84.6384 11.7655 84.3648 11.9023Z" fill="#C2C2C2"/>
</svg>
