<svg width="16" height="16" viewBox="0 0 16 16" fill="none" xmlns="http://www.w3.org/2000/svg">
<path d="M14.2843 3.35807V3.79264C14.2843 4.53009 14.1944 5.27413 14.0145 6.02474C13.8345 6.77536 13.5711 7.50623 13.2241 8.21734C12.8771 8.92845 12.4337 9.59348 11.894 10.2124C11.3542 10.8313 10.7502 11.3713 10.0819 11.8322C9.41365 12.2931 8.649 12.6552 7.78795 12.9186C6.92691 13.182 6.00161 13.3136 5.01205 13.3136C4.08675 13.3136 3.20643 13.182 2.37108 12.9186C1.53574 12.6552 0.745381 12.2865 0 11.8124C0.244177 11.8519 0.501205 11.8717 0.771084 11.8717C1.54217 11.8717 2.2747 11.74 2.96867 11.4766C3.66265 11.2132 4.28594 10.8643 4.83855 10.4297C4.11888 10.4165 3.48273 10.1927 2.93012 9.75809C2.37751 9.32352 1.99197 8.77043 1.77349 8.09882C1.97912 8.13833 2.18474 8.15808 2.39036 8.15808C2.67309 8.15808 2.96225 8.12516 3.25783 8.05932C2.88514 7.9803 2.53815 7.84203 2.21687 7.6445C1.89558 7.44697 1.61928 7.20335 1.38795 6.91364C1.15663 6.62392 0.976707 6.2947 0.848193 5.92598C0.719679 5.55725 0.648996 5.16878 0.636145 4.76054V4.72104C1.0988 4.99758 1.59357 5.14244 2.12048 5.15561C1.67068 4.85273 1.31727 4.45766 1.06024 3.97042C0.803213 3.48318 0.668273 2.94984 0.655422 2.37042C0.655422 2.06753 0.693976 1.77124 0.771084 1.48153C0.848193 1.19181 0.95743 0.921853 1.0988 0.671647C1.90843 1.69881 2.89157 2.52186 4.04819 3.14079C5.20482 3.75972 6.46426 4.10211 7.82651 4.16795C7.8008 4.04943 7.78153 3.92433 7.76867 3.79264C7.75582 3.66095 7.7494 3.53585 7.7494 3.41733C7.7494 2.95643 7.83936 2.52186 8.01928 2.11363C8.1992 1.70539 8.43052 1.34984 8.71325 1.04696C8.99598 0.744075 9.34297 0.500453 9.75422 0.316091C10.1655 0.131728 10.5831 0.0461315 11.0072 0.0593003C11.4827 0.0593003 11.9261 0.151482 12.3373 0.335844C12.7486 0.520207 13.102 0.783582 13.3976 1.12597C14.1301 0.967944 14.8241 0.697985 15.4795 0.316091C15.351 0.697985 15.1647 1.04696 14.9205 1.36301C14.6763 1.67906 14.3807 1.94243 14.0337 2.15313C14.6892 2.07412 15.3124 1.90293 15.9036 1.63955C15.4667 2.32433 14.9269 2.89717 14.2843 3.35807Z" fill="#4C5059"/>
</svg>
