<svg width="16" height="16" viewBox="0 0 16 16" fill="none" xmlns="http://www.w3.org/2000/svg">
<path d="M10.687 6.58667H9.01699V6.172H10.6877V6.58733L10.687 6.58667ZM7.90499 8.28867C8.01299 8.45533 8.06633 8.658 8.06633 8.896C8.06633 9.14267 8.00633 9.36267 7.88233 9.558C7.79972 9.69522 7.68931 9.81362 7.55819 9.90559C7.42706 9.99756 7.27814 10.0611 7.12099 10.092C6.92808 10.1306 6.73172 10.1494 6.53499 10.148H4.66699V6H6.67033C7.17499 6.008 7.53299 6.15467 7.74433 6.442C7.87099 6.618 7.93433 6.82933 7.93433 7.07533C7.93433 7.32867 7.87099 7.532 7.74233 7.686C7.67166 7.77267 7.56633 7.85133 7.42699 7.922C7.63766 7.99933 7.79766 8.12067 7.90499 8.28867ZM5.62366 7.63533H6.50166C6.68166 7.63533 6.82766 7.60133 6.93966 7.53267C7.05233 7.464 7.10833 7.34267 7.10833 7.168C7.10833 6.97467 7.03433 6.84667 6.88566 6.78533C6.72681 6.73776 6.56142 6.71571 6.39566 6.72H5.62366V7.63533ZM7.19299 8.83667C7.19299 8.62133 7.10433 8.47267 6.92899 8.39267C6.83033 8.34733 6.69166 8.324 6.51433 8.322H5.62366V9.42733H6.50033C6.68033 9.42733 6.82033 9.404 6.92033 9.35467C7.10166 9.26467 7.19299 9.09267 7.19299 8.83667ZM11.307 8.162C11.327 8.298 11.3363 8.49467 11.333 8.752H9.16966C9.18166 9.05067 9.28433 9.25933 9.48033 9.37867C9.59766 9.454 9.74033 9.49067 9.90833 9.49067C10.085 9.49067 10.2283 9.446 10.3397 9.354C10.4059 9.29741 10.4601 9.22802 10.499 9.15H11.2923C11.271 9.32667 11.1757 9.50533 11.0043 9.68733C10.7377 9.976 10.3657 10.1207 9.88633 10.1207C9.50536 10.1256 9.13481 9.99626 8.83966 9.75533C8.53833 9.51133 8.38633 9.11533 8.38633 8.56533C8.38633 8.05 8.52299 7.65533 8.79566 7.38067C9.06899 7.10533 9.42299 6.96867 9.85899 6.96867C10.117 6.96867 10.3497 7.01467 10.5577 7.10733C10.7643 7.20067 10.9357 7.34667 11.0703 7.54733C11.1923 7.72467 11.2703 7.92867 11.307 8.162ZM10.527 8.23933C10.5123 8.03267 10.443 7.87667 10.319 7.77C10.191 7.661 10.027 7.60349 9.85899 7.60867C9.65899 7.60867 9.50499 7.66667 9.39499 7.77933C9.28499 7.89267 9.21632 8.046 9.18832 8.23933H10.527Z" fill="#4C5059"/>
<path d="M3.99967 2.66671C3.64605 2.66671 3.30691 2.80718 3.05687 3.05723C2.80682 3.30728 2.66634 3.64642 2.66634 4.00004V12C2.66634 12.3537 2.80682 12.6928 3.05687 12.9429C3.30691 13.1929 3.64605 13.3334 3.99967 13.3334H11.9997C12.3533 13.3334 12.6924 13.1929 12.9425 12.9429C13.1925 12.6928 13.333 12.3537 13.333 12V4.00004C13.333 3.64642 13.1925 3.30728 12.9425 3.05723C12.6924 2.80718 12.3533 2.66671 11.9997 2.66671H3.99967ZM3.99967 1.33337H11.9997C12.7069 1.33337 13.3852 1.61433 13.8853 2.11442C14.3854 2.61452 14.6663 3.2928 14.6663 4.00004V12C14.6663 12.7073 14.3854 13.3856 13.8853 13.8857C13.3852 14.3858 12.7069 14.6667 11.9997 14.6667H3.99967C3.29243 14.6667 2.61415 14.3858 2.11406 13.8857C1.61396 13.3856 1.33301 12.7073 1.33301 12V4.00004C1.33301 3.2928 1.61396 2.61452 2.11406 2.11442C2.61415 1.61433 3.29243 1.33337 3.99967 1.33337Z" fill="#4C5059"/>
</svg>
