<svg width="24" height="24" viewBox="0 0 24 24" fill="none" xmlns="http://www.w3.org/2000/svg">
<g clip-path="url(#clip0)">
<path d="M18.8089 7.61723H20.2152V11.188H22.6853V5.57812H16.3389V11.188H18.8089V7.61723Z" fill="black"/>
<path d="M17.7681 4.17202V3.15047C17.7681 2.18869 18.5505 1.40625 19.5123 1.40625C20.4741 1.40625 21.2565 2.18869 21.2565 3.15047V4.17202H22.6628V3.15047C22.6628 1.41328 21.2495 0 19.5123 0C17.7751 0 16.3618 1.41328 16.3618 3.15047V4.17202H17.7681Z" fill="black"/>
<path d="M14.9328 12.5945V7.06597C13.5963 6.29057 12.0451 5.84619 10.392 5.84619C5.38688 5.84619 1.31494 9.91813 1.31494 14.9232C1.31494 17.76 2.62332 20.2966 4.66796 21.9623V20.7768C4.66796 18.7385 5.98969 17.0031 7.82114 16.3826C7.28653 15.7774 6.96108 14.9833 6.96108 14.1142C6.96108 12.2225 8.50017 10.6835 10.3919 10.6835C12.2836 10.6835 13.8227 12.2225 13.8227 14.1142C13.8227 14.9833 13.4973 15.7774 12.9627 16.3826C14.7941 17.0031 16.1158 18.7385 16.1158 20.7768V21.9623C18.1605 20.2966 19.4688 17.76 19.4688 14.9232C19.4688 14.1184 19.363 13.3379 19.1653 12.5945H14.9328Z" fill="black"/>
<path d="M10.3918 12.0894C9.27544 12.0894 8.36719 12.9976 8.36719 14.1139C8.36719 15.2302 9.27544 16.1385 10.3918 16.1385C11.5081 16.1385 12.4163 15.2302 12.4163 14.1139C12.4163 12.9976 11.5081 12.0894 10.3918 12.0894Z" fill="black"/>
<path d="M14.7096 20.7767C14.7096 18.9947 13.2598 17.5449 11.4778 17.5449H9.30601C7.52397 17.5449 6.07422 18.9947 6.07422 20.7767V22.9057C7.35897 23.6034 8.82995 24 10.3919 24C11.9538 24 13.4248 23.6034 14.7095 22.9057V20.7767H14.7096Z" fill="black"/>
</g>
<defs>
<clipPath id="clip0">
<rect width="24" height="24" fill="white"/>
</clipPath>
</defs>
</svg>
