<svg width="157" height="20" viewBox="0 0 157 20" fill="none" xmlns="http://www.w3.org/2000/svg">
<path fill-rule="evenodd" clip-rule="evenodd" d="M109.589 0.290556H112.807V16.779H126.76L124.711 20H109.589V0.290556V0.290556ZM84.3182 20L72.4144 1.21747C71.6827 -0.00177815 69.7317 -0.00177783 68.9019 1.26649L57.0962 20H60.9991L64.5606 14.3405H72.1711L74.172 11.1203H66.5615L70.7085 4.6328L80.4171 20H84.3182V20ZM91.5615 0.296792C86.123 0.296792 82.5428 4.70588 82.5428 10.1453C82.5428 15.5838 86.1239 19.9947 91.5615 19.9947L104.786 19.9786L106.856 16.7861H91.6586C87.9929 16.7861 85.8476 13.8128 85.8476 10.1453C85.8476 6.47772 87.992 3.50446 91.6586 3.50446H105.196L107.194 0.286993L91.5615 0.296792V0.296792ZM9.01961 3.50446H22.9715C26.639 3.50446 28.7834 6.47772 28.7834 10.1453C28.7834 13.8128 26.6399 16.7861 22.9715 16.7861H9.01961C5.35205 16.7861 3.20856 13.8128 3.20856 10.1453C3.20856 6.47772 5.35205 3.50446 9.01961 3.50446ZM9.01961 0.296792C3.58021 0.296792 0 4.70588 0 10.1453C0 15.5838 3.58021 19.9947 9.01961 19.9947H22.9715C28.4109 19.9947 31.9911 15.5838 31.9911 10.1453C31.9911 4.70588 28.4109 0.296792 22.9715 0.296792H9.01961ZM130.2 11.7068C130.724 14.6212 132.729 16.7861 135.859 16.7861H151.056L148.985 19.9786L135.762 19.9947C130.322 19.9947 126.743 15.5838 126.743 10.1453C126.743 4.70588 130.323 0.296792 135.762 0.296792L151.394 0.287884L149.397 3.50535H135.86C132.774 3.50535 130.759 5.63369 130.201 8.48752H149.3L147.251 11.7077H130.2V11.7068V11.7068ZM50.1934 11.992C51.7266 11.9652 53.1879 11.3374 54.2627 10.2436C55.3375 9.14991 55.9398 7.67782 55.9398 6.14439C55.9398 4.61096 55.3375 3.13886 54.2627 2.04514C53.1879 0.951417 51.7266 0.323561 50.1934 0.296792L33.7772 0.289665V19.9991H37.3877V3.50535H50.1934C50.8933 3.50535 51.5646 3.78339 52.0595 4.27831C52.5544 4.77322 52.8324 5.44447 52.8324 6.14439C52.8324 6.8443 52.5544 7.51555 52.0595 8.01047C51.5646 8.50538 50.8933 8.78342 50.1934 8.78342H39.9242L51.5089 19.9768H56.1693L47.8761 11.9991L50.1934 11.992V11.992ZM154.766 0.308378C155.603 0.308378 156.266 0.969702 156.266 1.84671C156.266 2.73797 155.604 3.39394 154.766 3.39394C153.919 3.39394 153.259 2.73797 153.259 1.84671C153.259 0.969702 153.919 0.308378 154.766 0.308378V0C153.748 0 152.887 0.783422 152.887 1.84581C152.887 2.91889 153.749 3.70232 154.766 3.70232C155.776 3.70232 156.638 2.91889 156.638 1.84581C156.638 0.783422 155.776 0 154.766 0V0.308378Z" fill="#C2C2C2"/>
<path fill-rule="evenodd" clip-rule="evenodd" d="M154.375 1.05739H154.817C155.042 1.05739 155.282 1.10641 155.282 1.37112C155.282 1.6991 155.037 1.7196 154.761 1.7196H154.374V1.99412H154.747L155.311 2.92014H155.673L155.065 1.97985C155.379 1.94064 155.619 1.77486 155.619 1.39251C155.619 0.970942 155.368 0.784668 154.865 0.784668H154.05V2.92014H154.373V1.05739H154.375V1.05739Z" fill="#C2C2C2"/>
</svg>
