<svg width="24" height="24" viewBox="0 0 24 24" fill="none" xmlns="http://www.w3.org/2000/svg">
<path d="M13.4062 14.0625H16.2188V19.7344H13.4062V14.0625Z" fill="#AD019C"/>
<path d="M16.2188 4.21887H20.0255L16.2188 0.412109V4.21887Z" fill="#AD019C"/>
<path d="M7.78125 14.0625H9.1875V16.9219H7.78125V14.0625Z" fill="#AD019C"/>
<path d="M7.78125 8.4375H16.2188V9.84375H7.78125V8.4375Z" fill="#AD019C"/>
<path d="M14.8125 4.92188V0H4.26562C3.87183 0 3.5625 0.309328 3.5625 0.703125V23.2969C3.5625 23.6906 3.87183 24 4.26562 24H19.7344C20.1282 24 20.4375 23.6906 20.4375 23.2969V5.625H15.5156C15.1218 5.625 14.8125 5.31558 14.8125 4.92188ZM9.89062 21.1406H7.07812C6.68433 21.1406 6.375 20.8312 6.375 20.4375C6.375 20.0437 6.68433 19.7344 7.07812 19.7344H9.89062C10.2844 19.7344 10.5938 20.0437 10.5938 20.4375C10.5938 20.8312 10.2844 21.1406 9.89062 21.1406ZM10.5938 17.625C10.5938 18.0187 10.2844 18.3281 9.89062 18.3281H7.07812C6.68433 18.3281 6.375 18.0187 6.375 17.625V13.3594C6.375 12.9656 6.68433 12.6562 7.07812 12.6562H9.89062C10.2844 12.6562 10.5938 12.9656 10.5938 13.3594V17.625ZM17.625 20.4375C17.625 20.8312 17.3157 21.1406 16.9219 21.1406H12.7031C12.3093 21.1406 12 20.8312 12 20.4375V13.3594C12 12.9656 12.3093 12.6562 12.7031 12.6562H16.9219C17.3157 12.6562 17.625 12.9656 17.625 13.3594V20.4375ZM17.625 7.73438V10.5469C17.625 10.9406 17.3157 11.25 16.9219 11.25H7.07812C6.68433 11.25 6.375 10.9406 6.375 10.5469V7.73438C6.375 7.34058 6.68433 7.03125 7.07812 7.03125H16.9219C17.3157 7.03125 17.625 7.34058 17.625 7.73438Z" fill="#AD019C"/>
</svg>
