<svg width="26" height="50" viewBox="0 0 26 50" fill="none" xmlns="http://www.w3.org/2000/svg">
<path d="M22.3372 0.277344H3.46209C1.55021 0.277344 0 1.8801 0 3.85679V46.3249C0 48.3021 1.5497 49.9043 3.46209 49.9043H22.3372C24.2501 49.9043 25.8003 48.3021 25.8003 46.3249V3.85679C25.7998 1.8801 24.2501 0.277344 22.3372 0.277344ZM10.5836 2.39358H15.2157C15.3821 2.39358 15.5176 2.53367 15.5176 2.70625C15.5176 2.8783 15.3821 3.01839 15.2157 3.01839H10.5836C10.4167 3.01839 10.2817 2.8783 10.2817 2.70625C10.2817 2.53367 10.4172 2.39358 10.5836 2.39358ZM5.96644 1.64254C6.23331 1.64254 6.44969 1.86625 6.44969 2.14217C6.44969 2.41809 6.23382 2.6418 5.96644 2.6418C5.69905 2.6418 5.48319 2.41809 5.48319 2.14217C5.48319 1.86625 5.69957 1.64254 5.96644 1.64254ZM3.77687 1.34319C4.20397 1.34319 4.54966 1.70113 4.54966 2.14217C4.54966 2.58321 4.20397 2.94115 3.77687 2.94115C3.34978 2.94115 3.00408 2.58321 3.00408 2.14217C3.00408 1.70113 3.34978 1.34319 3.77687 1.34319ZM14.1085 48.0874H11.6918C10.9252 48.0874 10.3044 47.4456 10.3044 46.654C10.3044 45.862 10.9252 45.2201 11.6918 45.2201H14.1085C14.8751 45.2201 15.4959 45.862 15.4959 46.654C15.4959 47.4456 14.8751 48.0874 14.1085 48.0874ZM24.3335 44.0872H1.46624V6.09394H24.3335V44.0872Z" fill="#084482"/>
</svg>
