<svg width="59" height="28" viewBox="0 0 59 28" fill="none" xmlns="http://www.w3.org/2000/svg">
<path d="M32.3359 13.9399H23.7215C23.7503 14.8147 24.0928 15.65 24.6866 16.2931C24.971 16.5794 25.3114 16.8039 25.6866 16.9526C26.0618 17.1012 26.4637 17.1708 26.867 17.1569C27.5581 17.1569 28.13 16.9961 28.5827 16.6624C29.0295 16.3348 29.5359 15.7271 30.1019 14.8395L32.4432 16.1501C32.0857 16.7637 31.6985 17.2939 31.2993 17.7407C30.8942 18.1756 30.4653 18.5331 30.0006 18.825C29.5383 19.1042 29.0361 19.3111 28.5112 19.4386C27.9414 19.574 27.3573 19.64 26.7717 19.6352C24.9785 19.6352 23.5368 19.0633 22.4525 17.9075C21.3683 16.7518 20.8261 15.2148 20.8261 13.2965C20.8261 11.3961 21.3504 9.85904 22.4049 8.68543C23.4653 7.52372 24.8712 6.94585 26.6227 6.94585C28.3921 6.94585 29.7861 7.50585 30.8168 8.63181C31.8355 9.75181 32.3478 11.3007 32.3478 13.2846L32.3359 13.9399V13.9399ZM29.4823 11.6701C29.0951 10.1867 28.1657 9.44798 26.6823 9.44798C26.2077 9.44179 25.7395 9.55738 25.3223 9.7837C24.9051 10.01 24.5529 10.3395 24.2993 10.7407C24.1205 11.0281 23.9879 11.3417 23.9061 11.6701H29.4823ZM34.4032 7.27947H37.1793V8.35181C37.568 7.91177 38.027 7.53932 38.5376 7.24968C38.9833 7.03624 39.4734 6.93209 39.9674 6.94585C40.7002 6.94585 41.4627 7.18415 42.261 7.66075L40.9921 10.1986C40.5491 9.85009 40.0065 9.65184 39.4432 9.63266C37.9359 9.63266 37.1793 10.7765 37.1793 13.0641V19.2956H34.4032V7.27947ZM46.044 7.27947V19.2956H43.2678V7.27947H46.044ZM42.8508 4.72373C42.8508 4.24117 43.0295 3.81819 43.381 3.47266C43.7385 3.11522 44.1555 2.93649 44.65 2.93649C45.1504 2.93649 45.5793 3.11522 45.9368 3.47266C46.2883 3.81224 46.467 4.23522 46.467 4.73564C46.467 5.24202 46.2883 5.665 45.9308 6.02245C45.5912 6.37989 45.1623 6.55266 44.6619 6.55266C44.1614 6.55266 43.7325 6.37394 43.381 6.01649C43.0236 5.665 42.8449 5.23607 42.8449 4.72373H42.8508ZM51.4593 9.865V19.3016H48.6712V9.865H47.6823V7.27947H48.6712V5.08117C48.6712 3.56798 48.9334 2.5016 49.4576 1.87607C50.1844 1.00628 51.2329 0.56543 52.6151 0.56543C53.1095 0.56543 53.7291 0.714366 54.4797 1.00032V3.83607H52.7163C52.1325 3.83607 51.9002 3.83607 51.6797 4.13394C51.507 4.47351 51.4593 4.77734 51.4593 5.76032V7.27947H56.1061V9.865H51.4593Z" fill="#C2C2C2"/>
<path d="M58.4236 7.2795V19.2957H55.6474V7.2795H58.4236ZM55.2304 4.72376C55.2304 4.2412 55.4091 3.81823 55.7606 3.47269C56.118 3.11525 56.5351 2.93652 57.0295 2.93652C57.53 2.93652 57.9589 3.11525 58.3104 3.47269C58.6678 3.81227 58.8466 4.23525 58.8466 4.73567C58.8466 5.24205 58.6678 5.66503 58.3104 6.02248C57.9708 6.37993 57.5419 6.55269 57.0414 6.55269C56.541 6.55269 56.1121 6.37397 55.7606 6.01652C55.4031 5.66503 55.2244 5.2361 55.2244 4.72376H55.2304Z" fill="#C2C2C2"/>
<path fill-rule="evenodd" clip-rule="evenodd" d="M7.88653 9.1443C9.8227 10.9911 12.6525 13.809 12.6525 13.809C12.6525 13.809 19.1461 5.32558 25.2942 1.23877L25.7708 2.6626C23.5248 4.22941 16.775 12.8379 14.1299 20.4515C14.1299 20.4515 7.08228 12.7366 5.74185 10.9792L7.88653 9.1443V9.1443Z" fill="#C2C2C2"/>
<path d="M13.9929 26.379C18.3597 26.379 22.2023 24.1152 24.4006 20.6956H26.295C24.947 23.171 22.8832 25.1818 20.3736 26.465C17.8639 27.7482 15.0254 28.244 12.2294 27.8876C9.43342 27.5311 6.81012 26.339 4.70275 24.4671C2.59538 22.5953 1.1021 20.131 0.418266 17.3965C-0.265563 14.6621 -0.108088 11.7849 0.87009 9.14146C1.84827 6.49799 3.60159 4.21134 5.90066 2.58069C8.19973 0.950035 10.9375 0.0513216 13.7557 0.00213286C16.5739 -0.0470559 19.3413 0.755571 21.6959 2.305L20.5878 3.53819C18.9654 2.51537 17.1274 1.88371 15.2189 1.69308C13.3105 1.50245 11.3839 1.75807 9.59117 2.43976C7.79847 3.12144 6.18877 4.21053 4.88917 5.62104C3.58958 7.03154 2.63566 8.72484 2.10273 10.5672C1.56981 12.4097 1.47247 14.3507 1.8184 16.2372C2.16433 18.1237 2.94406 19.9039 4.09603 21.4374C5.248 22.9708 6.74066 24.2155 8.45618 25.0731C10.1717 25.9307 12.0631 26.3778 13.981 26.379H13.9929Z" fill="#C2C2C2"/>
</svg>
