<svg width="88" height="72" viewBox="0 0 88 72" fill="none" xmlns="http://www.w3.org/2000/svg">
<path d="M73.37 46.14C68.86 46.14 64.4967 45.54 60.4267 44.46C59.1433 44.1 57.7133 44.37 56.7233 45.18L50.9667 51.09C40.59 47.04 30.8733 39.39 25.7033 30.6L32.8533 25.62C33.8433 24.78 34.1367 23.61 33.7333 22.56C32.3767 19.23 31.68 15.66 31.68 11.97C31.68 10.35 30.03 9 28.05 9H15.3633C13.3833 9 11 9.72 11 11.97C11 39.84 39.3433 63 73.37 63C75.9733 63 77 61.11 77 59.46V49.11C77 47.49 75.35 46.14 73.37 46.14Z" fill="white"/>
</svg>
