<svg width="73" height="77" viewBox="0 0 73 77" fill="none" xmlns="http://www.w3.org/2000/svg">
<path d="M27.3749 37.6979C25.2762 37.6979 23.5728 39.4946 23.5728 41.7083C23.5728 43.9221 25.2762 45.7187 27.3749 45.7187C29.4737 45.7187 31.177 43.9221 31.177 41.7083C31.177 39.4946 29.4737 37.6979 27.3749 37.6979ZM45.6249 37.6979C43.5262 37.6979 41.8228 39.4946 41.8228 41.7083C41.8228 43.9221 43.5262 45.7187 45.6249 45.7187C47.7237 45.7187 49.427 43.9221 49.427 41.7083C49.427 39.4946 47.7237 37.6979 45.6249 37.6979ZM36.4999 6.41666C19.7099 6.41666 6.08325 20.79 6.08325 38.5C6.08325 56.21 19.7099 70.5833 36.4999 70.5833C53.2899 70.5833 66.9166 56.21 66.9166 38.5C66.9166 20.79 53.2899 6.41666 36.4999 6.41666ZM36.4999 64.1667C23.0862 64.1667 12.1666 52.6487 12.1666 38.5C12.1666 37.5696 12.2274 36.6392 12.3187 35.7408C19.497 32.3721 25.1849 26.18 28.1658 18.5121C33.6712 26.7254 42.7353 32.0833 52.9858 32.0833C55.3583 32.0833 57.6395 31.7946 59.8295 31.2492C60.4683 33.5271 60.8333 35.9654 60.8333 38.5C60.8333 52.6487 49.9137 64.1667 36.4999 64.1667Z" fill="white"/>
</svg>
