<svg width="312" height="381" viewBox="0 0 312 381" fill="none" xmlns="http://www.w3.org/2000/svg">
<rect x="155.137" y="7.09082" width="2.90196" height="23.9318" fill="#EF2222"/>
<rect x="168.196" y="16.8408" width="3.54545" height="19.5882" transform="rotate(90 168.196 16.8408)" fill="#EF2222"/>
<path d="M171.5 19.5C171.5 29.0145 164.214 36.5 155.5 36.5C146.786 36.5 139.5 29.0145 139.5 19.5C139.5 9.98552 146.786 2.5 155.5 2.5C164.214 2.5 171.5 9.98552 171.5 19.5Z" fill="white" fill-opacity="0.2" stroke="#EF2222" stroke-width="5"/>
<path d="M154.419 374.204C153.527 374.204 152.663 373.995 151.858 373.618C151.604 373.493 151.321 373.587 151.125 373.869L149.986 375.929C147.933 374.518 146.011 371.851 144.988 368.787L146.402 367.052C146.598 366.759 146.656 366.351 146.576 365.985C146.308 364.824 146.17 363.58 146.17 362.294C146.17 361.729 145.844 361.259 145.452 361.259H142.942C142.55 361.259 142.078 361.51 142.078 362.294C142.078 372.008 147.686 380.081 154.419 380.081C154.934 380.081 155.137 379.422 155.137 378.847V375.239C155.137 374.675 154.811 374.204 154.419 374.204Z" fill="#3D155F"/>
<path d="M60.9353 29.666C60.9353 30.9633 60.6693 32.0693 60.1373 32.984C59.6146 33.8987 58.8586 34.5193 57.8693 34.846C58.0466 34.9207 58.2006 35.0327 58.3313 35.182C58.4713 35.3313 58.6113 35.532 58.7513 35.784L59.2833 36.792C59.3393 36.8947 59.3673 36.9927 59.3673 37.086C59.3673 37.226 59.3066 37.3427 59.1853 37.436C59.0733 37.5293 58.9426 37.576 58.7933 37.576C58.6906 37.576 58.5879 37.548 58.4853 37.492C58.3919 37.436 58.3173 37.3567 58.2613 37.254L57.5333 35.91C57.2719 35.3967 56.7773 35.1307 56.0493 35.112C55.2186 35.084 54.4953 34.8833 53.8793 34.51C53.2633 34.1367 52.7826 33.6047 52.4373 32.914C52.1013 32.2233 51.9333 31.4113 51.9333 30.478C51.9333 29.3767 52.1199 28.4153 52.4933 27.594C52.8759 26.7633 53.4126 26.124 54.1033 25.676C54.8033 25.228 55.6153 25.004 56.5393 25.004C57.4446 25.004 58.2286 25.1907 58.8913 25.564C59.5539 25.9373 60.0579 26.474 60.4033 27.174C60.7579 27.874 60.9353 28.7047 60.9353 29.666ZM56.3293 34.132C57.0386 34.132 57.6499 33.9547 58.1633 33.6C58.6766 33.236 59.0686 32.718 59.3393 32.046C59.6193 31.374 59.7593 30.576 59.7593 29.652C59.7593 28.476 59.4793 27.5753 58.9193 26.95C58.3593 26.3153 57.5659 25.998 56.5393 25.998C55.8299 25.998 55.2186 26.18 54.7053 26.544C54.1919 26.8987 53.7953 27.412 53.5153 28.084C53.2446 28.756 53.1093 29.5587 53.1093 30.492C53.1093 31.6587 53.3893 32.5593 53.9493 33.194C54.5093 33.8193 55.3026 34.132 56.3293 34.132ZM70.6887 28.042C70.8567 28.042 70.9873 28.0933 71.0807 28.196C71.1833 28.2893 71.2253 28.4247 71.2067 28.602L70.7307 34.552C70.7213 34.7107 70.656 34.8367 70.5347 34.93C70.4227 35.0233 70.2873 35.07 70.1287 35.07C69.97 35.07 69.844 35.028 69.7507 34.944C69.6573 34.8507 69.6153 34.7247 69.6247 34.566L69.6807 33.894C69.4473 34.2767 69.1347 34.5753 68.7427 34.79C68.3507 34.9953 67.912 35.098 67.4267 35.098C66.6707 35.098 66.0967 34.902 65.7047 34.51C65.3127 34.1087 65.1167 33.5253 65.1167 32.76C65.1167 32.592 65.1213 32.466 65.1307 32.382L65.4247 28.602C65.4433 28.4247 65.5087 28.2893 65.6207 28.196C65.742 28.0933 65.882 28.042 66.0407 28.042C66.2087 28.042 66.3393 28.0933 66.4327 28.196C66.5353 28.2893 66.5773 28.4247 66.5587 28.602L66.2647 32.312C66.2553 32.3773 66.2507 32.4753 66.2507 32.606C66.2507 33.6327 66.7407 34.146 67.7207 34.146C68.3273 34.146 68.8127 33.9593 69.1767 33.586C69.5407 33.2127 69.746 32.6947 69.7927 32.032L70.0727 28.602C70.0913 28.4247 70.1567 28.2893 70.2687 28.196C70.39 28.0933 70.53 28.042 70.6887 28.042ZM75.8903 35.07C75.7317 35.07 75.601 35.0233 75.4983 34.93C75.3957 34.8367 75.349 34.6967 75.3583 34.51L75.8483 28.574C75.8577 28.3967 75.9183 28.266 76.0303 28.182C76.1517 28.0887 76.2917 28.042 76.4503 28.042C76.609 28.042 76.7397 28.0887 76.8423 28.182C76.945 28.266 76.9917 28.3967 76.9823 28.574L76.4923 34.51C76.483 34.6967 76.4177 34.8367 76.2963 34.93C76.1843 35.0233 76.049 35.07 75.8903 35.07ZM76.6323 26.572C76.4083 26.572 76.2263 26.5067 76.0863 26.376C75.9463 26.2453 75.8763 26.0727 75.8763 25.858C75.8763 25.6527 75.9463 25.4847 76.0863 25.354C76.2263 25.2233 76.4083 25.158 76.6323 25.158C76.8563 25.158 77.0383 25.2233 77.1783 25.354C77.3183 25.4847 77.3883 25.6527 77.3883 25.858C77.3883 26.0727 77.3183 26.2453 77.1783 26.376C77.0383 26.5067 76.8563 26.572 76.6323 26.572ZM84.1282 35.098C83.4936 35.098 82.9336 34.9627 82.4482 34.692C81.9722 34.4213 81.6036 34.0387 81.3422 33.544C81.0902 33.0493 80.9642 32.4707 80.9642 31.808C80.9642 31.0427 81.1042 30.3753 81.3842 29.806C81.6642 29.2367 82.0656 28.798 82.5882 28.49C83.1109 28.1727 83.7269 28.014 84.4362 28.014C84.8936 28.014 85.3229 28.084 85.7242 28.224C86.1256 28.3547 86.4476 28.5227 86.6902 28.728C86.8302 28.84 86.9002 28.9847 86.9002 29.162C86.9002 29.2927 86.8582 29.414 86.7742 29.526C86.6902 29.6287 86.5876 29.68 86.4662 29.68C86.3916 29.68 86.3122 29.652 86.2282 29.596C85.6682 29.176 85.0709 28.966 84.4362 28.966C83.7082 28.966 83.1436 29.218 82.7422 29.722C82.3409 30.226 82.1402 30.926 82.1402 31.822C82.1402 32.55 82.3222 33.124 82.6862 33.544C83.0502 33.9547 83.5636 34.16 84.2262 34.16C84.5529 34.16 84.8516 34.1087 85.1222 34.006C85.3929 33.9033 85.6636 33.7493 85.9342 33.544C86.0276 33.4787 86.1162 33.446 86.2002 33.446C86.3122 33.446 86.4009 33.4927 86.4662 33.586C86.5409 33.67 86.5782 33.7727 86.5782 33.894C86.5782 34.0433 86.5176 34.174 86.3962 34.286C86.1256 34.538 85.7896 34.7387 85.3882 34.888C84.9869 35.028 84.5669 35.098 84.1282 35.098ZM95.2655 28.252C95.3681 28.1493 95.4895 28.098 95.6295 28.098C95.7601 28.098 95.8721 28.1493 95.9655 28.252C96.0681 28.3453 96.1195 28.4573 96.1195 28.588C96.1195 28.728 96.0588 28.854 95.9375 28.966L92.9975 31.486L95.8115 34.202C95.9048 34.3047 95.9515 34.4167 95.9515 34.538C95.9515 34.678 95.8955 34.804 95.7835 34.916C95.6715 35.028 95.5455 35.084 95.4055 35.084C95.2841 35.084 95.1675 35.028 95.0555 34.916L91.7235 31.752L91.4995 34.538C91.4901 34.7153 91.4295 34.8507 91.3175 34.944C91.2055 35.028 91.0701 35.07 90.9115 35.07C90.7435 35.07 90.6081 35.0187 90.5055 34.916C90.4028 34.8133 90.3561 34.6733 90.3655 34.496L91.0655 25.592C91.0748 25.424 91.1401 25.2933 91.2615 25.2C91.3828 25.1067 91.5228 25.06 91.6815 25.06C91.8495 25.06 91.9801 25.1113 92.0735 25.214C92.1668 25.3073 92.2088 25.4473 92.1995 25.634L91.7515 31.29L95.2655 28.252ZM103.127 35C102.647 35 102.263 34.856 101.975 34.568C101.711 34.256 101.591 33.86 101.615 33.38L103.379 11.06C103.403 10.604 103.559 10.256 103.847 10.016C104.135 9.752 104.495 9.62 104.927 9.62H111.875C115.691 9.62 118.631 10.64 120.695 12.68C122.759 14.72 123.791 17.588 123.791 21.284C123.791 24.14 123.287 26.6 122.279 28.664C121.271 30.704 119.795 32.276 117.851 33.38C115.907 34.46 113.567 35 110.831 35H103.127ZM110.687 32.48C113.999 32.48 116.495 31.52 118.175 29.6C119.879 27.68 120.731 24.896 120.731 21.248C120.731 15.176 117.695 12.14 111.623 12.14H106.259L104.675 32.48H110.687ZM189.228 35.252C187.596 35.252 186.156 34.904 184.908 34.208C183.684 33.512 182.736 32.528 182.064 31.256C181.416 29.984 181.092 28.496 181.092 26.792C181.092 24.824 181.452 23.108 182.172 21.644C182.892 20.18 183.924 19.052 185.268 18.26C186.612 17.444 188.196 17.036 190.02 17.036C191.196 17.036 192.3 17.216 193.332 17.576C194.364 17.912 195.192 18.344 195.816 18.872C196.176 19.16 196.356 19.532 196.356 19.988C196.356 20.324 196.248 20.636 196.032 20.924C195.816 21.188 195.552 21.32 195.24 21.32C195.048 21.32 194.844 21.248 194.628 21.104C193.188 20.024 191.652 19.484 190.02 19.484C188.148 19.484 186.696 20.132 185.664 21.428C184.632 22.724 184.116 24.524 184.116 26.828C184.116 28.7 184.584 30.176 185.52 31.256C186.456 32.312 187.776 32.84 189.48 32.84C190.32 32.84 191.088 32.708 191.784 32.444C192.48 32.18 193.176 31.784 193.872 31.256C194.112 31.088 194.34 31.004 194.556 31.004C194.844 31.004 195.072 31.124 195.24 31.364C195.432 31.58 195.528 31.844 195.528 32.156C195.528 32.54 195.372 32.876 195.06 33.164C194.364 33.812 193.5 34.328 192.468 34.712C191.436 35.072 190.356 35.252 189.228 35.252ZM209.586 28.664C209.562 28.832 209.55 29.072 209.55 29.384C209.55 30.536 209.814 31.412 210.342 32.012C210.87 32.612 211.614 32.912 212.574 32.912C212.886 32.912 213.186 32.9 213.474 32.876C213.762 32.828 213.978 32.804 214.122 32.804C214.362 32.804 214.554 32.9 214.698 33.092C214.866 33.284 214.95 33.548 214.95 33.884C214.95 34.388 214.734 34.748 214.302 34.964C213.894 35.156 213.162 35.252 212.106 35.252C210.378 35.252 209.034 34.76 208.074 33.776C207.114 32.792 206.634 31.4 206.634 29.6C206.634 29.264 206.646 29 206.67 28.808L207.354 19.772H204.978C204.594 19.772 204.294 19.676 204.078 19.484C203.886 19.268 203.79 18.992 203.79 18.656C203.79 18.272 203.898 17.984 204.114 17.792C204.354 17.576 204.678 17.468 205.086 17.468H207.534L207.858 13.364C207.906 12.956 208.062 12.632 208.326 12.392C208.614 12.128 208.974 11.996 209.406 11.996C209.862 11.996 210.21 12.128 210.45 12.392C210.714 12.656 210.822 13.004 210.774 13.436L210.45 17.468H214.41C214.77 17.468 215.058 17.576 215.274 17.792C215.49 17.984 215.598 18.248 215.598 18.584C215.598 18.968 215.49 19.268 215.274 19.484C215.058 19.676 214.746 19.772 214.338 19.772H210.27L209.586 28.664ZM231.685 35.252C230.053 35.252 228.613 34.904 227.365 34.208C226.141 33.512 225.193 32.528 224.521 31.256C223.873 29.96 223.549 28.46 223.549 26.756C223.549 24.812 223.897 23.108 224.593 21.644C225.313 20.18 226.309 19.052 227.581 18.26C228.877 17.444 230.377 17.036 232.081 17.036C233.737 17.036 235.177 17.384 236.401 18.08C237.625 18.776 238.573 19.772 239.245 21.068C239.917 22.364 240.253 23.864 240.253 25.568C240.253 27.512 239.893 29.216 239.173 30.68C238.477 32.144 237.481 33.272 236.185 34.064C234.889 34.856 233.389 35.252 231.685 35.252ZM231.721 32.84C233.473 32.84 234.829 32.18 235.789 30.86C236.773 29.54 237.265 27.74 237.265 25.46C237.265 23.54 236.809 22.064 235.897 21.032C235.009 19.976 233.737 19.448 232.081 19.448C230.329 19.448 228.961 20.12 227.977 21.464C226.993 22.808 226.501 24.608 226.501 26.864C226.501 28.808 226.945 30.296 227.833 31.328C228.721 32.336 230.017 32.84 231.721 32.84ZM260.581 17.108C260.989 17.06 261.301 17.144 261.517 17.36C261.757 17.552 261.877 17.84 261.877 18.224C261.877 19.088 261.409 19.556 260.473 19.628L259.501 19.736C257.749 19.904 256.429 20.42 255.541 21.284C254.677 22.148 254.185 23.384 254.065 24.992L253.345 33.74C253.321 34.22 253.153 34.58 252.841 34.82C252.553 35.06 252.205 35.18 251.797 35.18C251.389 35.18 251.053 35.06 250.789 34.82C250.525 34.58 250.405 34.22 250.429 33.74L251.689 18.476C251.713 18.044 251.869 17.708 252.157 17.468C252.469 17.228 252.829 17.108 253.237 17.108C253.645 17.108 253.957 17.228 254.173 17.468C254.413 17.684 254.521 18.008 254.497 18.44L254.353 20.312C254.977 19.328 255.769 18.584 256.729 18.08C257.689 17.576 258.841 17.264 260.185 17.144L260.581 17.108Z" fill="white"/>
</svg>
