<svg width="44" height="49" viewBox="0 0 44 49" fill="none" xmlns="http://www.w3.org/2000/svg">
<path d="M44 43.0955V14.7L27.5 0H5.5C2.475 0 0.0275006 2.205 0.0275006 4.9L0 44.1C0 46.795 2.4475 49 5.4725 49H38.5C39.7375 49 40.8375 48.6325 41.7725 48.02L29.59 37.1665C27.39 38.4405 24.805 39.2 22 39.2C14.41 39.2 8.25 33.712 8.25 26.95C8.25 20.188 14.41 14.7 22 14.7C29.59 14.7 35.75 20.188 35.75 26.95C35.75 29.449 34.8975 31.752 33.4675 33.6875L44 43.0955ZM13.75 26.95C13.75 31.017 17.435 34.3 22 34.3C26.565 34.3 30.25 31.017 30.25 26.95C30.25 22.883 26.565 19.6 22 19.6C17.435 19.6 13.75 22.883 13.75 26.95Z" fill="white"/>
</svg>
