<svg width="121" height="32" viewBox="0 0 121 32" fill="none" xmlns="http://www.w3.org/2000/svg">
<path d="M63.8823 1.04068C63.8988 1.01118 63.9179 1.01118 63.9408 1.04068L63.9065 1.07019L63.8823 1.04068Z" fill="#C2C2C2"/>
<path d="M34.6722 11.3462C35.0396 10.174 35.388 9.06626 35.7288 7.96787C35.7707 7.83376 35.8559 7.80291 35.9665 7.78146C37.8063 7.41935 39.6537 7.11089 41.5329 7.20879C42.859 7.27451 44.1343 7.56017 45.276 8.3112C46.8246 9.32778 47.5328 10.8593 47.6333 12.7369C47.6917 13.8165 47.5252 14.8827 47.379 15.9396C47.0751 18.0934 46.7623 20.2446 46.4686 22.3984C46.4606 22.4888 46.4297 22.5751 46.3791 22.6485C46.3286 22.7219 46.2602 22.7796 46.1813 22.8155C44.9836 23.5089 43.6842 23.8884 42.3492 24.1191C40.697 24.4211 39.0119 24.4662 37.3473 24.2532C35.9602 24.0695 34.6671 23.6148 33.6601 22.5393C33.2231 22.0673 32.8839 21.5046 32.664 20.887C32.444 20.2694 32.3482 19.6104 32.3825 18.9516C32.4168 18.2929 32.5805 17.6488 32.8633 17.0604C33.146 16.4719 33.5417 15.9518 34.025 15.5332C35.0575 14.6373 36.278 14.1921 37.5635 13.9037C39.51 13.4692 41.4744 13.5282 43.4401 13.6865C43.6854 13.7052 43.7388 13.6261 43.7503 13.3954C43.838 11.778 42.9175 10.6166 41.3015 10.3041C40.1801 10.0869 39.079 10.2746 37.9779 10.4651C36.8545 10.66 35.7486 10.9548 34.6722 11.3462ZM41.5482 16.2252C40.8484 16.2204 40.1494 16.2747 39.4579 16.3875C38.7103 16.5216 37.9843 16.7295 37.3816 17.2525C36.7002 17.844 36.5183 18.6379 36.6531 19.5123C36.7803 20.3103 37.3092 20.7475 37.9945 21.005C38.3086 21.1216 38.6354 21.1959 38.9671 21.2263C40.1928 21.351 41.3829 21.1257 42.5653 20.8172C42.6455 20.8061 42.719 20.7643 42.772 20.6998C42.825 20.6353 42.8537 20.5525 42.8526 20.4672C43.0141 19.1998 43.1743 17.9311 43.3523 16.6664C43.3828 16.4478 43.3142 16.4063 43.1413 16.3714C42.6146 16.2797 42.082 16.2308 41.5482 16.2252Z" fill="#C2C2C2"/>
<path d="M91.4344 20.1785C91.2309 20.8303 91.0529 21.4137 90.8648 21.9971C90.7147 22.4758 90.5545 22.9506 90.4121 23.4334C90.3985 23.5073 90.3644 23.5753 90.3142 23.6287C90.2639 23.6822 90.1998 23.7188 90.1299 23.7338C88.1845 24.281 86.2138 24.5774 84.2049 24.3105C81.9163 24.0061 80.0244 22.9694 78.8649 20.7552C78.1516 19.3845 77.9253 17.8919 78.0219 16.3536C78.2063 13.4272 79.362 11.0011 81.5107 9.12222C82.8165 7.97957 84.3397 7.39216 86.0155 7.21781C87.1712 7.09845 88.3206 7.12125 89.4484 7.45251C91.7446 8.12307 93.2754 10.0074 93.5691 12.5019C93.7382 13.9355 93.5691 15.3437 93.3492 16.7532C93.3225 16.9289 93.2385 16.9343 93.1114 16.9343C92.4947 16.9343 91.8768 16.9343 91.2602 16.9343C88.2935 16.9343 85.3268 16.9343 82.3601 16.9343C82.121 16.9343 82.0511 16.996 82.0473 17.2548C82.0142 19.3631 83.1178 20.7552 85.0822 21.1106C86.5342 21.3788 87.9468 21.1468 89.3568 20.8222C90.062 20.6559 90.756 20.4409 91.4344 20.1785ZM86.2469 14.1971H89.0949C89.9646 14.1971 89.9646 14.1971 89.9938 13.2797C90.0536 11.4223 88.9767 10.2112 87.2259 10.1079C85.1318 9.98322 83.1573 11.5832 82.6487 13.957C82.6067 14.1541 82.6487 14.2024 82.8394 14.2011C83.9723 14.1917 85.1026 14.1971 86.2469 14.1971Z" fill="#C2C2C2"/>
<path d="M98.7452 24.3643C96.8782 24.3512 95.0251 24.0253 93.2551 23.3987C93.0784 23.3343 93.0313 23.2807 93.0949 23.0782C93.3856 22.1492 93.6641 21.2158 93.9302 20.2779C93.9964 20.0472 94.0739 20.066 94.2494 20.1545C95.9494 21.0317 97.8694 21.3172 99.7331 20.9699C100.17 20.8997 100.585 20.7204 100.944 20.4469C101.109 20.3257 101.247 20.1669 101.347 19.9821C101.447 19.7973 101.506 19.5912 101.521 19.379C101.535 19.1669 101.504 18.954 101.43 18.7561C101.356 18.5582 101.241 18.3802 101.094 18.2354C100.77 17.9198 100.408 17.6527 100.015 17.4414C99.0427 16.8674 98.0535 16.3297 97.1292 15.6645C94.6461 13.8714 94.9487 10.139 97.3936 8.50151C98.4769 7.77597 99.6632 7.41252 100.923 7.27439C103.024 7.04506 105.054 7.42459 107.055 8.06028C107.238 8.11795 107.285 8.17026 107.216 8.37545C106.914 9.25657 106.623 10.143 106.35 11.0349C106.277 11.2696 106.191 11.2522 106.019 11.169C104.767 10.546 103.397 10.234 102.013 10.257C101.341 10.2745 100.687 10.3912 100.118 10.8096C99.8768 10.9721 99.6924 11.2138 99.5936 11.4975C99.4949 11.7812 99.4871 12.0912 99.5716 12.38C99.6811 12.7039 99.8878 12.9812 100.16 13.17C100.749 13.6367 101.423 13.9518 102.067 14.3247C102.856 14.759 103.609 15.2624 104.318 15.8294C106.413 17.5836 106.201 20.9257 104.191 22.6235C102.894 23.7166 101.376 24.1538 99.7611 24.3093C99.3555 24.3469 98.9524 24.3536 98.7452 24.3643Z" fill="#C2C2C2"/>
<path d="M112.46 24.3642C110.618 24.3454 108.79 24.0228 107.043 23.408C106.84 23.3369 106.788 23.2739 106.863 23.0486C107.151 22.1393 107.423 21.2246 107.687 20.3073C107.751 20.0847 107.814 20.0525 108.02 20.1571C109.713 21.0261 111.622 21.3122 113.477 20.9752C113.875 20.9093 114.256 20.7597 114.597 20.5353C115.44 19.968 115.543 18.9259 114.831 18.1964C114.533 17.9133 114.201 17.6721 113.844 17.4789C112.826 16.87 111.77 16.3255 110.812 15.6013C108.604 13.9182 108.879 10.8725 110.229 9.34361C111.139 8.31496 112.289 7.76242 113.564 7.46603C115.256 7.0637 116.947 7.16026 118.637 7.49017C119.349 7.62428 120.046 7.82814 120.742 8.02662C120.974 8.09502 121.058 8.16744 120.96 8.44639C120.666 9.28728 120.399 10.1376 120.14 10.9945C120.067 11.2292 119.995 11.2628 119.776 11.1622C118.541 10.5505 117.191 10.2393 115.827 10.2515C115.191 10.2636 114.577 10.3629 114.023 10.7142C113.498 11.0455 113.232 11.527 113.311 12.1895C113.36 12.6106 113.601 12.9043 113.903 13.1457C114.539 13.654 115.27 13.9893 115.962 14.3916C116.75 14.8516 117.528 15.3304 118.216 15.9486C120.144 17.6921 119.926 20.9242 117.992 22.5872C116.953 23.4817 115.748 23.9458 114.447 24.1858C113.79 24.2984 113.126 24.3581 112.46 24.3642Z" fill="#C2C2C2"/>
<path d="M62.0895 20.4162C62.0247 20.8185 61.8606 21.1793 61.7399 21.5588C61.5097 22.2817 61.2643 22.9979 61.0367 23.7221C61.02 23.7945 60.982 23.8595 60.9281 23.9076C60.8742 23.9558 60.8072 23.9848 60.7367 23.9903C59.211 24.2585 57.6687 24.4288 56.1188 24.3055C53.8061 24.1217 51.8226 23.2326 50.4596 21.1538C49.4984 19.6893 49.1589 18.025 49.2441 16.2721C49.3865 13.3485 50.5613 10.9559 52.7266 9.12396C53.9675 8.0752 55.4271 7.56021 56.9821 7.34563C58.9069 7.05786 60.867 7.18146 62.7456 7.70907C63.1041 7.81234 63.4499 7.95718 63.8021 8.07788C63.9293 8.1208 63.9623 8.17847 63.9153 8.32465C63.6152 9.25002 63.3177 10.1781 63.0367 11.1102C62.9744 11.3154 62.8867 11.2738 62.7608 11.2215C61.8631 10.8332 60.9124 10.5982 59.9446 10.5254C57.8505 10.4007 56.0298 11.0082 54.7228 12.8469C53.4984 14.5703 53.3089 17.4322 54.6198 19.1623C55.4348 20.2352 56.5104 20.8038 57.7869 20.9607C59.1639 21.1297 60.4951 20.8494 61.8098 20.4511C61.8937 20.4256 61.9789 20.4082 62.0641 20.3867L62.0895 20.4162Z" fill="#C2C2C2"/>
<path d="M76.584 20.3972C76.2915 21.285 75.9559 22.1634 75.7156 23.07C75.5414 23.7312 75.2477 24.0451 74.5636 24.1175C72.6565 24.3186 70.7493 24.544 68.8422 24.0115C65.8428 23.1706 63.8835 20.6466 63.7208 17.3662C63.5428 13.8015 64.8371 10.9529 67.5593 8.84601C68.7036 7.96221 70.0386 7.54377 71.4321 7.35199C73.3564 7.06517 75.3158 7.1883 77.1942 7.7141C77.5426 7.81468 77.877 7.96489 78.2241 8.07084C78.4059 8.12716 78.411 8.21433 78.3513 8.38198C78.0601 9.27919 77.7715 10.1764 77.5007 11.0803C77.4358 11.2963 77.3583 11.2882 77.1917 11.2212C75.8592 10.6847 74.4963 10.3937 73.0583 10.5506C70.6158 10.8269 68.757 12.5301 68.2878 15.0367C67.9496 16.8459 68.2598 18.5008 69.6266 19.7816C70.7163 20.8009 72.0424 21.0852 73.4549 20.998C74.4515 20.9288 75.4362 20.7306 76.3869 20.4079C76.4441 20.3972 76.495 20.3476 76.584 20.3972Z" fill="#C2C2C2"/>
<path d="M28.1471 16.7064L12.3088 0V2.56424L25.7161 16.7064L25.7212 16.7118L14.1079 28.9616L14.0939 28.9469L2.48821 16.7064L2.47804 16.6957L8.17536 10.6861H5.70241L0 16.701L0.00508588 16.7064L14.0888 31.5621L14.0939 31.5567L28.1599 16.7198L28.1471 16.7064Z" fill="#C2C2C2"/>
<path d="M12.3038 4.3291V6.89334L21.612 16.7117L14.113 24.6217L6.60771 16.7063L6.59754 16.6956L12.2949 10.686H9.82191L4.11951 16.701L4.12459 16.7063L12.8708 25.9319L14.094 27.2221L15.3374 25.9118L24.0506 16.7198L12.3038 4.3291Z" fill="#C2C2C2"/>
<path d="M19.9451 16.7066L15.3005 11.8021L14.0647 10.4985L12.8492 11.7807L8.18048 16.7012L12.8517 21.6285L14.0749 22.9187L15.3158 21.6084L19.9578 16.72L19.9451 16.7066ZM14.0965 20.3277L10.6636 16.7066L10.6534 16.6959L14.0774 13.0842L17.5103 16.7053L14.0965 20.3277Z" fill="#C2C2C2"/>
</svg>
