<svg width="138" height="42" viewBox="0 0 138 42" fill="none" xmlns="http://www.w3.org/2000/svg">
<path fill-rule="evenodd" clip-rule="evenodd" d="M19.6061 0.108936C19.4146 0.222694 18.9245 0.720877 18.5713 1.16093C18.0591 1.79891 17.8925 2.00253 17.7439 2.17263C17.658 2.2707 17.4086 2.57846 17.1892 2.85625C16.9699 3.13405 16.6956 3.46855 16.5801 3.59907C16.4642 3.72995 16.2673 3.97066 16.142 4.13399C16.0165 4.29767 15.8458 4.50629 15.7623 4.59794C15.6792 4.68923 15.6109 4.77624 15.6109 4.79086C15.6109 4.80548 15.5653 4.86504 15.5102 4.92316C15.455 4.98129 15.2932 5.17315 15.1507 5.34931C15.0086 5.52548 14.8469 5.71876 14.7917 5.77867C14.7362 5.83858 14.691 5.89813 14.691 5.91133C14.691 5.92452 14.614 6.02509 14.5202 6.13492L14.3492 6.33462L13.4996 6.25795C13.0326 6.21587 12.191 6.14205 11.6298 6.09391C11.0686 6.04577 10.1501 5.9666 9.58891 5.9181C6.56362 5.65707 6.5919 5.65742 6.13591 5.89992C5.94103 6.00369 5.83549 6.11281 5.73512 6.3143C5.50057 6.78573 5.50023 6.75649 5.75271 9.88431C5.79962 10.4645 5.87619 11.4142 5.9231 11.9944C5.96966 12.5746 6.04175 13.4443 6.08314 13.9276C6.1573 14.7884 6.15661 14.807 6.04141 14.889C5.97691 14.9346 5.83101 15.0612 5.71718 15.1696C5.50368 15.374 5.44883 15.4221 4.91731 15.8721C4.74382 16.0191 4.49858 16.237 4.37199 16.3564C4.24575 16.4759 4.01293 16.6799 3.85461 16.8093C3.69664 16.9388 3.49486 17.1153 3.40622 17.2016C3.31757 17.2879 3.22065 17.3585 3.19064 17.3585C3.16063 17.3585 3.1358 17.3785 3.1358 17.4031C3.13545 17.4273 2.92885 17.6213 2.67637 17.8339C2.42388 18.0464 2.21693 18.2404 2.21693 18.2646C2.21659 18.2892 2.17968 18.3092 2.13484 18.3092C2.09 18.3092 2.04482 18.3335 2.03447 18.3634C2.02378 18.393 1.82165 18.5845 1.58538 18.7885C1.34877 18.9928 1.12561 19.1893 1.0887 19.225C1.05214 19.2606 0.849669 19.4479 0.638923 19.6408C-0.205786 20.4132 -0.21303 21.2095 0.617883 21.9809C0.749297 22.1028 0.897268 22.2448 0.947282 22.2965C0.99695 22.3482 1.25771 22.575 1.5264 22.8007C1.79509 23.0261 2.02792 23.2261 2.04378 23.245C2.05965 23.2639 2.34421 23.515 2.67637 23.8028C3.00818 24.0906 3.2886 24.3495 3.29895 24.3783C3.30964 24.4076 3.35275 24.4311 3.39483 24.4311C3.43691 24.4311 3.48003 24.4547 3.49072 24.4839C3.50107 24.5128 3.70388 24.7022 3.94084 24.9047C4.17815 25.1073 4.52479 25.4111 4.71139 25.5801C4.898 25.7492 5.12012 25.9407 5.20497 26.0063C5.28982 26.0715 5.53989 26.2919 5.7603 26.4959L6.16109 26.8668L6.08866 27.5062C6.04865 27.8581 6.01554 28.2929 6.01485 28.4726C6.01416 28.6523 5.97449 29.214 5.92655 29.7207C5.8786 30.2275 5.80134 31.1236 5.75443 31.712C5.70787 32.3004 5.64268 33.116 5.60957 33.5247C5.43952 35.6301 5.79306 36.0555 7.5832 35.9004C7.96709 35.8672 8.74696 35.8002 9.31608 35.7513C10.2746 35.669 12.0954 35.5063 13.6414 35.3651C14.2712 35.3077 14.5185 35.3459 14.5185 35.5003C14.5185 35.5252 14.5637 35.5941 14.6192 35.6533C14.6744 35.7125 14.8362 35.9043 14.9783 36.0791C15.1207 36.2542 15.2887 36.4574 15.3522 36.5305C15.5081 36.7106 15.8226 37.1011 16.1872 37.5661C16.3538 37.7787 16.5204 37.9794 16.558 38.0119C16.5956 38.0447 16.8036 38.299 17.0209 38.5768C17.3886 39.0471 17.5786 39.2778 17.798 39.5189C17.8466 39.5728 18.0019 39.7639 18.1426 39.9436C18.4361 40.3188 18.3978 40.2728 18.8876 40.8394C19.6909 41.7695 20.7153 41.9214 21.191 41.1811C21.2293 41.1215 21.618 40.6487 21.7877 40.4547C21.8525 40.3805 22.0219 40.1769 22.1643 40.0018C22.3065 39.827 22.4682 39.6352 22.5234 39.576C22.5789 39.5168 22.6241 39.4547 22.6241 39.4383C22.6241 39.4219 22.6693 39.3602 22.7248 39.301C22.78 39.2418 22.9418 39.0496 23.0839 38.8745C23.2264 38.6991 23.3881 38.5143 23.4433 38.4637C23.4985 38.4134 23.544 38.3378 23.544 38.2961C23.544 38.254 23.5633 38.2198 23.5871 38.2198C23.6106 38.2198 23.7596 38.0536 23.9176 37.8507C24.0756 37.6481 24.2697 37.4117 24.3487 37.3254C24.496 37.1646 24.536 37.1157 24.981 36.5548C25.1231 36.3758 25.3114 36.1486 25.3997 36.0505C25.488 35.9525 25.6563 35.7428 25.7736 35.5844L25.9871 35.2963L26.2744 35.3316C26.4327 35.3509 26.7818 35.3815 27.0505 35.3994C27.3192 35.4168 28.0694 35.4825 28.7178 35.5449C29.3659 35.6073 30.4007 35.7007 31.0171 35.7524C31.6338 35.8045 32.4364 35.8737 32.8006 35.9065C34.6981 36.0769 34.9536 35.6137 34.6725 32.5144C34.6236 31.9748 34.5439 31.0387 34.4956 30.4339C34.4473 29.8291 34.3542 28.7764 34.2886 28.0942C34.2231 27.412 34.191 26.8354 34.2172 26.8126C34.2438 26.7897 34.4073 26.6524 34.5808 26.5077C34.7543 26.3625 34.9485 26.1889 35.0119 26.1215C35.0754 26.0541 35.3086 25.8504 35.53 25.6686C35.7511 25.4867 35.9981 25.2742 36.0788 25.1964C36.1591 25.1187 36.3661 24.935 36.5385 24.7881C36.711 24.6412 36.8811 24.4939 36.9166 24.4611C36.9521 24.4283 37.1049 24.2945 37.2563 24.1637C37.4074 24.0328 37.5595 23.8991 37.594 23.8663C37.6285 23.8335 37.7992 23.6876 37.9731 23.5421C38.1469 23.3966 38.3308 23.2361 38.3815 23.1858C38.5415 23.0268 38.7957 22.8053 39.1227 22.5407C40.759 21.217 40.7711 20.5138 39.1803 19.1487C38.9433 18.945 38.6846 18.7186 38.6053 18.6448C38.5263 18.5713 38.2428 18.3253 37.9755 18.0981C37.7082 17.8709 37.4236 17.6217 37.3432 17.5439C37.2629 17.4662 37.029 17.2622 36.8235 17.091C36.6179 16.9195 36.3837 16.7155 36.3033 16.6378C36.1757 16.5148 35.8987 16.2733 35.3917 15.8429C35.3144 15.7773 35.2041 15.6771 35.1465 15.62C35.0885 15.5626 35.0299 15.5159 35.0161 15.5159C35.0023 15.5159 34.8795 15.4121 34.7432 15.2855C34.6067 15.1586 34.4214 14.9906 34.3311 14.9118L34.1669 14.7684L34.2855 13.582C34.3504 12.9294 34.4445 11.8606 34.4946 11.207C34.5446 10.553 34.6253 9.59011 34.6739 9.06732C34.9671 5.91989 34.7288 5.55615 32.512 5.76619C32.1798 5.79757 31.4037 5.86497 30.7873 5.91596C29.6746 6.00761 28.4957 6.11103 26.8604 6.26045L26.0095 6.33819L25.7412 6.00868C25.5935 5.82753 25.4159 5.61249 25.3466 5.53083C25.2769 5.44916 25.1127 5.24839 24.981 5.08506C24.6661 4.69386 24.277 4.21993 24.2049 4.13898C24.1732 4.10367 24.0307 3.92787 23.8886 3.74885C23.7465 3.56947 23.5785 3.35765 23.5151 3.27777C23.4519 3.19824 23.3612 3.08912 23.314 3.03563C23.2664 2.98178 23.0863 2.76568 22.9132 2.55528C22.7404 2.34488 22.5413 2.10595 22.4713 2.02429C22.4013 1.94262 22.1844 1.67516 21.9891 1.42982C21.7936 1.18483 21.6108 0.97514 21.5828 0.964085C21.5549 0.953387 21.5318 0.921649 21.5318 0.893833C21.5318 0.812169 20.9882 0.259068 20.7774 0.126053C20.5232 -0.0340648 19.863 -0.0436932 19.6061 0.108936ZM20.5612 5.69415C20.7554 5.9477 20.9368 6.16381 20.9644 6.17486C20.992 6.18556 21.0144 6.21908 21.0144 6.24904C21.0144 6.27899 21.0599 6.35245 21.1151 6.41236C21.3576 6.67483 21.5894 6.97295 21.5894 7.02252C21.5894 7.05212 21.6104 7.07601 21.6359 7.07601C21.6615 7.07601 21.8087 7.25432 21.9633 7.47185C22.5317 8.27244 22.6703 8.36587 22.9477 8.13728C22.9835 8.10769 23.2553 7.95434 23.5513 7.79637C23.8476 7.63839 24.2321 7.42193 24.4056 7.3153C24.5795 7.20903 24.7733 7.09777 24.8368 7.06853C24.9003 7.03928 25.1593 6.89664 25.4121 6.75186C25.6653 6.60707 25.8874 6.4869 25.906 6.48511C25.9388 6.4819 25.9981 6.66128 26.1692 7.28427C26.34 7.90549 26.4369 8.24569 26.5335 8.56201C26.5883 8.74174 26.6718 9.02275 26.7187 9.18607C26.7659 9.3494 26.8508 9.63576 26.9073 9.82262L27.0101 10.1618L27.4758 10.1304C27.732 10.1129 28.2122 10.0598 28.5433 10.0123C28.8741 9.96455 29.456 9.90001 29.8368 9.86827C30.2172 9.83689 30.6018 9.79481 30.6911 9.77519L30.8536 9.73917L30.8187 10.2352C30.787 10.686 30.7522 11.049 30.5597 12.9305C30.469 13.8134 30.4479 13.7468 30.8591 13.8733C31.0567 13.934 31.3606 14.031 31.5344 14.088C31.9128 14.2128 32.2715 14.3223 33.1156 14.5712C33.4632 14.6736 33.8185 14.7838 33.9047 14.8166L34.0617 14.8758L33.8237 15.3294C33.693 15.579 33.5008 15.9438 33.3974 16.14C33.2935 16.3361 33.1418 16.6303 33.0593 16.7936C32.9772 16.9573 32.8514 17.198 32.78 17.3285C32.7086 17.4594 32.5651 17.7262 32.4609 17.9216L32.2715 18.2768L32.4347 18.418C32.5247 18.4957 32.653 18.607 32.7203 18.6655C32.7875 18.7236 33.0193 18.9147 33.2356 19.0902C33.4515 19.2653 33.694 19.4721 33.7744 19.5491C33.8547 19.6262 34.0303 19.771 34.1645 19.8712C34.299 19.9714 34.409 20.0751 34.409 20.1026C34.409 20.1297 34.4476 20.1518 34.4952 20.1518C34.5425 20.1518 34.5815 20.1732 34.5815 20.1996C34.5815 20.226 34.7357 20.3661 34.924 20.5116C35.3375 20.8304 35.3324 20.7923 34.9974 21.0562C34.8471 21.1749 34.6594 21.3293 34.5808 21.3992C34.2593 21.6842 34.1903 21.743 33.7764 22.0843C33.5395 22.2801 33.3194 22.4694 33.288 22.5051C33.2563 22.5411 33.0673 22.6973 32.8679 22.8528C32.2381 23.3442 32.2502 23.3146 32.4923 23.7721C32.6065 23.9875 32.7675 24.2974 32.8503 24.4607C32.9328 24.6244 33.0148 24.7713 33.0324 24.7877C33.05 24.8041 33.1162 24.9243 33.1794 25.0552C33.3984 25.5081 33.9068 26.482 33.9851 26.599C34.1013 26.7716 34.0858 26.799 33.8485 26.8436C33.7299 26.8657 33.5422 26.9174 33.4315 26.9588C33.3211 26.9998 33.0235 27.0914 32.7706 27.1624C32.5175 27.2334 32.2201 27.3272 32.1094 27.3707C31.9987 27.4142 31.74 27.4958 31.5344 27.5522C31.3289 27.6085 31.0633 27.6916 30.9443 27.7365C30.8249 27.7818 30.6763 27.8189 30.6135 27.8189C30.4793 27.8189 30.4752 27.8813 30.5556 28.6694C30.7025 30.108 30.7867 30.9799 30.8198 31.4089L30.856 31.8786L30.5487 31.8379C30.3797 31.8154 29.9564 31.7726 29.6088 31.743C29.2611 31.7131 28.7823 31.6621 28.5454 31.6296C28.3081 31.5972 27.8652 31.5533 27.561 31.5323L27.0077 31.4938L26.9367 31.6921C26.8973 31.8012 26.8449 31.9838 26.8201 32.0982C26.7949 32.2127 26.7476 32.3864 26.7149 32.4844C26.6818 32.5825 26.5621 32.9837 26.4483 33.376C26.3348 33.7682 26.2068 34.2097 26.164 34.3566C26.1213 34.5039 26.0561 34.7393 26.0192 34.8798C25.9412 35.1761 25.9088 35.1758 25.3835 34.8716C25.2096 34.7707 24.9768 34.6387 24.8661 34.5777C24.7554 34.5171 24.4839 34.3641 24.2625 34.2386C24.0411 34.1127 23.6661 33.9073 23.4288 33.7821C23.1919 33.657 22.9842 33.5361 22.968 33.5136C22.7621 33.2323 22.6165 33.3186 22.0454 34.0596C21.7808 34.4026 21.5494 34.6968 21.5307 34.7132C21.5125 34.7297 21.3434 34.9429 21.1551 35.1868C20.9671 35.4307 20.7743 35.6722 20.7271 35.7235C20.6795 35.7749 20.5501 35.9421 20.4397 36.0955C20.1659 36.4742 20.1828 36.481 19.6637 35.7831C19.5054 35.5709 19.3374 35.3562 19.2898 35.3066C19.2425 35.2571 19.0614 35.0296 18.888 34.8013C18.7141 34.5731 18.533 34.3413 18.4854 34.286C18.4378 34.2308 18.2695 34.0122 18.1115 33.8C17.9532 33.5878 17.7904 33.3995 17.7494 33.3813C17.6856 33.3528 17.1316 33.6045 17.0478 33.7001C17.0323 33.7179 16.8767 33.81 16.7029 33.9045C16.529 33.999 16.1927 34.1844 15.9558 34.3167C15.7185 34.4494 15.4212 34.6113 15.2946 34.6765C15.168 34.7421 15.0518 34.8106 15.0359 34.8288C15.02 34.847 14.8717 34.9336 14.7065 35.0217L14.4061 35.1811L14.3402 34.9326C14.3036 34.7956 14.2419 34.5767 14.2026 34.4458C14.1232 34.183 14.0318 33.8606 13.7721 32.9302C13.6762 32.5871 13.5614 32.186 13.5169 32.0387C13.4724 31.8918 13.4196 31.6953 13.3999 31.6025C13.3758 31.4888 13.3372 31.4442 13.2823 31.466C13.2371 31.4838 12.9991 31.5141 12.7529 31.533C12.5066 31.5523 11.9689 31.6054 11.5581 31.6518C10.1784 31.8069 9.50854 31.8714 9.48923 31.8511C9.47853 31.84 9.50751 31.4831 9.55338 31.058C9.89106 27.9444 9.89899 27.8189 9.75964 27.8189C9.70066 27.8189 9.53821 27.7818 9.39817 27.7369C9.25813 27.6916 8.9884 27.6071 8.7987 27.5486C8.60899 27.4905 8.31133 27.3963 8.13749 27.3396C7.96365 27.2833 7.66598 27.1902 7.47627 27.1328C7.28657 27.0757 7.03409 26.9927 6.91474 26.9484C6.7954 26.9042 6.65157 26.8678 6.595 26.8678C6.38598 26.8678 6.29078 26.7363 6.38012 26.5708C6.42427 26.4891 6.52912 26.2883 6.61328 26.125C6.6971 25.9617 6.82472 25.721 6.89681 25.5901C6.96855 25.4592 7.14446 25.1251 7.2876 24.8473C7.7767 23.8973 7.84982 23.76 7.90294 23.694C8.08885 23.4626 8.04091 23.3217 7.66805 23.0047C7.46765 22.8346 7.23931 22.6381 7.16033 22.5682C7.08134 22.4979 6.83541 22.2954 6.61397 22.1178C6.39288 21.9399 6.17799 21.7598 6.1366 21.717C6.09521 21.6745 5.90137 21.5137 5.70545 21.36C5.1422 20.9175 5.04666 20.808 5.1522 20.7256C5.49091 20.461 5.99208 20.0562 6.04417 20.0052C6.07831 19.9714 6.21835 19.8501 6.35528 19.7357C6.49222 19.6212 6.63225 19.5006 6.66675 19.4675C6.70089 19.4343 6.84542 19.3141 6.98787 19.2004C7.12997 19.087 7.2983 18.9443 7.36142 18.8841C7.42454 18.8234 7.58596 18.6922 7.71979 18.5916C8.04194 18.3506 8.05884 18.2611 7.855 17.8841C7.76049 17.7094 7.61769 17.4327 7.53732 17.2693C7.4573 17.1057 7.26139 16.7312 7.10204 16.437C6.94303 16.1428 6.77298 15.8219 6.72469 15.7238C6.67606 15.6257 6.56189 15.4 6.47083 15.2217C6.28251 14.8533 6.28664 14.8262 6.54292 14.7738C6.64536 14.7527 6.84542 14.6975 6.98787 14.6508C7.12997 14.604 7.51801 14.4849 7.85017 14.3862C8.18198 14.2877 8.60899 14.1561 8.7987 14.0941C8.9884 14.032 9.30573 13.9318 9.50406 13.8719L9.86485 13.7624L9.83277 13.3466C9.79379 12.846 9.65686 11.4737 9.54786 10.4941C9.50406 10.1022 9.47267 9.77733 9.47853 9.77234C9.49337 9.75843 10.454 9.85828 11.5581 9.98773C12.0954 10.0512 12.7222 10.1172 12.9508 10.135L13.3665 10.1675L13.4017 10.0038C13.4213 9.91356 13.4703 9.73275 13.5106 9.60224C13.551 9.47136 13.6252 9.2171 13.6755 9.03737C13.8459 8.42792 14.1212 7.46365 14.2015 7.19512C14.2453 7.04784 14.2978 6.84101 14.3181 6.7351C14.3698 6.46479 14.414 6.45658 14.7593 6.65415C14.9272 6.75043 15.2587 6.93016 15.4957 7.05391C15.733 7.17765 15.9627 7.30674 16.0065 7.34098C16.1055 7.41836 16.974 7.90763 17.3796 8.11482C17.7345 8.29598 17.758 8.28742 18.0905 7.84879C18.2267 7.66906 18.3713 7.50038 18.4116 7.47435C18.452 7.44832 18.4851 7.38805 18.4851 7.34062C18.4851 7.29319 18.5058 7.25432 18.5306 7.25432C18.5558 7.25432 18.6703 7.12737 18.7848 6.97224C18.8993 6.81676 19.0601 6.60957 19.1422 6.5115C19.2243 6.41343 19.4788 6.08749 19.7075 5.78723C20.21 5.1275 20.1335 5.13606 20.5612 5.69415ZM95.4868 9.2902C95.3767 9.42001 95.3729 9.53912 95.3578 13.3028L95.3422 17.182L95.0418 16.9495C94.7238 16.7038 93.996 16.3258 93.7063 16.2566C93.6114 16.2337 93.4176 16.1806 93.2751 16.1382C92.6598 15.9552 91.6916 15.8572 90.7948 15.8871C89.8166 15.9199 89.312 16.0105 88.4752 16.3036C87.6281 16.6003 86.4412 17.4437 86.0222 18.0471C85.9218 18.1915 85.8187 18.3092 85.7921 18.3092C85.7659 18.3092 85.7445 18.3495 85.7445 18.3984C85.7445 18.4476 85.7252 18.4879 85.7014 18.4879C85.6614 18.4882 85.552 18.6576 85.3554 19.0224C85.2361 19.2442 84.8443 20.2192 84.806 20.3897C84.7873 20.4713 84.7197 20.7388 84.6552 20.9838C84.2075 22.6887 84.2544 26.2045 84.7446 27.6723C84.7887 27.8043 84.8256 27.9512 84.8267 27.9994C84.8277 28.0471 84.8788 28.1934 84.9398 28.3242C85.0009 28.4548 85.0516 28.5813 85.0526 28.6052C85.0591 28.7479 85.6324 29.8388 85.7014 29.8395C85.7252 29.8395 85.7445 29.8705 85.7445 29.9079C85.7445 30.3576 87.9178 32.0982 88.479 32.0982C88.5284 32.0982 88.6149 32.1236 88.6708 32.1546C89.2216 32.4595 91.4164 32.5597 92.6143 32.335C93.7784 32.1164 94.3116 31.9035 94.9504 31.4021L95.3322 31.1022L95.355 31.4667C95.395 32.1086 95.3698 32.0982 96.9096 32.0982C98.1423 32.0982 98.2258 32.0911 98.3341 31.9795C98.4482 31.8614 98.4489 31.7812 98.4489 20.5084V9.15647H97.0248C95.6196 9.15647 95.5989 9.15826 95.4868 9.2902ZM116.728 9.33621C116.541 9.5302 116.581 28.9825 116.771 29.6383C117.33 31.5772 118.461 32.2765 121.037 32.2765C122.379 32.2765 122.273 32.3992 122.293 30.8291C122.313 29.2528 122.362 29.3441 121.471 29.3024C120.676 29.265 120.361 29.178 120.098 28.9226C119.691 28.5268 119.719 29.2867 119.719 18.7243V9.21567H118.282C116.915 9.21567 116.839 9.22173 116.728 9.33621ZM57.3069 10.0366C57.0492 10.145 56.6564 10.4717 56.6564 10.5776C56.6564 10.6132 56.6336 10.6421 56.6057 10.6421C56.5418 10.6421 56.2573 11.2519 55.9955 11.9498C55.9403 12.0967 55.8737 12.2707 55.8475 12.336C55.8217 12.4016 55.7444 12.602 55.6761 12.7818C55.6078 12.9615 55.5302 13.1623 55.5036 13.2275C55.4771 13.2931 55.3991 13.4936 55.3308 13.6733C55.2625 13.853 55.1159 14.2275 55.0045 14.5056C54.8935 14.7834 54.7814 15.0641 54.7552 15.1297C54.7293 15.1949 54.652 15.3957 54.5837 15.5754C54.5158 15.7552 54.4382 15.9556 54.4113 16.0212C54.3847 16.0865 54.3078 16.2872 54.2405 16.467C54.1733 16.6467 54.085 16.8739 54.0443 16.9719C53.9781 17.1317 53.789 17.6024 53.6624 17.923C53.6366 17.9883 53.5593 18.189 53.4907 18.3688C53.422 18.5485 53.3299 18.7799 53.2865 18.883C53.2427 18.9861 53.2072 19.0973 53.2072 19.1308C53.2072 19.164 53.1689 19.2671 53.1223 19.3594C53.0381 19.5263 52.9916 19.6404 52.7508 20.2706C52.6822 20.4503 52.6029 20.6511 52.5749 20.7163C52.5059 20.8768 52.1296 21.8336 51.9906 22.2023C51.9292 22.3656 51.8571 22.5529 51.8313 22.6185C51.8051 22.6837 51.7395 22.8574 51.6854 23.0047C51.6312 23.1516 51.5533 23.3524 51.5126 23.4505C51.3722 23.7864 51.0331 24.639 50.91 24.966C50.842 25.1458 50.7651 25.3465 50.7389 25.4118C50.7127 25.4771 50.6461 25.6511 50.5909 25.798C50.5357 25.9453 50.4571 26.1457 50.4164 26.2438C50.2981 26.5273 49.9525 27.4024 49.8176 27.7594C49.7497 27.9391 49.6728 28.1399 49.6465 28.2051C49.6207 28.2707 49.5541 28.4444 49.4989 28.5917C49.4437 28.7386 49.3654 28.9394 49.3247 29.0375C49.2844 29.1355 49.2068 29.3359 49.1526 29.4832C49.0985 29.6301 49.0084 29.8577 48.9526 29.9882C48.8967 30.119 48.7677 30.44 48.6659 30.7014C48.5645 30.9631 48.4417 31.2762 48.3935 31.3971C48.3452 31.5184 48.3024 31.7192 48.2986 31.8429L48.292 32.0686L49.7004 32.0854C50.475 32.0943 51.1625 32.0882 51.2283 32.0718C51.368 32.0365 51.4712 31.8311 51.9158 30.7014C52.0317 30.4072 52.1483 30.113 52.1752 30.0477C52.2017 29.9825 52.2793 29.7817 52.3476 29.602C52.4159 29.4222 52.4935 29.2215 52.5204 29.1562C52.5477 29.0909 52.6367 28.8634 52.7184 28.6509C52.8001 28.4383 52.8905 28.2112 52.9185 28.1459C53.1447 27.6221 53.3796 27.0116 53.3796 26.9463C53.3796 26.881 54.1543 26.87 57.8098 26.8825L62.2396 26.8978L62.3172 27.0461C62.3596 27.1282 62.4896 27.4356 62.6062 27.7298C62.7228 28.024 62.8515 28.3449 62.8918 28.443C62.9322 28.5411 63.0105 28.7415 63.0657 28.8887C63.2281 29.3217 63.2512 29.3809 63.3692 29.6615C63.4313 29.8084 63.5396 30.0759 63.6103 30.2556C63.6813 30.4354 63.7721 30.6629 63.8121 30.7609C63.8521 30.859 63.9704 31.1532 64.0749 31.4146C64.3739 32.1642 64.2029 32.1025 65.9357 32.0843C67.7407 32.0654 67.6738 32.1496 67.0333 30.7014C66.9898 30.6033 66.8622 30.2795 66.7494 29.9818C66.6366 29.6836 66.4911 29.3092 66.4255 29.1494C66.2734 28.7778 66.2348 28.6798 66.1123 28.3538C66.0572 28.2066 65.9789 28.0061 65.9385 27.9081C65.8978 27.81 65.8205 27.6092 65.7664 27.4623C65.7122 27.315 65.6464 27.1414 65.6198 27.0761C65.5936 27.0105 65.5036 26.7833 65.4201 26.5708C65.3366 26.3582 65.2356 26.1043 65.1952 26.0063C65.1552 25.9082 65.0769 25.7074 65.021 25.5605C64.9655 25.4132 64.8868 25.2128 64.8461 25.1147C64.8058 25.0167 64.7282 24.8159 64.674 24.669C64.6199 24.5217 64.5543 24.348 64.5281 24.2824C64.5023 24.2172 64.3867 23.923 64.2715 23.6288C64.0083 22.9573 63.8469 22.55 63.7534 22.3211C63.7131 22.223 63.6358 22.0226 63.5813 21.8753C63.5272 21.7284 63.4471 21.5212 63.4037 21.4149C63.3602 21.3087 63.2892 21.1346 63.2457 21.0284C63.2022 20.9221 63.1219 20.7149 63.067 20.568C62.9511 20.2559 62.7773 19.817 62.6204 19.4386C62.4962 19.1387 62.461 19.0481 62.3203 18.6658C62.2661 18.5189 62.1885 18.3181 62.1482 18.2201C62.1075 18.122 62.0354 17.9348 61.9878 17.8043C61.8981 17.5589 61.5332 16.6335 61.4014 16.3183C61.3607 16.2202 61.2828 16.0198 61.2283 15.8725C61.1741 15.7252 61.0965 15.5248 61.0558 15.4267C61.0155 15.3287 60.9365 15.1279 60.8809 14.981C60.8254 14.8337 60.7475 14.6333 60.7081 14.5352C60.6688 14.4371 60.5664 14.1715 60.4801 13.945C60.3939 13.7186 60.3029 13.4911 60.278 13.4397C60.2528 13.3884 60.1876 13.2261 60.1328 13.0792C60.0783 12.9319 60.0004 12.7315 59.9597 12.6334C59.9193 12.5353 59.8417 12.3346 59.7875 12.1877C59.7334 12.0404 59.6675 11.8667 59.6413 11.8011C59.6147 11.7358 59.5247 11.509 59.4405 11.2972C58.9949 10.1725 58.1592 9.67855 57.3069 10.0366ZM57.9984 15.9766C58.0567 16.1318 58.1392 16.3389 58.1816 16.437C58.2244 16.5351 58.3789 16.9231 58.5255 17.2989C58.6724 17.6748 58.8956 18.2365 59.0218 18.5471C59.3126 19.2631 59.3067 19.2478 59.5568 19.8844C59.8538 20.6404 60.2035 21.5148 60.3708 21.9199C60.5595 22.3774 60.614 22.5144 60.7078 22.7668C60.7623 22.9141 60.8333 23.086 60.8658 23.1491C60.8978 23.2122 60.9444 23.3328 60.9689 23.4166C60.9934 23.5007 61.0317 23.6163 61.0541 23.6733C61.0927 23.7718 60.9185 23.7775 57.8694 23.7775C54.4058 23.7775 54.5413 23.7896 54.6996 23.4943C54.73 23.4376 54.8493 23.1502 54.9649 22.856C55.0804 22.5618 55.2987 22.0137 55.4502 21.6378C55.6016 21.2616 55.8199 20.7135 55.9355 20.4193C56.051 20.1251 56.1666 19.8309 56.1928 19.7656C56.2187 19.7 56.2856 19.5263 56.3408 19.379C56.3963 19.2321 56.4942 18.9914 56.5587 18.8441C56.6232 18.6972 56.696 18.5232 56.7205 18.4579C56.7912 18.2682 57.1782 17.2879 57.2658 17.0761C57.439 16.6585 57.508 16.4862 57.6045 16.2291C57.8418 15.5961 57.8525 15.5894 57.9984 15.9766ZM129.176 15.8486C128.435 15.9074 127.152 16.2337 126.474 16.5361C125.977 16.7576 125.402 17.0547 125.353 17.1149C125.337 17.1345 125.256 17.187 125.173 17.2312C124.935 17.3574 124.62 17.6712 124.576 17.8249C124.537 17.9619 124.689 18.4868 124.768 18.4882C124.789 18.4886 124.858 18.6023 124.921 18.7411C124.984 18.8794 125.051 19.0064 125.071 19.0224C125.09 19.0388 125.215 19.2578 125.348 19.5088C125.693 20.1632 125.835 20.1836 126.578 19.6861C126.967 19.425 127.103 19.3509 127.595 19.1312C128.351 18.7928 129.035 18.6697 130.153 18.6705C130.659 18.6708 131.176 18.694 131.303 18.7218C131.429 18.75 131.668 18.8013 131.833 18.8363C133.102 19.1052 133.914 20.2096 133.85 21.5783L133.832 21.9645L131.13 21.9994C127.828 22.0422 127.381 22.1132 125.995 22.8196C123.145 24.271 122.715 28.9904 125.23 31.2163C125.408 31.374 125.572 31.503 125.594 31.5034C125.616 31.5038 125.749 31.584 125.89 31.6821C126.03 31.7801 126.165 31.8604 126.188 31.8604C126.212 31.8604 126.337 31.9107 126.467 31.9716C127.836 32.616 130.479 32.6364 131.935 32.0137C132.49 31.7762 133.286 31.2962 133.286 31.1985C133.286 31.1703 133.314 31.1472 133.348 31.1472C133.382 31.1472 133.502 31.0402 133.616 30.9097C133.84 30.6508 133.918 30.6158 133.918 30.7741C133.918 31.9374 134.562 32.2794 136.75 32.2776L138 32.2765V31.0655C138 29.6758 138.021 29.7314 137.483 29.6658C136.862 29.5902 136.913 29.99 136.889 24.9364C136.865 20.1967 136.841 19.8701 136.432 18.7849C135.585 16.5379 133.11 15.5362 129.176 15.8486ZM106.785 15.9007C106.737 15.9128 106.491 15.9527 106.239 15.9898C105.285 16.1296 104.034 16.5825 103.676 16.917C103.626 16.9637 103.566 17.0019 103.542 17.0019C103.48 17.0019 102.814 17.5379 102.656 17.7144C102.582 17.7964 102.413 17.984 102.279 18.1309C101.932 18.5111 101.655 18.9675 101.234 19.8548C100.291 21.8389 100.2 25.9777 101.052 28.1459C101.345 28.8891 101.854 29.8398 101.961 29.8398C101.99 29.8398 102.013 29.8698 102.013 29.9069C102.013 29.9942 102.956 30.9688 103.041 30.9688C103.076 30.9688 103.105 30.9924 103.105 31.0209C103.105 31.1921 104.573 31.931 105.405 32.1792C106.701 32.5654 108.747 32.5632 110.119 32.1745C110.884 31.9574 111.843 31.5651 112.006 31.4018C112.047 31.3597 112.105 31.3255 112.133 31.3255C112.284 31.3255 113.154 30.6315 113.669 30.1005C114.467 29.2775 114.47 29.2161 113.755 28.5525C113.479 28.2961 113.186 28.0197 113.103 27.9377C112.462 27.3022 112.359 27.3033 111.728 27.9516C110.279 29.4401 107.946 29.9086 105.953 29.112C105.701 29.0111 105.468 28.9069 105.436 28.8798C105.403 28.8531 105.295 28.7639 105.196 28.6816C105.096 28.5995 104.999 28.5321 104.98 28.5321C104.833 28.5321 104.187 27.6517 103.997 27.1916C103.838 26.8086 103.619 26.0141 103.649 25.9328C103.671 25.8729 104.737 25.8576 108.891 25.8576C112.771 25.8576 114.154 25.8394 114.295 25.787C114.552 25.691 114.563 25.6047 114.519 24.0852C114.471 22.4327 114.366 21.6528 114.043 20.538C113.9 20.0452 113.583 19.3284 113.356 18.9818C113.283 18.8705 113.223 18.7539 113.223 18.7229C113.223 18.6915 113.199 18.6658 113.169 18.6658C113.14 18.6658 113.1 18.6138 113.08 18.5499C112.894 17.9426 111.156 16.6592 109.985 16.2641C109.188 15.9952 107.274 15.778 106.785 15.9007ZM75.598 16.0062C74.3856 16.176 73.1566 16.8232 72.4409 17.6691L72.1778 17.9804V17.2251V16.4698L72.0018 16.376C71.7197 16.2252 69.4225 16.2715 69.2518 16.4313L69.1307 16.5447V24.2232C69.1307 31.5865 69.1352 31.9057 69.2359 31.9998C69.3901 32.1439 71.9484 32.1485 72.0874 32.0048C72.1678 31.9217 72.1778 31.4146 72.1778 27.32C72.1778 21.9095 72.1785 21.9003 72.6851 20.8055C73.7951 18.4073 77.7361 18.2757 78.843 20.6001C79.3421 21.6481 79.3593 21.8725 79.3618 27.2858C79.3631 31.3041 79.3738 31.8493 79.4528 31.9663C79.5411 32.0964 79.5611 32.0982 80.9046 32.0964L82.2667 32.0947L82.3691 31.9485C82.5036 31.7577 82.4919 21.6346 82.3564 20.8946C82.1697 19.8744 81.8455 19 81.3947 18.301C81.1388 17.9041 80.499 17.1802 80.4041 17.1802C80.3762 17.1802 80.3382 17.1399 80.3199 17.091C80.3017 17.0418 80.2472 17.0019 80.1989 17.0019C80.1506 17.0019 80.1109 16.9769 80.1109 16.9463C80.1109 16.9159 80.0592 16.8739 79.9961 16.8532C79.9333 16.8325 79.8484 16.784 79.8084 16.7451C79.6756 16.6178 79.2193 16.4092 78.5588 16.1745C77.9638 15.9631 76.4999 15.88 75.598 16.0062ZM92.6429 18.8013C92.8485 18.8787 93.0941 18.9846 93.1889 19.0367C93.2838 19.0891 93.4435 19.1761 93.5438 19.2303C94.1409 19.5531 94.9201 20.609 95.2436 21.534C95.4406 22.0964 95.4447 26.1386 95.2495 26.7527C94.1588 30.179 89.896 30.793 88.0582 27.7879C88.0186 27.7233 87.9599 27.6035 87.9275 27.5219C87.8954 27.4402 87.8461 27.3197 87.8182 27.2544C87.5181 26.554 87.4122 25.7517 87.4139 24.1933C87.4167 21.9456 87.7368 20.8497 88.7049 19.7742C89.6214 18.7564 91.3736 18.3235 92.6429 18.8013ZM108.365 18.8131C110.211 19.118 111.302 20.3676 111.496 22.4013C111.587 23.3477 112.079 23.2458 107.51 23.2279L103.594 23.2126L103.613 22.7372C103.641 22.0311 103.994 20.8454 104.295 20.4496C105.326 19.0923 106.704 18.5385 108.365 18.8131ZM133.77 24.5859C133.908 24.6408 133.904 26.9434 133.765 27.3732C133.548 28.0475 133.087 28.7012 132.625 28.9904C132.252 29.224 131.749 29.4279 131.207 29.5645C130.379 29.7738 128.305 29.6401 128.029 29.3602C127.999 29.3295 127.94 29.3049 127.897 29.3049C127.735 29.3049 127.054 28.7229 126.957 28.5025C126.929 28.4369 126.882 28.3435 126.854 28.2943C126.669 27.9683 126.618 27.7237 126.618 27.1756C126.618 25.5199 127.58 24.7328 129.75 24.6119C130.718 24.5581 133.652 24.5392 133.77 24.5859Z" fill="#C4C4C4"/>
</svg>
