<svg width="67" height="51" viewBox="0 0 67 51" fill="none" xmlns="http://www.w3.org/2000/svg">
<path d="M39.6569 23.0667L43.2408 19.3703L39.5853 15.5939L36.01 19.2991C34.5106 18.2439 32.799 17.5117 30.9583 17.1411V11.9033H25.8034V17.144C23.9569 17.5116 22.2539 18.2407 20.7602 19.299L17.1765 15.5938L13.5296 19.3702L17.1019 23.0665C16.0957 24.6169 15.3875 26.3746 15.029 28.2895H9.95441V33.6162H15.029C15.3874 35.5191 16.0927 37.2799 17.1019 38.8302L13.5296 42.5354L17.1736 46.3058L20.7573 42.6065C22.251 43.6559 23.9569 44.388 25.8034 44.7585V50.0022H30.9612V44.7585C32.8018 44.3939 34.5077 43.6647 36.013 42.6125L39.5882 46.3058L43.2437 42.5354L39.66 38.8302C40.6749 37.2859 41.386 35.5191 41.73 33.6162H46.8103V28.2895H41.727C41.38 26.3747 40.6748 24.617 39.6569 23.0667ZM28.378 36.7761C25.273 36.7761 22.7529 34.1587 22.7529 30.9426C22.7529 27.7353 25.273 25.1239 28.378 25.1239C31.4917 25.1239 34.0146 27.7354 34.0146 30.9426C34.0174 34.1587 31.4944 36.7761 28.378 36.7761Z" fill="#084482"/>
<path d="M44.6685 5.12993C40.1472 2.13901 34.8001 0.375244 29.0403 0.375244C13.002 0.375382 0 13.8152 0 30.3971C0 37.3274 2.29368 43.6798 6.10111 48.7664L9.74799 44.9989C6.84649 40.9053 5.08047 35.8988 5.08047 30.4208C5.08047 16.741 15.806 5.65775 29.0374 5.65775C33.4383 5.65775 37.498 6.97092 41.0445 9.13485L38.2463 12.2177L49.6198 13.2848L48.3985 1.00696L44.6685 5.12993Z" fill="#084482"/>
<path d="M66.8107 31.0283L59.6861 23.6653V27.7885H50.308V34.2682H59.6861V38.4004L66.8107 31.0283Z" fill="#084482"/>
</svg>
