<svg width="16" height="16" viewBox="0 0 16 16" fill="none" xmlns="http://www.w3.org/2000/svg">
<path d="M7.93457 3.9873C7.53901 3.9873 7.15233 4.1046 6.82343 4.32436C6.49453 4.54413 6.23819 4.85648 6.08681 5.22194C5.93544 5.58739 5.89583 5.98952 5.973 6.37748C6.05017 6.76544 6.24065 7.12181 6.52036 7.40151C6.80006 7.68122 7.15643 7.8717 7.54439 7.94887C7.93235 8.02604 8.33449 7.98643 8.69994 7.83506C9.06539 7.68368 9.37775 7.42734 9.59751 7.09844C9.81727 6.76954 9.93457 6.38286 9.93457 5.9873C9.93397 5.45705 9.72306 4.9487 9.34812 4.57376C8.97318 4.19882 8.46482 3.98791 7.93457 3.9873ZM7.93457 6.9873C7.73679 6.9873 7.54345 6.92865 7.379 6.81877C7.21455 6.70889 7.08638 6.55271 7.01069 6.36998C6.935 6.18726 6.9152 5.98619 6.95379 5.79221C6.99237 5.59823 7.08761 5.42005 7.22746 5.2802C7.36732 5.14034 7.5455 5.0451 7.73948 5.00652C7.93346 4.96793 8.13453 4.98774 8.31725 5.06342C8.49998 5.13911 8.65616 5.26728 8.76604 5.43173C8.87592 5.59618 8.93457 5.78952 8.93457 5.9873C8.93427 6.25242 8.82881 6.5066 8.64134 6.69407C8.45387 6.88154 8.19969 6.98699 7.93457 6.9873Z" fill="#4C5059"/>
<path d="M11.7787 2.14109C10.8285 1.19111 9.56007 0.626776 8.21823 0.557017C6.87638 0.487259 5.55626 0.917018 4.51265 1.76335C3.46904 2.60968 2.77591 3.81259 2.56705 5.13991C2.35819 6.46723 2.6484 7.82487 3.38167 8.9508L7.16002 14.7512C7.2441 14.8803 7.35906 14.9863 7.49449 15.0597C7.62992 15.1331 7.78152 15.1716 7.93556 15.1716C8.08961 15.1716 8.24121 15.1331 8.37664 15.0597C8.51206 14.9863 8.62703 14.8803 8.71111 14.7512L12.4896 8.9508C13.17 7.90634 13.4707 6.65974 13.3412 5.41995C13.2118 4.18015 12.6602 3.02252 11.7787 2.14109ZM11.6517 8.40496L7.93558 14.1096L4.21942 8.40496C3.08192 6.65874 3.32589 4.32187 4.79952 2.84818C5.21135 2.43634 5.70026 2.10965 6.23835 1.88677C6.77644 1.66388 7.35316 1.54916 7.93558 1.54916C8.518 1.54916 9.09472 1.66388 9.63281 1.88677C10.1709 2.10965 10.6598 2.43634 11.0716 2.84818C12.5453 4.32187 12.7892 6.65874 11.6517 8.40496Z" fill="#4C5059"/>
</svg>
