<svg width="24" height="24" viewBox="0 0 24 24" fill="none" xmlns="http://www.w3.org/2000/svg">
<path d="M3.89062 10.0584V8.9624H0V11.9554H1.99364L3.89062 10.0584Z" fill="#F2A126"/>
<path d="M3.89062 7.55605V5.59391H20.1094V7.55605H24C24 6.6545 23.6885 5.60755 23.1229 4.9047C22.5575 4.20219 21.7607 3.70813 20.8792 3.5135H20.8792C17.9683 2.8708 14.9809 2.54492 12 2.54492C9.01908 2.54492 6.03169 2.8708 3.12084 3.51345C2.23936 3.70808 1.44253 4.20214 0.877172 4.90466C0.311531 5.60755 0 6.6545 0 7.55605H3.89062Z" fill="#F2A126"/>
<path d="M20.1094 8.9624V10.0584L22.0064 11.9554H24V8.9624H20.1094Z" fill="#F2A126"/>
<path d="M18.7031 7H5.29689V10.6407L3.29692 12.6407V15.9569L3.13277 16.0663C2.29628 16.624 1.79688 17.5571 1.79688 18.5625V21.4552H22.2031V18.5625C22.2031 17.5571 21.7037 16.624 20.8672 16.0663L20.7031 15.9569V12.6407L18.7031 10.6406V7ZM16.4531 14.2276C16.4531 16.6831 14.4555 18.6807 12 18.6807C9.54456 18.6807 7.54689 16.6831 7.54689 14.2276C7.54689 11.7722 9.54456 9.77448 12 9.77448C14.4555 9.77448 16.4531 11.7721 16.4531 14.2276Z" fill="#F2A126"/>
<path d="M12 11.1807C10.32 11.1807 8.95312 12.5475 8.95312 14.2275C8.95312 15.9076 10.32 17.2744 12 17.2744C13.68 17.2744 15.0469 15.9076 15.0469 14.2275C15.0469 12.5475 13.68 11.1807 12 11.1807ZM12.7031 14.9307H11.2969V13.5244H12.7031V14.9307Z" fill="#F2A126"/>
</svg>
