<svg width="53" height="51" viewBox="0 0 53 51" fill="none" xmlns="http://www.w3.org/2000/svg">
<path d="M26.2502 32.8345C25.6142 32.8345 25.0991 33.3676 25.0991 34.0252C25.0991 34.6827 25.6143 35.2161 26.2502 35.2161C26.8864 35.2161 27.402 34.6827 27.402 34.0252C27.402 33.3676 26.8864 32.8345 26.2502 32.8345Z" fill="#084482"/>
<path d="M51.4293 0.375244H1.07144C0.479685 0.375244 0 0.871188 0 1.483V37.7572C0 38.369 0.479685 38.865 1.07144 38.865H19.7907L17.9166 43.5652H14.3937C13.802 43.5652 13.3222 44.0613 13.3222 44.673V48.8944C13.3222 49.5063 13.802 50.0022 14.3937 50.0022H38.1072C38.6988 50.0022 39.1786 49.5063 39.1786 48.8944V44.673C39.1786 44.0613 38.6988 43.5652 38.1072 43.5652H34.5844L32.7101 38.865H51.4293C52.0209 38.865 52.5007 38.369 52.5007 37.7572V1.483C52.5007 0.871077 52.0209 0.375244 51.4293 0.375244ZM50.3578 2.59076V29.2768H2.14289V2.59076H50.3578ZM37.0357 47.7867H15.4651V45.7807H37.0357V47.7867ZM32.2664 43.5652H20.2344L22.1086 38.865H30.3921L32.2664 43.5652ZM2.14289 36.6495V31.4923H50.3578V36.6495H2.14289Z" fill="#084482"/>
<path d="M34.6295 15.8935C34.6295 15.2818 34.1497 14.7858 33.558 14.7859L32.4154 14.786C32.3508 14.4012 32.255 14.0276 32.1276 13.6693L33.1156 13.0796C33.6279 12.7735 33.8035 12.096 33.5075 11.5662C33.2115 11.0365 32.5564 10.8547 32.0439 11.1609L31.053 11.7527C30.8138 11.457 30.5496 11.1838 30.2636 10.9363L30.836 9.91196C31.132 9.38222 30.9565 8.70459 30.4441 8.39862C29.9318 8.09243 29.2765 8.27399 28.9804 8.80373L28.4099 9.82511C28.0634 9.69339 27.702 9.59425 27.3299 9.52734V8.34655C27.3299 7.73472 26.8502 7.23877 26.2584 7.23877C26.2558 7.23877 26.253 7.23921 26.2503 7.23921C26.2476 7.23921 26.2448 7.23877 26.2422 7.23877C25.6505 7.23877 25.1707 7.73472 25.1707 8.34655V9.52723C24.7986 9.59414 24.4372 9.69317 24.0907 9.825L23.5202 8.80362C23.2241 8.27388 22.5688 8.09232 22.0565 8.39851C21.5441 8.70448 21.3686 9.38211 21.6646 9.91185L22.237 10.9362C21.951 11.1837 21.6868 11.4569 21.4476 11.7525L20.4567 11.1608C19.9442 10.8546 19.2891 11.0364 18.9931 11.5661C18.6971 12.0958 18.8727 12.7734 19.385 13.0794L20.373 13.6692C20.2456 14.0275 20.1498 14.4011 20.0852 14.7859L18.9426 14.7858C18.3509 14.7856 17.8711 15.2817 17.8711 15.8934C17.8711 16.5053 18.3509 17.0012 18.9426 17.0012L20.0852 17.0011C20.1497 17.3857 20.2456 17.7594 20.373 18.1176L19.385 18.7075C18.8727 19.0136 18.6971 19.691 18.9931 20.2209C19.2891 20.7505 19.9442 20.9323 20.4567 20.6261L21.4476 20.0343C21.6868 20.3301 21.951 20.6033 22.237 20.8506L21.6646 21.8751C21.3686 22.4049 21.5441 23.0824 22.0565 23.3884C22.5688 23.6945 23.2241 23.513 23.5202 22.9834L24.0907 21.9619C24.4372 22.0936 24.7986 22.1928 25.1707 22.2596V23.4403C25.1707 24.0521 25.6505 24.5481 26.2422 24.5481C26.2448 24.5481 26.2476 24.5477 26.2503 24.5477C26.253 24.5477 26.2558 24.5481 26.2584 24.5481C26.8502 24.5481 27.3299 24.0521 27.3299 23.4403V22.2596C27.702 22.1928 28.0634 22.0937 28.4099 21.9619L28.9804 22.9834C29.2765 23.513 29.9318 23.6945 30.4441 23.3884C30.9565 23.0824 31.132 22.4049 30.836 21.8751L30.2636 20.8506C30.5496 20.6033 30.8138 20.3301 31.053 20.0343L32.0439 20.6261C32.5564 20.9323 33.2116 20.7505 33.5075 20.2209C33.8035 19.691 33.6279 19.0136 33.1156 18.7075L32.1276 18.1176C32.255 17.7594 32.3508 17.3857 32.4154 17.0011L33.558 17.0012C34.1497 17.0013 34.6295 16.5054 34.6295 15.8935ZM26.2583 20.1412C26.2557 20.1412 26.2529 20.141 26.2502 20.141C26.2475 20.141 26.2447 20.1412 26.2421 20.1412C23.9769 20.1412 22.1341 18.2358 22.1341 15.8935C22.1341 13.5514 23.9769 11.6459 26.2421 11.6459C26.2447 11.6459 26.2475 11.6461 26.2502 11.6461C26.2529 11.6461 26.2557 11.6459 26.2583 11.6459C28.5235 11.6459 30.3662 13.5514 30.3662 15.8935C30.3662 18.2357 28.5235 20.1412 26.2583 20.1412Z" fill="#084482"/>
</svg>
