<svg width="48" height="48" viewBox="0 0 48 48" fill="none" xmlns="http://www.w3.org/2000/svg">
<circle cx="24" cy="24" r="24" fill="#084482"/>
<path d="M18.3736 18.56C18.5016 17.168 19.0776 16.08 20.1016 15.296C21.1416 14.496 22.4616 14.096 24.0616 14.096C25.6776 14.096 26.9496 14.52 27.8776 15.368C28.8216 16.216 29.2936 17.296 29.2936 18.608C29.2936 19.552 29.0296 20.384 28.5016 21.104C27.9736 21.808 27.2936 22.288 26.4616 22.544V22.664C27.4376 22.936 28.2056 23.464 28.7656 24.248C29.3256 25.032 29.6056 26.08 29.6056 27.392C29.6056 28.704 29.1176 29.816 28.1416 30.728C27.1816 31.64 25.8456 32.096 24.1336 32.096C22.4376 32.096 21.0456 31.664 19.9576 30.8C18.8696 29.936 18.2696 28.712 18.1576 27.128H20.2216C20.3016 28.04 20.6776 28.792 21.3496 29.384C22.0376 29.96 22.9416 30.248 24.0616 30.248C25.1976 30.248 26.0616 29.952 26.6536 29.36C27.2616 28.752 27.5656 27.976 27.5656 27.032C27.5656 25.768 27.1656 24.872 26.3656 24.344C25.5656 23.816 24.3416 23.552 22.6936 23.552H22.1176V21.728H22.7176C25.7256 21.696 27.2296 20.728 27.2296 18.824C27.2296 17.944 26.9416 17.248 26.3656 16.736C25.8056 16.224 25.0136 15.968 23.9896 15.968C22.9656 15.968 22.1576 16.208 21.5656 16.688C20.9736 17.152 20.6136 17.776 20.4856 18.56H18.3736Z" fill="white"/>
</svg>
