<svg width="24" height="24" viewBox="0 0 24 24" fill="none" xmlns="http://www.w3.org/2000/svg">
<g clip-path="url(#clip0)">
<path d="M19.6143 15.799C18.8602 15.3619 18.3516 14.5464 18.3516 13.6139V7.96345C18.3516 5.59036 16.597 3.61955 14.317 3.2797V2.31698C14.317 1.03941 13.2776 0 12 0C10.7224 0 9.68304 1.03941 9.68304 2.31698V3.2797C7.40304 3.61955 5.64846 5.59036 5.64846 7.96345V13.6139C5.64846 14.5464 5.13982 15.3619 4.38574 15.799H19.6143Z" fill="#FF3D00"/>
<path d="M2.4209 17.2051V20.7722H9.68315V21.6829C9.68315 22.9604 10.7226 23.9998 12.0001 23.9998C13.2777 23.9998 14.3171 22.9604 14.3171 21.6829V20.7721H21.5794V17.2051H2.4209V17.2051Z" fill="#FF3D00"/>
</g>
<defs>
<clipPath id="clip0">
<rect width="24" height="24" fill="white"/>
</clipPath>
</defs>
</svg>
