<svg width="148" height="28" viewBox="0 0 148 28" fill="none" xmlns="http://www.w3.org/2000/svg">
<path d="M39.4441 22.7071V28.0003H36.1243V10.769H39.4441V11.5934C40.4327 10.9505 41.5846 10.6037 42.7638 10.5938C46.5336 10.5938 49.3055 13.5907 49.3055 17.1613C49.3055 20.7319 46.5594 23.7289 42.7638 23.7289C41.5795 23.7308 40.4223 23.3747 39.4441 22.7071V22.7071ZM39.4441 15.59V18.6367C39.706 19.1943 40.1129 19.6712 40.6224 20.0176C41.1318 20.3639 41.725 20.5669 42.3398 20.6053C42.9546 20.6437 43.5684 20.5161 44.117 20.2359C44.6656 19.9557 45.1288 19.5331 45.458 19.0125C45.7873 18.4918 45.9705 17.8923 45.9885 17.2765C46.0065 16.6608 45.8587 16.0515 45.5604 15.5125C45.2622 14.9735 44.8245 14.5246 44.2932 14.2128C43.762 13.901 43.1567 13.7377 42.5407 13.7401C41.9038 13.7311 41.2769 13.8994 40.7301 14.226C40.1833 14.5527 39.738 15.0249 39.4441 15.59V15.59Z" fill="#C2C2C2"/>
<path d="M51.1038 7.29596C51.093 7.04467 51.1336 6.79382 51.2233 6.55882C51.313 6.32383 51.4498 6.10966 51.6253 5.92949C51.8008 5.74932 52.0113 5.60695 52.2439 5.51114C52.4764 5.41533 52.7262 5.3681 52.9776 5.37236C53.2326 5.36793 53.4859 5.41449 53.7226 5.50929C53.9593 5.60409 54.1747 5.74523 54.3561 5.92442C54.5375 6.10361 54.6813 6.31724 54.7791 6.55277C54.8768 6.78829 54.9265 7.04097 54.9252 7.29596C54.9199 7.8088 54.7123 8.29879 54.3475 8.65936C53.9828 9.01993 53.4905 9.22193 52.9776 9.22141C52.7275 9.22025 52.4801 9.16927 52.2499 9.07146C52.0198 8.97364 51.8113 8.83094 51.6369 8.65169C51.4625 8.47244 51.3255 8.26024 51.234 8.02746C51.1424 7.79469 51.0982 7.54602 51.1038 7.29596ZM51.3049 10.7688H54.6762V23.5295H51.3049V10.7688Z" fill="#C2C2C2"/>
<path d="M56.6716 17.1127C56.6649 16.2539 56.8299 15.4023 57.157 14.6081C57.4841 13.814 57.9666 13.0932 58.5763 12.4882C59.1859 11.8832 59.9104 11.4062 60.707 11.0852C61.5037 10.7641 62.3564 10.6056 63.2152 10.6189C64.3894 10.6195 65.5452 10.911 66.5792 11.4673V10.7683H69.8768V22.8042C69.8768 26.124 67.0034 27.924 63.4089 27.924C61.0611 27.924 58.8129 27.225 57.3393 26.0797L58.7133 23.7079C60.1137 24.6051 61.7458 25.0737 63.4089 25.0561C65.7309 25.0561 66.4557 24.134 66.5553 22.6346C65.555 23.2743 64.3951 23.6201 63.2078 23.6323C59.3865 23.6286 56.6716 20.7829 56.6716 17.1127ZM66.5792 18.5347V15.6889C66.3003 15.0951 65.8591 14.5924 65.3066 14.2386C64.7541 13.8849 64.1128 13.6946 63.4568 13.6897C63.0038 13.6853 62.5544 13.7705 62.1345 13.9404C61.7145 14.1103 61.3322 14.3615 61.0097 14.6796C60.6871 14.9977 60.4306 15.3764 60.2549 15.794C60.0792 16.2115 59.9878 16.6597 59.9859 17.1127C59.9859 19.0843 61.4834 20.4583 63.4329 20.4583C64.087 20.4753 64.7321 20.3028 65.2903 19.9615C65.8486 19.6202 66.2962 19.1247 66.5792 18.5347V18.5347Z" fill="#C2C2C2"/>
<path d="M71.8778 17.1127C71.871 16.2539 72.036 15.4023 72.3631 14.6081C72.6902 13.814 73.1728 13.0932 73.7824 12.4882C74.392 11.8832 75.1165 11.4062 75.9131 11.0852C76.7098 10.7641 77.5626 10.6056 78.4213 10.6189C79.598 10.6185 80.7564 10.91 81.7927 11.4673V10.7683H85.0885V22.8042C85.0885 26.124 82.2169 27.924 78.6224 27.924C76.2746 27.924 74.0264 27.225 72.5528 26.0797L73.9268 23.7079C75.3271 24.6054 76.9592 25.074 78.6224 25.0561C80.9443 25.0561 81.6692 24.134 81.7687 22.6346C80.7684 23.2741 79.6086 23.6198 78.4213 23.6323C74.5999 23.6286 71.8778 20.7829 71.8778 17.1127ZM81.7927 18.5347V15.6889C81.5136 15.0953 81.0724 14.5926 80.5199 14.2389C79.9675 13.8852 79.3263 13.6948 78.6703 13.6897C78.2173 13.6853 77.7679 13.7705 77.348 13.9404C76.928 14.1103 76.5457 14.3615 76.2232 14.6796C75.9006 14.9977 75.6441 15.3764 75.4684 15.794C75.2927 16.2115 75.2013 16.6597 75.1993 17.1127C75.1993 19.0843 76.6969 20.4583 78.6463 20.4583C79.3004 20.4751 79.9454 20.3025 80.5036 19.9612C81.0619 19.6199 81.5095 19.1245 81.7927 18.5347Z" fill="#C2C2C2"/>
<path d="M89.9318 10.7686L93.2792 19.2837L96.7244 10.7686H100.229L92.879 27.9999H89.7584L91.6027 23.4057L86.2377 10.7686H89.9318Z" fill="#C2C2C2"/>
<path d="M99.5922 10.7686H103.163L106.416 19.3851L109.638 10.7686H113.142L108.023 23.5293H104.664L99.5922 10.7686Z" fill="#C2C2C2"/>
<path d="M113.378 17.0617C113.378 13.4672 115.949 10.4941 119.97 10.4941C123.692 10.4941 126.519 13.2919 126.587 16.9676C126.613 17.2837 126.613 17.6014 126.587 17.9175H116.525C116.624 19.7156 118.347 20.8886 120.195 20.8886C121.718 20.8886 122.617 20.4644 123.666 19.5976L125.49 21.5212C124.014 23.0686 122.539 23.7934 120.195 23.7934C115.876 23.7805 113.378 20.5585 113.378 17.0617ZM116.698 15.5383H123.142C122.818 14.3414 121.667 13.2919 119.92 13.2919C117.897 13.2919 117.049 14.3155 116.698 15.5383Z" fill="#C2C2C2"/>
<path d="M127.284 22.1566L128.917 19.5082C130.381 20.4846 132.099 21.0139 133.859 21.0315C135.534 21.0315 136.382 20.6074 136.382 19.8844C136.382 19.4086 135.982 19.06 135.134 18.8848L131.629 18.136C129.059 17.5827 127.884 16.3636 127.884 14.3662C127.884 12.2435 129.682 10.4692 133.404 10.4692C135.65 10.4692 137.646 11.1203 139.021 11.9687L137.498 14.5156C136.375 13.9162 134.877 13.267 133.302 13.267C131.88 13.267 131.056 13.6175 131.056 14.2648C131.056 14.6908 131.357 14.9656 132.179 15.115L135.13 15.6683C138.326 16.2917 139.556 17.7155 139.556 19.6391C139.556 22.4056 136.79 23.8589 133.761 23.8589C131.486 23.9028 129.244 23.3135 127.284 22.1566V22.1566Z" fill="#C2C2C2"/>
<path d="M140.22 10.7681H142.118V7.24735L145.438 5.10059V10.7681H147.385V13.6655H145.44V23.5307H142.12V13.6655H140.219V10.7681H140.22Z" fill="#C2C2C2"/>
<path d="M27.8121 12.8213C27.7567 12.0113 27.6239 11.2084 27.4155 10.4237C26.4657 6.91951 24.4647 4.16228 21.4142 2.19441C19.4928 0.94481 17.2858 0.203015 14.9997 0.0384261C14.0392 -0.0317259 13.0742 -0.00577695 12.1189 0.115887C11.1125 0.249092 10.1232 0.489606 9.16802 0.83332C6.62438 1.75085 4.40439 3.39185 2.78111 5.55448C1.15783 7.7171 0.202059 10.307 0.0313531 13.0057C0 13.5018 0 14.0016 0 14.4996V26.6056C0 26.9201 0.124941 27.2217 0.347338 27.4441C0.569734 27.6665 0.871369 27.7915 1.18589 27.7915H5.86303C6.15573 27.7897 6.43759 27.6805 6.65516 27.4847C6.87273 27.2889 7.01087 27.02 7.04338 26.7291V26.7291C7.07416 26.6155 7.09028 26.4983 7.09134 26.3806V26.1002C7.08858 26.0788 7.08858 26.0571 7.09134 26.0357V26.0043C7.12324 26.0128 7.15327 26.0272 7.17986 26.0468C8.92933 27.0142 10.8669 27.5929 12.8603 27.7435C13.6588 27.8026 14.4608 27.7945 15.2579 27.7195C17.1344 27.5467 18.9556 26.9915 20.6095 26.0882C22.2633 25.1849 23.7146 23.9525 24.8741 22.467C26.5268 20.388 27.5381 17.8725 27.7844 15.2281C27.8678 14.4284 27.8771 13.6227 27.8121 12.8213V12.8213ZM16.4143 20.5563C16.406 20.5989 16.383 20.6372 16.3493 20.6646C16.3156 20.6919 16.2733 20.7064 16.2298 20.7057H11.6191C11.5757 20.7064 11.5334 20.6919 11.4997 20.6646C11.4659 20.6372 11.4429 20.5989 11.4347 20.5563V20.5268V20.3552C11.4336 20.1436 11.4572 19.9326 11.5047 19.7263C11.5343 19.6563 11.5527 19.5733 11.5822 19.4958C11.6117 19.4183 11.6412 19.3464 11.6707 19.2708C11.7002 19.1952 11.7482 19.1269 11.7888 19.0624L11.8552 18.9628C11.8985 18.8984 11.946 18.8367 11.9972 18.7784C12.0507 18.712 12.1041 18.6548 12.1576 18.5939C12.4351 18.321 12.7723 18.1165 13.1425 17.9964C12.8236 17.8227 12.5715 17.5479 12.426 17.2152C12.2805 16.8826 12.2498 16.5109 12.3387 16.1589C12.4277 15.8068 12.6313 15.4944 12.9174 15.2708C13.2035 15.0471 13.5558 14.9251 13.9189 14.9238C14.3525 14.9271 14.7675 15.0998 15.0753 15.4051C15.2535 15.5845 15.3877 15.8027 15.4672 16.0426C15.5468 16.2826 15.5696 16.5377 15.5338 16.788C15.4981 17.0383 15.4047 17.2768 15.2612 17.4849C15.1176 17.693 14.9277 17.8649 14.7065 17.9872C15.2045 18.1513 15.6379 18.4688 15.9446 18.8941C16.2513 19.3194 16.4157 19.8308 16.4143 20.3552C16.4143 20.4216 16.4143 20.4936 16.4143 20.5563ZM24.3632 10.5122H3.49311C3.45399 10.5119 3.41549 10.5024 3.38078 10.4843C3.34607 10.4663 3.31614 10.4403 3.29346 10.4084C3.27077 10.3765 3.25597 10.3397 3.25028 10.301C3.24459 10.2623 3.24817 10.2228 3.26072 10.1858C4.03946 7.97888 5.48355 6.06786 7.39394 4.71613C9.30434 3.36439 11.587 2.6385 13.9272 2.6385C16.2675 2.6385 18.5501 3.36439 20.4605 4.71613C22.3709 6.06786 23.815 7.97888 24.5938 10.1858C24.6063 10.2227 24.6099 10.262 24.6043 10.3006C24.5987 10.3391 24.584 10.3758 24.5616 10.4077C24.5391 10.4395 24.5094 10.4656 24.4749 10.4837C24.4405 10.5019 24.4022 10.5117 24.3632 10.5122V10.5122Z" fill="#C2C2C2"/>
</svg>
