<svg width="18" height="22" viewBox="0 0 18 22" fill="none" xmlns="http://www.w3.org/2000/svg">
<path d="M17.3949 15.8538C16.4257 14.5979 15.2534 13.7821 13.5738 13.3196L12 18.7917C12 19.2958 11.5846 19.7083 11.0769 19.7083C10.5692 19.7083 10.1538 19.2958 10.1538 18.7917V14.4375C10.1538 13.805 9.6369 13.2917 8.99998 13.2917C8.36306 13.2917 7.84612 13.805 7.84612 14.4375V18.7917C7.84612 19.2958 7.43074 19.7083 6.92306 19.7083C6.41538 19.7083 6 19.2958 6 18.7917L4.42617 13.3196C2.74616 13.7871 1.57387 14.5979 0.604644 15.8538C0.221538 16.3488 0.0138461 17.3433 0 17.875V20.1667C0 21.1796 0.826137 22 1.84616 22H16.1538C17.1738 22 18 21.1796 18 20.1667V17.875C17.9861 17.3433 17.7784 16.3488 17.3949 15.8538ZM8.99998 11.4583C12.1107 11.4583 13.8461 7.52585 13.8461 4.84915C13.8461 2.17245 11.6769 0 8.99998 0C6.32309 0 4.15384 2.1725 4.15384 4.84915C4.15384 7.5258 5.8338 11.4583 8.99998 11.4583Z" fill="#06305B"/>
</svg>
