<svg width="71" height="51" viewBox="0 0 71 51" fill="none" xmlns="http://www.w3.org/2000/svg">
<path d="M69.444 33.8481C65.5162 30.5188 61.2852 28.3092 60.4332 27.8762C60.3321 27.8314 60.2743 27.7269 60.2743 27.6075V21.2921C61.0397 20.7696 61.5451 19.8589 61.5451 18.8287V12.2745C61.5451 9.01978 58.9892 6.3772 55.8411 6.3772H55.1624H54.4837C51.3357 6.3772 48.7798 9.01978 48.7798 12.2745V18.8287C48.7798 19.8589 49.2852 20.7547 50.0505 21.2921V27.6075C50.0505 27.6523 50.0361 27.6821 50.0361 27.712C51.2347 28.563 52.491 29.5185 53.7184 30.5636C55.148 31.7878 55.9711 33.5794 55.9711 35.5203V40.7905H70.5559V36.2966C70.5559 35.3561 70.1516 34.4603 69.444 33.8481Z" fill="#084482"/>
<path d="M20.5054 27.6075V21.2921C21.2707 20.7696 21.7761 19.8589 21.7761 18.8287V12.2745C21.7761 9.01978 19.2202 6.3772 16.0722 6.3772H15.3935H14.7148C11.5668 6.3772 9.01081 9.01978 9.01081 12.2745V18.8287C9.01081 19.8589 9.51622 20.7547 10.2816 21.2921V27.6075C10.2816 27.712 10.2238 27.8165 10.1227 27.8762C9.2563 28.3092 5.02526 30.5188 1.11191 33.8481C0.404331 34.4453 0 35.3561 0 36.2966V40.7905H14.5848V35.5203C14.5848 33.5943 15.4079 31.7878 16.8375 30.5636C18.0649 29.5185 19.3213 28.563 20.5198 27.712C20.5198 27.6821 20.5054 27.6523 20.5054 27.6075Z" fill="#084482"/>
<path d="M52.0578 32.6388C47.4513 28.7272 42.4838 26.1294 41.4585 25.6068C41.343 25.5471 41.2708 25.4276 41.2708 25.2933V17.8731C42.1661 17.2461 42.7726 16.186 42.7726 14.9916V7.30273C42.7726 3.48067 39.769 0.375244 36.0722 0.375244H35.278H34.4838C30.787 0.375244 27.7834 3.48067 27.7834 7.30273V14.9916C27.7834 16.201 28.3755 17.261 29.2852 17.8731V25.2933C29.2852 25.4276 29.213 25.5471 29.0975 25.6068C28.0867 26.1144 23.1191 28.7122 18.4982 32.6388C17.6606 33.3405 17.1841 34.4005 17.1841 35.5203V40.7905H24.0145V40.1933C24.0145 38.6555 25.0686 37.3716 26.4693 37.073C26.4838 37.0431 26.4982 37.0133 26.5127 36.9834C26.1805 36.4758 26.0072 35.8637 26.0072 35.2366C26.0072 34.3856 26.3249 33.5943 26.9025 32.9822L27.7256 32.1312C28.3033 31.534 29.0831 31.2055 29.9062 31.2055C30.5271 31.2055 31.1192 31.3996 31.6101 31.743C31.639 31.7281 31.6535 31.7281 31.6823 31.7131C31.9567 30.25 33.1986 29.1452 34.7004 29.1452H35.8701C37.3719 29.1452 38.6138 30.25 38.8881 31.7131C38.9026 31.7281 38.917 31.7281 38.9459 31.743C39.4513 31.3847 40.0434 31.1906 40.6787 31.1906C41.5019 31.1906 42.2672 31.5191 42.8448 32.1162L43.6679 32.9673C44.7221 34.0571 44.852 35.7591 44.0434 36.9983C44.0578 37.0133 44.0578 37.0282 44.0723 37.058C45.4874 37.3417 46.5704 38.6257 46.5704 40.1784V40.7905H53.4008V35.5203C53.3719 34.4005 52.8954 33.3405 52.0578 32.6388Z" fill="#084482"/>
<path d="M43.4657 39.3871H42.3105C42.1228 38.4017 41.7617 37.4611 41.1841 36.6101L42.0072 35.7591C42.296 35.4605 42.296 34.9529 42.0072 34.6543L41.1841 33.8033C40.8953 33.5047 40.4043 33.5047 40.1155 33.8033L39.2924 34.6543C38.4693 34.072 37.5451 33.6838 36.6065 33.5047V32.3103C36.6065 31.8773 36.2744 31.5339 35.8556 31.5339H34.6859C34.2672 31.5339 33.935 31.8773 33.935 32.3103V33.4898C32.982 33.6689 32.0578 34.0571 31.2347 34.6394L30.426 33.8033C30.1372 33.5047 29.6462 33.5047 29.3574 33.8033L28.5343 34.6543C28.2455 34.9529 28.2455 35.4605 28.5343 35.7591L29.3285 36.5802C28.7654 37.4462 28.3755 38.4017 28.2022 39.3871H27.0903C26.6715 39.3871 26.3394 39.7304 26.3394 40.1634V41.3727C26.3394 41.8057 26.6715 42.1491 27.0903 42.1491H28.2022C28.3755 43.1345 28.7509 44.1049 29.3285 44.9559L28.5487 45.7621C28.2599 46.0607 28.2599 46.5683 28.5487 46.8669L29.3718 47.7179C29.6607 48.0165 30.1516 48.0165 30.4404 47.7179L31.2202 46.9117C32.0578 47.494 32.982 47.8822 33.9495 48.0762V49.2258C33.9495 49.6588 34.2816 50.0022 34.7004 50.0022H35.87C36.2888 50.0022 36.6209 49.6588 36.6209 49.2258V48.0762C37.574 47.8822 38.4982 47.494 39.3213 46.9117L40.1155 47.7329C40.4043 48.0315 40.8953 48.0315 41.1841 47.7329L42.0072 46.8819C42.296 46.5833 42.296 46.0756 42.0072 45.777L41.1986 44.941C41.7617 44.075 42.1228 43.1345 42.3105 42.1491H43.4513C43.87 42.1491 44.2022 41.8057 44.2022 41.3727V40.1634C44.2311 39.7454 43.8845 39.3871 43.4657 39.3871ZM38.0361 43.6271C36.5199 45.1948 34.0505 45.2097 32.5199 43.6271C31.0036 42.0595 30.9892 39.5065 32.5199 37.9239C34.0361 36.3563 36.5054 36.3414 38.0361 37.9239C39.5524 39.5065 39.5524 42.0595 38.0361 43.6271Z" fill="#084482"/>
</svg>
