<svg width="17" height="16" viewBox="0 0 17 16" fill="none" xmlns="http://www.w3.org/2000/svg">
<path d="M16.2077 14.64L12.5259 11.04C13.4259 9.92 13.9986 8.39999 13.9986 6.8C13.9986 3.04001 10.8896 0 7.04423 0C3.19885 0 0.0898438 3.03999 0.0898438 6.8C0.0898438 10.56 3.19885 13.6 7.04423 13.6C8.68055 13.6 10.1532 13.04 11.3805 12.16L15.0622 15.76C15.2258 15.92 15.4713 16 15.6349 16C15.7986 16 16.044 15.92 16.2077 15.76C16.5349 15.44 16.5349 14.96 16.2077 14.64V14.64ZM1.72618 6.8C1.72618 3.92 4.09885 1.60001 7.04423 1.60001C9.98961 1.60001 12.3623 3.92 12.3623 6.8C12.3623 8.24 11.7896 9.52 10.8078 10.48C9.82596 11.44 8.5169 12 7.04421 12C4.09882 12 1.72616 9.68001 1.72616 6.80002L1.72618 6.8Z" fill="black"/>
</svg>
