<svg width="24" height="24" viewBox="0 0 24 24" fill="none" xmlns="http://www.w3.org/2000/svg">
<path d="M0 14.2969V17.1094C0 18.5332 1.15425 19.6875 2.57812 19.6875H3.98438C4.37269 19.6875 4.6875 19.3727 4.6875 18.9844V11.7188H2.57812C1.15425 11.7188 0 12.873 0 14.2969Z" fill="#37007D"/>
<path d="M16.4531 13.8281V10.0781C16.4531 9.17348 15.7171 8.4375 14.8125 8.4375H9.1875C8.28286 8.4375 7.54688 9.17348 7.54688 10.0781V13.8281C7.54688 14.7328 8.28286 15.4688 9.1875 15.4688H10.8079L13.4249 17.6495C13.5537 17.7569 13.7136 17.8125 13.8751 17.8125C13.9763 17.8125 14.0781 17.7907 14.1732 17.7461C14.4203 17.6304 14.5781 17.3822 14.5781 17.1094V15.4688H14.8125C15.7171 15.4688 16.4531 14.7328 16.4531 13.8281ZM12.9375 12.6562H11.0625C10.6742 12.6562 10.3594 12.3414 10.3594 11.9531C10.3594 11.5648 10.6742 11.25 11.0625 11.25H12.9375C13.3258 11.25 13.6406 11.5648 13.6406 11.9531C13.6406 12.3414 13.3258 12.6562 12.9375 12.6562Z" fill="#37007D"/>
<path d="M9.42188 22.5938C9.42188 23.3704 10.0515 24 10.8281 24H13.1719C13.9485 24 14.5781 23.3704 14.5781 22.5938C14.5781 21.8171 13.9485 21.1875 13.1719 21.1875H10.8281C10.0515 21.1875 9.42188 21.8171 9.42188 22.5938Z" fill="#37007D"/>
<path d="M19.781 21.0938V21.2344C19.781 21.6221 19.4656 21.9375 19.0779 21.9375H15.9061C15.9566 22.1482 15.9842 22.3678 15.9842 22.5938C15.9842 22.8535 15.948 23.1048 15.8818 23.3438H19.0779C20.241 23.3438 21.1873 22.3975 21.1873 21.2344V21.0938H19.781Z" fill="#37007D"/>
<path d="M21.4219 11.7188H19.3125V18.9844C19.3125 19.3727 19.6273 19.6875 20.0156 19.6875H21.4219C22.8457 19.6875 24 18.5332 24 17.1094V14.2969C24 12.873 22.8457 11.7188 21.4219 11.7188Z" fill="#37007D"/>
<path d="M19.1595 2.96555C17.2471 1.05319 14.7045 0 12 0C9.2955 0 6.75291 1.05319 4.84055 2.96555C2.92819 4.87791 1.875 7.4205 1.875 10.125V10.3125H4.6875V10.125C4.6875 6.09286 7.96786 2.8125 12 2.8125C16.0321 2.8125 19.3125 6.09286 19.3125 10.125V10.3125H22.125V10.125C22.125 7.4205 21.0718 4.87791 19.1595 2.96555Z" fill="#37007D"/>
</svg>
