<svg width="16" height="16" viewBox="0 0 16 16" fill="none" xmlns="http://www.w3.org/2000/svg">
<path d="M7.99991 0.380981C3.79191 0.380981 0.380859 3.79203 0.380859 8.00003C0.380859 12.208 3.79191 15.6191 7.99991 15.6191C12.2079 15.6191 15.619 12.208 15.619 8.00003C15.619 3.79203 12.2079 0.380981 7.99991 0.380981ZM7.99991 1.48498C9.65972 1.48498 11.1748 2.10593 12.3252 3.12765C11.4799 4.2427 10.1957 4.98517 8.90886 5.48765C8.18038 4.16092 7.36395 2.88442 6.46505 1.6667C6.96779 1.54551 7.48315 1.48452 8.00029 1.48498H7.99991ZM5.2281 2.10212C6.07762 3.37298 6.90048 4.55127 7.6521 5.88498C5.75114 6.37755 3.60295 6.67317 1.61857 6.67812C2.03686 4.64841 3.40029 2.96308 5.2281 2.10251V2.10212ZM13.0479 3.88117C13.9893 5.03163 14.5072 6.47044 14.515 7.95698C13.0079 7.65984 11.5092 7.58212 9.98314 7.73603C9.81172 7.30822 9.60372 6.90174 9.40448 6.46365C10.7199 5.93298 12.1264 5.02479 13.0479 3.88079V3.88117ZM8.18124 6.89298C8.34429 7.23965 8.53324 7.60765 8.71076 7.98365C6.58886 8.91927 4.33172 10.1696 3.16029 12.3616C2.03572 11.1171 1.4364 9.48569 1.48791 7.80917C3.76029 7.7985 5.99076 7.51431 8.18124 6.89298ZM11.6243 8.66936C12.5724 8.66956 13.5166 8.79119 14.4338 9.03127C14.2924 9.91364 13.9709 10.7575 13.4894 11.5103C13.0079 12.2631 12.3767 12.9088 11.635 13.4073C11.2852 11.8168 10.9519 10.2949 10.3626 8.76041C10.7803 8.69955 11.2018 8.66899 11.6239 8.66898L11.6243 8.66936ZM14.4677 8.78746C14.4631 8.82479 14.459 8.86136 14.4536 8.89793C14.459 8.86098 14.4635 8.82441 14.4677 8.78746ZM9.15724 9.05793C9.75762 10.6096 10.2289 12.3276 10.545 13.9996C9.74017 14.3412 8.87462 14.5166 8.00029 14.5155C6.55185 14.5175 5.14439 14.0347 4.00219 13.144C5.182 11.2301 7.00943 9.78174 9.15686 9.05831L9.15724 9.05793Z" fill="#4C5059"/>
</svg>
